<svg width="295" height="350" viewBox="0 0 295 350" fill="none" xmlns="http://www.w3.org/2000/svg">
<path d="M194.058 0.575446L271.918 37.0376L281.491 71.3855L203.334 117.742L175.977 104.931L161.544 15.214L194.058 0.575446Z" fill="#BDD5DD" fill-opacity="0.1"/>
<path d="M147.642 58.789C92.5938 57.3462 40.1821 87.0281 15.041 140.713C-19.2873 214.017 12.3082 301.269 85.6115 335.598C158.915 369.926 246.167 338.331 280.496 265.027C305.513 211.607 294.413 152.394 258.179 110.917L220.908 132.315C251.082 161.822 261.665 206.643 242.628 247.294C218.094 299.683 155.735 322.265 103.345 297.73C50.9553 273.196 28.3741 210.837 52.9084 158.447C72.0793 117.51 113.074 96.6323 155.076 101.165L147.642 58.789Z" fill="#BDD5DD" fill-opacity="0.1"/>
<path d="M161.422 15.6588L281.221 71.5219M194.079 0.992583L175.981 104.884M271.464 37.0781L203.512 117.722M189.325 28.6704L233.317 18.8368L254.061 58.8573M271.918 37.0376L194.058 0.575445L161.544 15.214L175.977 104.931L203.334 117.742L281.491 71.3854L271.918 37.0376ZM15.041 140.713C40.1821 87.0281 92.5938 57.3462 147.642 58.789L155.076 101.165C113.074 96.6323 72.0793 117.51 52.9085 158.447C28.3741 210.837 50.9553 273.196 103.345 297.73C155.735 322.265 218.094 299.683 242.628 247.294C261.665 206.643 251.082 161.822 220.908 132.315L258.179 110.917C294.413 152.394 305.513 211.607 280.496 265.027C246.167 338.331 158.915 369.926 85.6115 335.598C12.3082 301.269 -19.2873 214.017 15.041 140.713Z" stroke="#00FAEB"/>
</svg>
