<svg width="198" height="370" viewBox="0 0 198 370" fill="none" xmlns="http://www.w3.org/2000/svg">
<path fill-rule="evenodd" clip-rule="evenodd" d="M153.722 30.1159C146.997 34.3007 141.271 37.8642 137.667 41.8141C130.146 50.0563 125.11 69.6271 135.355 83.3393C135.998 81.4678 136.921 79.8515 137.952 78.7225C139.523 77.0001 142.02 75.4462 144.953 73.6214C149.667 70.6875 155.507 67.0533 160.436 60.8922C164.815 67.2399 163.841 80.2594 163.055 86.0749C162.732 88.4638 161.205 92.4771 158.635 95.9184C180.418 97.1469 193.707 69.9798 195.235 58.6748C197.038 45.3384 199.272 15.4816 189.23 0.924943C177.925 15.0537 164.533 23.3879 153.722 30.1159ZM108.833 108.168C113.545 98.0633 125.579 93.7018 135.712 98.4268L148.647 104.458C158.779 109.183 163.174 121.206 158.462 131.311L144.521 161.206L99.4837 128.218L108.833 108.168ZM94.0571 139.855L139.095 172.843L119.365 215.155L74.3271 182.166L94.0571 139.855ZM68.9005 193.804L49.1702 236.115L94.2077 269.104L113.938 226.792L68.9005 193.804ZM24.0135 290.064L43.7436 247.753L88.7811 280.741L69.051 323.052L24.0135 290.064ZM18.5869 301.702L3.28859 334.509C-1.42351 344.614 2.97081 356.636 13.1036 361.361L26.0383 367.393C36.1711 372.118 48.2053 367.756 52.9174 357.651L63.6244 334.69L18.5869 301.702Z" fill="#BDD5DD" fill-opacity="0.1"/>
<path d="M137.667 41.8141L137.297 41.4771L137.667 41.8141ZM153.722 30.1159L153.986 30.5404L153.722 30.1159ZM135.355 83.3393L134.954 83.6385L135.52 84.396L135.828 83.5018L135.355 83.3393ZM137.952 78.7225L138.321 79.0596L137.952 78.7225ZM144.953 73.6214L144.688 73.1969L144.953 73.6214ZM160.436 60.8922L160.848 60.6083L160.466 60.0548L160.046 60.5799L160.436 60.8922ZM163.055 86.0749L162.559 86.0079L163.055 86.0749ZM158.635 95.9184L158.235 95.6192L157.678 96.3652L158.607 96.4176L158.635 95.9184ZM195.235 58.6748L194.739 58.6079L195.235 58.6748ZM189.23 0.924943L189.642 0.641023L189.26 0.0874883L188.84 0.612566L189.23 0.924943ZM135.712 98.4268L135.923 97.9737L135.712 98.4268ZM148.647 104.458L148.435 104.912L148.647 104.458ZM144.521 161.206L144.226 161.609L144.717 161.969L144.974 161.417L144.521 161.206ZM99.4837 128.218L99.0306 128.006L98.8571 128.378L99.1883 128.621L99.4837 128.218ZM139.095 172.843L139.548 173.055L139.721 172.683L139.39 172.44L139.095 172.843ZM94.0571 139.855L94.3526 139.452L93.8613 139.092L93.604 139.644L94.0571 139.855ZM119.365 215.155L119.069 215.558L119.56 215.918L119.818 215.366L119.365 215.155ZM74.3271 182.166L73.8739 181.955L73.7004 182.327L74.0316 182.57L74.3271 182.166ZM49.1702 236.115L48.717 235.904L48.5435 236.276L48.8747 236.519L49.1702 236.115ZM68.9005 193.804L69.1959 193.4L68.7047 193.041L68.4473 193.592L68.9005 193.804ZM94.2077 269.104L93.9122 269.507L94.4035 269.867L94.6608 269.315L94.2077 269.104ZM113.938 226.792L114.391 227.003L114.565 226.631L114.233 226.389L113.938 226.792ZM43.7436 247.753L44.039 247.349L43.5478 246.99L43.2904 247.542L43.7436 247.753ZM24.0135 290.064L23.5603 289.853L23.3868 290.225L23.718 290.468L24.0135 290.064ZM88.7811 280.741L89.2342 280.952L89.4077 280.58L89.0765 280.338L88.7811 280.741ZM69.051 323.052L68.7555 323.456L69.2468 323.816L69.5042 323.264L69.051 323.052ZM18.5869 301.702L18.8823 301.298L18.3911 300.938L18.1337 301.49L18.5869 301.702ZM13.1036 361.361L12.8923 361.814L13.1036 361.361ZM26.0383 367.393L26.2497 366.94L26.0383 367.393ZM63.6244 334.69L64.0776 334.901L64.2511 334.529L63.9199 334.286L63.6244 334.69ZM142.347 101.341C142.155 101.54 142.16 101.856 142.359 102.048C142.558 102.24 142.874 102.234 143.066 102.036L142.347 101.341ZM151.085 83.1662C150.986 82.9085 150.696 82.78 150.438 82.8792C150.181 82.9784 150.052 83.2678 150.152 83.5255L151.085 83.1662ZM138.036 42.1511C141.583 38.2638 147.239 34.7392 153.986 30.5404L153.457 29.6914C146.755 33.8622 140.959 37.4645 137.297 41.4771L138.036 42.1511ZM135.755 83.04C130.728 76.3116 129.438 68.129 130.345 60.5851C131.253 53.0326 134.358 46.1823 138.036 42.1511L137.297 41.4771C133.455 45.6881 130.281 52.7442 129.352 60.4657C128.423 68.1958 129.736 76.6548 134.954 83.6385L135.755 83.04ZM137.582 78.3855C136.497 79.5751 135.543 81.2551 134.882 83.1767L135.828 83.5018C136.454 81.6805 137.346 80.1278 138.321 79.0596L137.582 78.3855ZM144.688 73.1969C141.778 75.0077 139.211 76.6005 137.582 78.3855L138.321 79.0596C139.835 77.3997 142.262 75.8847 145.217 74.0459L144.688 73.1969ZM160.046 60.5799C155.176 66.6667 149.404 70.262 144.688 73.1969L145.217 74.0459C149.929 71.1131 155.838 67.4399 160.827 61.2046L160.046 60.5799ZM163.55 86.1419C163.946 83.2169 164.389 78.4765 164.182 73.6616C163.976 68.869 163.122 63.9049 160.848 60.6083L160.025 61.1762C162.13 64.2272 162.978 68.9466 163.183 73.7046C163.387 78.4402 162.95 83.1174 162.559 86.0079L163.55 86.1419ZM159.036 96.2175C161.649 92.7182 163.215 88.6266 163.55 86.1419L162.559 86.0079C162.25 88.3011 160.761 92.236 158.235 95.6192L159.036 96.2175ZM194.739 58.6079C193.989 64.1628 190.324 73.6999 184.135 81.6905C177.947 89.6799 169.32 96.0202 158.663 95.4192L158.607 96.4176C169.733 97.0451 178.642 90.4161 184.926 82.3028C191.209 74.1908 194.953 64.4918 195.73 58.7418L194.739 58.6079ZM188.818 1.20886C193.755 8.36446 195.704 19.3454 196.175 30.279C196.644 41.1901 195.638 51.9568 194.739 58.6079L195.73 58.7418C196.634 52.0564 197.647 41.2265 197.174 30.236C196.702 19.2678 194.747 8.04208 189.642 0.641023L188.818 1.20886ZM153.986 30.5404C164.795 23.8134 178.256 15.4403 189.62 1.23732L188.84 0.612566C177.594 14.6671 164.27 22.9623 153.457 29.6914L153.986 30.5404ZM135.923 97.9737C125.541 93.1325 113.209 97.6005 108.38 107.957L109.286 108.38C113.881 98.526 125.617 94.2711 135.501 98.88L135.923 97.9737ZM148.858 104.005L135.923 97.9737L135.501 98.88L148.435 104.912L148.858 104.005ZM158.915 131.522C163.744 121.165 159.24 108.846 148.858 104.005L148.435 104.912C158.319 109.52 162.603 121.246 158.008 131.099L158.915 131.522ZM144.974 161.417L158.915 131.522L158.008 131.099L144.068 160.995L144.974 161.417ZM99.1883 128.621L144.226 161.609L144.817 160.803L99.7792 127.814L99.1883 128.621ZM108.38 107.957L99.0306 128.006L99.9369 128.429L109.286 108.38L108.38 107.957ZM139.39 172.44L94.3526 139.452L93.7617 140.258L138.799 173.247L139.39 172.44ZM119.818 215.366L139.548 173.055L138.641 172.632L118.911 214.943L119.818 215.366ZM74.0316 182.57L119.069 215.558L119.66 214.751L74.6225 181.763L74.0316 182.57ZM93.604 139.644L73.8739 181.955L74.7802 182.378L94.5103 140.066L93.604 139.644ZM49.6233 236.327L69.3536 194.015L68.4473 193.592L48.717 235.904L49.6233 236.327ZM94.5031 268.7L49.4656 235.712L48.8747 236.519L93.9122 269.507L94.5031 268.7ZM113.485 226.581L93.7545 268.892L94.6608 269.315L114.391 227.003L113.485 226.581ZM68.605 194.207L113.643 227.195L114.233 226.389L69.1959 193.4L68.605 194.207ZM43.2904 247.542L23.5603 289.853L24.4666 290.275L44.1967 247.964L43.2904 247.542ZM89.0765 280.338L44.039 247.349L43.4481 248.156L88.4856 281.144L89.0765 280.338ZM69.5042 323.264L89.2342 280.952L88.3279 280.53L68.5978 322.841L69.5042 323.264ZM69.3465 322.649L24.3089 289.661L23.718 290.468L68.7555 323.456L69.3465 322.649ZM18.1337 301.49L2.83543 334.298L3.74174 334.72L19.04 301.913L18.1337 301.49ZM2.83543 334.298C-1.99392 344.654 2.5104 356.973 12.8923 361.814L13.3149 360.908C3.43122 356.299 -0.853109 344.574 3.74174 334.72L2.83543 334.298ZM12.8923 361.814L25.827 367.846L26.2497 366.94L13.3149 360.908L12.8923 361.814ZM25.827 367.846C36.2089 372.687 48.5412 368.219 53.3705 357.862L52.4642 357.44C47.8693 367.294 36.1333 371.548 26.2497 366.94L25.827 367.846ZM53.3705 357.862L64.0776 334.901L63.1712 334.478L52.4642 357.44L53.3705 357.862ZM18.2914 302.105L63.3289 335.093L63.9199 334.286L18.8823 301.298L18.2914 302.105ZM143.066 102.036C146.634 98.3435 149.067 94.7817 150.398 91.5752C151.727 88.3739 151.975 85.4786 151.085 83.1662L150.152 83.5255C150.917 85.5134 150.747 88.1278 149.475 91.1918C148.205 94.2506 145.855 97.71 142.347 101.341L143.066 102.036Z" fill="#00FAEB"/>
</svg>
