<svg width="239" height="390" viewBox="0 0 239 390" fill="none" xmlns="http://www.w3.org/2000/svg">
<path d="M5.08473 341.508C2.8719 340.988 -0.612721 337.93 3.15146 329.858L23.8285 285.516L103.693 322.757L156.733 209.01L76.8694 171.769L79.0234 167.15C89.022 145.708 128.414 114.939 142.766 106.276C157.118 97.6125 167.705 74.9091 191.819 23.1958C189.749 22.2305 191.872 17.6781 193.565 14.0479C195.258 10.4177 197.395 5.83358 199.465 6.79886C200.261 5.09155 202.406 0.49236 204.711 1.56682L237.498 16.8559C238.708 17.4201 236.563 22.0195 235.767 23.7268C238.187 24.8553 236.614 28.2294 234.357 33.0697C232.1 37.9099 230.541 41.2522 228.121 40.1237C214.571 67.0757 192.943 114.932 196.009 131.103C199.842 151.317 201.525 195.098 190.35 219.062L114.478 381.77C112.125 386.815 110.361 390.599 105.52 388.342L5.08473 341.508Z" fill="#BDD5DD" fill-opacity="0.1"/>
<path d="M72.3535 181.454L142.537 214.181L98.5248 308.566L28.3408 275.839L72.3535 181.454Z" fill="#BDD5DD" fill-opacity="0.1"/>
<path d="M199.617 6.8934L236.048 23.8814M191.555 23.1014L227.986 40.0894M165.804 76.1617L203.891 93.9219M5.08473 341.508C2.8719 340.988 -0.612716 337.93 3.15146 329.858L23.8285 285.516L103.693 322.757L156.733 209.01L76.8694 171.769L79.0234 167.15C89.022 145.708 128.414 114.939 142.766 106.276C157.118 97.6125 167.705 74.9091 191.819 23.1958C189.749 22.2305 191.872 17.6781 193.565 14.0479C195.258 10.4177 197.395 5.83358 199.465 6.79886C200.261 5.09155 202.406 0.492359 204.711 1.56682L237.498 16.8559C238.708 17.4201 236.563 22.0195 235.767 23.7268C238.187 24.8553 236.614 28.2294 234.357 33.0697C232.1 37.9099 230.541 41.2522 228.121 40.1237C214.571 67.0757 192.943 114.932 196.009 131.103C199.842 151.317 201.525 195.098 190.35 219.062L114.478 381.77C112.125 386.815 110.361 390.599 105.52 388.342L5.08473 341.508ZM72.3535 181.454L142.537 214.181L98.5248 308.566L28.3408 275.839L72.3535 181.454Z" stroke="#00FAEB"/>
</svg>
