<svg width="199" height="394" viewBox="0 0 199 394" fill="none" xmlns="http://www.w3.org/2000/svg">
<path d="M3.62359 347.47L3.66888 347.266L3.55501 347.09C2.62723 345.658 2.29549 344.385 2.33526 343.27C2.37508 342.154 2.78912 341.152 3.42874 340.268C4.71401 338.493 6.87647 337.248 8.50135 336.651C10.6969 336.089 14.0147 335.056 16.871 333.773C18.303 333.13 19.6391 332.416 20.6629 331.655C21.6649 330.909 22.4656 330.048 22.6525 329.086C23.0165 327.211 29.7211 303.866 40.3456 277.999C45.6553 265.072 51.9375 251.531 58.8868 239.74C65.7722 228.058 73.2879 218.136 81.1292 212.215L107.897 224.697C104.335 232.337 100.548 240.491 96.631 248.925C86.6854 270.339 75.8991 293.563 65.8189 314.785C51.6843 344.543 38.956 370.324 31.8859 381.658C27.9781 387.923 23.6758 391.487 19.6197 392.722C15.5946 393.949 11.7412 392.907 8.60898 389.797C5.45834 386.669 3.02511 381.429 1.97573 374.275C0.927407 367.129 1.26651 358.108 3.62359 347.47ZM74.8527 175.631C85.7299 152.402 105.527 116.679 128.09 82.7578C150.569 48.963 175.75 17.0235 197.558 0.983236C197.704 9.02079 194.6 21.9376 189.328 37.8982C183.856 54.4643 176.076 74.2319 167.273 95.0723C151.556 132.281 132.591 172.88 117.708 204.741C115.995 208.408 114.336 211.959 112.742 215.376L86.0421 202.925C87.7532 191.303 84.9235 184.432 81.5648 180.456C79.8745 178.455 78.0662 177.206 76.6768 176.457C75.982 176.082 75.3912 175.831 74.9707 175.674C74.9297 175.659 74.8904 175.644 74.8527 175.631ZM24.6419 367.774C24.3078 368.491 23.4561 368.801 22.7396 368.467C22.0231 368.133 21.7131 367.281 22.0472 366.564C22.3813 365.848 23.233 365.538 23.9495 365.872C24.666 366.206 24.976 367.058 24.6419 367.774ZM22.317 369.373C23.534 369.94 24.9807 369.414 25.5482 368.197C26.1157 366.98 25.5891 365.533 24.3721 364.966C23.1551 364.398 21.7084 364.925 21.1409 366.142C20.5734 367.359 21.0999 368.805 22.317 369.373ZM56.068 300.381C55.7339 301.097 54.8822 301.407 54.1657 301.073C53.4492 300.739 53.1392 299.887 53.4733 299.171C53.8075 298.454 54.6591 298.144 55.3756 298.478C56.0921 298.813 56.4021 299.664 56.068 300.381ZM53.7431 301.979C54.9601 302.547 56.4068 302.02 56.9743 300.803C57.5418 299.586 57.0153 298.14 55.7982 297.572C54.5812 297.005 53.1345 297.531 52.567 298.748C51.9995 299.965 52.5261 301.412 53.7431 301.979ZM82.5966 243.49C82.2625 244.206 81.4108 244.516 80.6943 244.182C79.9778 243.848 79.6678 242.997 80.0019 242.28C80.336 241.564 81.1877 241.254 81.9042 241.588C82.6207 241.922 82.9307 242.774 82.5966 243.49ZM80.2717 245.089C81.4887 245.656 82.9354 245.13 83.5029 243.913C84.0704 242.696 83.5438 241.249 82.3268 240.681C81.1098 240.114 79.6631 240.64 79.0956 241.857C78.5281 243.074 79.0546 244.521 80.2717 245.089Z" stroke="#00FAEB"/>
</svg>
