<svg width="227" height="386" viewBox="0 0 227 386" fill="none" xmlns="http://www.w3.org/2000/svg">
<path d="M140.053 5.10184C141.882 1.17961 146.544 -0.517328 150.467 1.31164L221.485 34.4281C225.407 36.257 227.104 40.9193 225.275 44.8415L204.776 88.8018L119.554 49.0622L140.053 5.10184Z" fill="#BDD5DD" fill-opacity="0.1"/>
<path d="M111.904 65.4675L197.126 105.207L95.671 322.779C93.842 326.701 89.1798 328.398 85.2575 326.569L14.2392 293.453C10.3169 291.624 8.62002 286.961 10.449 283.039L111.904 65.4675Z" fill="#BDD5DD" fill-opacity="0.1"/>
<path d="M10.3911 381.417C10.7692 384.158 13.7911 385.654 16.1995 384.293L40.5218 370.552L6.71677 354.789L10.3911 381.417Z" fill="#BDD5DD" fill-opacity="0.1"/>
<path d="M5.44171 345.548L0.912789 312.725C0.488586 309.651 3.63709 307.327 6.44984 308.639L78.2517 342.121C81.1399 343.467 81.2976 347.515 78.5231 349.083L48.9057 365.815L5.44171 345.548Z" fill="#BDD5DD" fill-opacity="0.1"/>
<path d="M125.231 36.8877L209.626 76.2416M140.273 79.1576L35.7148 303.383M169.232 92.6613L64.6738 316.886M204.776 88.8018L225.275 44.8415C227.104 40.9193 225.407 36.257 221.485 34.4281L150.467 1.31164C146.544 -0.517328 141.882 1.17961 140.053 5.10184L119.554 49.0621L204.776 88.8018ZM111.904 65.4675L197.126 105.207L95.671 322.779C93.842 326.701 89.1798 328.398 85.2575 326.569L14.2392 293.453C10.3169 291.624 8.62002 286.961 10.449 283.039L111.904 65.4675ZM16.1995 384.293C13.7911 385.654 10.7692 384.158 10.3911 381.417L6.71677 354.789L40.5218 370.552L16.1995 384.293ZM5.44171 345.548L0.912792 312.725C0.488581 309.651 3.6371 307.327 6.44984 308.639L78.2517 342.121C81.1399 343.467 81.2977 347.515 78.5231 349.083L48.9057 365.815L5.44171 345.548Z" stroke="#00FAEB"/>
</svg>
