<svg width="294" height="407" viewBox="0 0 294 407" fill="none" xmlns="http://www.w3.org/2000/svg">
<path d="M134.653 56.0865C142.194 39.9142 161.412 32.9144 177.576 40.4519L251.976 75.1451C268.14 82.6827 275.13 101.903 267.589 118.076L146.59 377.558C139.049 393.73 119.832 400.73 103.668 393.192L29.268 358.499C13.1037 350.962 6.11335 331.741 13.6546 315.569L134.653 56.0865Z" fill="#BDD5DD" fill-opacity="0.1"/>
<path d="M203.632 28.882C205.517 24.8389 210.321 23.089 214.362 24.9734L243.077 38.3632C247.118 40.2476 248.866 45.0528 246.98 49.0958L240.956 62.0146L197.608 41.8008L203.632 28.882Z" fill="#BDD5DD" fill-opacity="0.1"/>
<path d="M203.123 87.5668L188.292 119.371M179.608 95.4937L211.397 110.317M69.4156 331.802L101.205 346.625M134.653 56.0865C142.194 39.9142 161.412 32.9144 177.576 40.4519L251.976 75.1451C268.14 82.6827 275.13 101.903 267.589 118.076L146.59 377.558C139.049 393.73 119.832 400.73 103.668 393.192L29.268 358.499C13.1037 350.962 6.11334 331.741 13.6546 315.569L134.653 56.0865ZM203.632 28.882C205.517 24.8389 210.321 23.089 214.362 24.9734L243.077 38.3632C247.118 40.2476 248.866 45.0528 246.98 49.0958L240.956 62.0146L197.608 41.8008L203.632 28.882Z" stroke="#00FAEB"/>
<path d="M107.023 115.342L239.958 177.331" stroke="#00FAEB"/>
</svg>
