<svg width="192" height="388" viewBox="0 0 192 388" fill="none" xmlns="http://www.w3.org/2000/svg">
<path d="M133.421 155.939L130.649 162.855L130.648 162.859L131.113 163.041C130.648 162.859 130.648 162.859 130.648 162.859L130.647 162.862L130.643 162.871L130.629 162.907L130.572 163.052C130.522 163.18 130.446 163.371 130.346 163.624C130.145 164.129 129.847 164.88 129.454 165.858C128.668 167.816 127.505 170.687 125.997 174.34C122.98 181.647 118.582 192.083 113.058 204.601C102.009 229.636 86.4565 262.988 68.4388 296.266C50.4111 329.562 36.788 353.376 26.4009 368.269C21.2043 375.719 16.8407 380.903 13.1625 383.925C9.46695 386.962 6.61271 387.702 4.33457 386.64C2.04675 385.573 0.728553 382.96 0.606241 378.265C0.484324 373.584 1.56119 367.005 3.86887 358.299C8.48153 340.896 17.9664 315.154 32.3582 279.445C46.7436 243.752 62.2969 210.398 74.2545 185.966C80.2331 173.75 85.3124 163.766 88.8969 156.836C90.6891 153.371 92.1075 150.669 93.0778 148.834C93.5629 147.917 93.936 147.216 94.1878 146.745C94.3136 146.509 94.4091 146.331 94.4732 146.212L94.5454 146.077L94.5635 146.043L94.5681 146.035L94.5692 146.033C94.5694 146.032 94.5695 146.032 94.1294 145.795L94.5695 146.032L94.5702 146.031L98.1229 139.395C107.293 146.959 121.324 153.528 133.421 155.939ZM143.139 34.5249C145.019 32.4559 147.636 30.4994 150.771 28.4235C152.452 27.3105 154.253 26.1817 156.157 24.9882C157.825 23.9428 159.572 22.8477 161.387 21.6701C168.965 16.7537 177.457 10.5678 184.914 1.38386C188.637 7.22347 190.117 15.9175 190.464 24.5965C190.823 33.5371 189.978 42.3639 189.229 47.8177C188.493 53.1835 184.436 63.0914 177.622 70.1057C174.223 73.6055 170.161 76.3591 165.513 77.4874C160.875 78.6131 155.607 78.1324 149.76 75.0883C140.433 70.233 136.898 62.1948 136.629 54.3053C136.359 46.3829 139.388 38.6536 143.139 34.5249ZM113.201 111.228L133.154 73.9555L134.555 74.6088C136.307 79.2016 139.591 83.3031 144.95 86.1206C150.684 89.1354 155.978 89.385 160.695 87.8841L145.005 127.035C133.637 124.986 121.363 118.934 113.201 111.228ZM136.338 148.661C124.223 147.021 110.67 140.543 101.988 132.175L109.354 118.415C117.984 125.412 130.723 131.513 142.136 134.193L136.338 148.661Z" fill="#BDD5DD" fill-opacity="0.1" stroke="#00FAEB"/>
</svg>
