<svg width="267" height="400" viewBox="0 0 267 400" fill="none" xmlns="http://www.w3.org/2000/svg">
<path d="M149.315 5.28807C150.875 1.92604 154.865 0.465241 158.227 2.02529L261.715 50.0455C265.077 51.6056 266.538 55.5957 264.978 58.9578L259.328 71.1328L234.978 59.8339L218.736 94.837L240.042 104.723C243.404 106.284 244.865 110.274 243.305 113.636L226.357 150.161C234.891 159.67 248.649 193.797 235.231 222.712L153.314 399.25L1.12684 328.632L36.4358 252.538L114.051 288.553L156.422 197.241L78.8067 161.225L83.0437 152.094C98.8622 118.004 133.433 112.591 148.741 114.146L165.689 77.6205C167.249 74.2585 171.24 72.7977 174.602 74.3578L191.342 82.1257L207.584 47.1226L143.666 17.4631L149.315 5.28807Z" fill="#BDD5DD" fill-opacity="0.1"/>
<path d="M75.2419 170.649L143.054 202.135L109.157 275.185L41.3452 243.699L75.2419 170.649Z" fill="#BDD5DD" fill-opacity="0.1"/>
<path d="M148.918 114.297L226.117 150.295M207.728 47.1236L235.403 60.0286M191.417 82.1031L219.092 95.0081M158.227 2.02529C154.865 0.465241 150.875 1.92604 149.315 5.28807L143.666 17.4631L207.584 47.1226L191.342 82.1257L174.602 74.3578C171.24 72.7977 167.249 74.2585 165.689 77.6205L148.741 114.146C133.433 112.591 98.8622 118.004 83.0437 152.094L78.8066 161.225L156.422 197.241L114.051 288.553L36.4358 252.538L1.12684 328.632L153.314 399.25L235.231 222.712C248.649 193.797 234.891 159.67 226.357 150.161L243.305 113.636C244.865 110.274 243.404 106.284 240.042 104.723L218.736 94.837L234.978 59.8339L259.328 71.1328L264.978 58.9578C266.538 55.5957 265.077 51.6056 261.715 50.0455L158.227 2.02529ZM75.2419 170.649L143.054 202.135L109.157 275.185L41.3452 243.699L75.2419 170.649Z" stroke="#00FAEB"/>
</svg>
