<svg width="184" height="410" viewBox="0 0 184 410" fill="none" xmlns="http://www.w3.org/2000/svg">
<path d="M7.93933 403.427C-17.9461 388.315 34.4894 321.811 46.382 302.569L101.065 344.911C59.9618 397.869 39.0015 421.561 7.93933 403.427Z" fill="#BDD5DD" fill-opacity="0.1"/>
<path d="M112.612 331.224L56.5906 287.82C59.5941 279.872 63.7807 276.848 67.6722 269.947C71.5637 263.047 54.3155 238.01 50.2896 209.757C45.5635 176.591 70.6674 144.587 81.9533 148.845C93.2391 153.102 88.4083 183.399 87.1766 214.528C86.5283 230.913 94.1905 238.871 99.0314 235.924C125.13 210.898 126.891 134.194 118.279 112.86C107.276 85.6025 94.1595 18.5384 125.322 4.07004C186.608 -24.3847 186.556 125.692 180.465 157.893C176.669 177.962 165.395 226.467 154.34 249.35C136.046 295.298 134.85 301.317 112.612 331.224Z" fill="#BDD5DD" fill-opacity="0.1"/>
<path d="M7.93933 403.427C-17.9461 388.315 34.4894 321.811 46.382 302.569L101.065 344.911C59.9618 397.869 39.0015 421.561 7.93933 403.427Z" stroke="#00FAEB"/>
<path d="M112.612 331.224L56.5906 287.82C59.5941 279.872 63.7807 276.848 67.6722 269.947C71.5637 263.047 54.3155 238.01 50.2896 209.757C45.5635 176.591 70.6674 144.587 81.9533 148.845C93.2391 153.102 88.4083 183.399 87.1766 214.528C86.5283 230.913 94.1905 238.871 99.0314 235.924C125.13 210.898 126.891 134.194 118.279 112.86C107.276 85.6025 94.1595 18.5384 125.322 4.07004C186.608 -24.3847 186.556 125.692 180.465 157.893C176.669 177.962 165.395 226.467 154.34 249.35C136.046 295.298 134.85 301.317 112.612 331.224Z" stroke="#00FAEB"/>
</svg>
