<svg width="276" height="388" viewBox="0 0 276 388" fill="none" xmlns="http://www.w3.org/2000/svg">
<path d="M2.52764 331.849C4.59548 327.414 9.86652 325.496 14.3008 327.563L106.184 370.409C110.618 372.477 112.537 377.748 110.469 382.183C108.401 386.617 103.13 388.536 98.6957 386.468L6.81246 343.622C2.37817 341.554 0.459777 336.283 2.52764 331.849Z" fill="#BDD5DD" fill-opacity="0.1"/>
<path d="M15.6729 318.543C17.455 316.916 18.9526 315.062 20.1203 312.975C26.7273 298.806 25.4697 288.77 18.9317 266.57C17.7116 262.427 16.0913 258.516 14.2993 254.19C10.4435 244.882 5.79242 233.655 2.62091 214.067C-3.73576 174.805 15.2894 89.246 89.2948 89.2274C99.1404 89.2249 108.416 87.961 116.657 85.5735L225.633 136.39C229.101 144.238 234.095 152.155 240.422 159.699C287.978 216.403 234.665 285.973 200.503 306.34C183.458 316.502 171.868 320.156 162.26 323.185C157.794 324.593 153.757 325.866 149.799 327.594C128.589 336.856 120.093 342.343 113.486 356.512C112.638 358.748 112.18 361.087 112.079 363.498L15.6729 318.543Z" fill="#BDD5DD" fill-opacity="0.1"/>
<path d="M221.838 125.66C216.598 105.763 222.172 87.7068 241.91 79.1993C249.093 76.1032 259.846 72.2922 272.344 69.1665C275.667 68.3355 276.199 63.6659 273.095 62.2185L142.968 1.53898C139.864 0.0915638 136.629 3.50096 138.128 6.58038C143.767 18.1637 147.759 28.8504 150.005 36.3432C156.175 56.932 145.927 72.8083 127.316 81.5838L221.838 125.66Z" fill="#BDD5DD" fill-opacity="0.1"/>
<path d="M51.7069 98.1418L257.755 194.223M21.0137 129.605L253.381 237.96M44.2396 103.357L50.139 135.862L80.1095 118.71L86.2349 152.694L116.205 135.542L122.331 169.526L152.301 152.374L158.427 186.358L188.397 169.206L194.523 203.19L224.493 186.038L230.619 220.021L258.76 203.847M6.81246 343.622L98.6957 386.468C103.13 388.536 108.401 386.617 110.469 382.183C112.537 377.748 110.618 372.477 106.184 370.409L14.3008 327.563C9.86652 325.496 4.59548 327.414 2.52764 331.849C0.459786 336.283 2.37817 341.554 6.81246 343.622ZM20.1203 312.975C18.9526 315.062 17.455 316.916 15.6729 318.543L112.079 363.498C112.18 361.087 112.638 358.748 113.486 356.512C120.093 342.343 128.589 336.856 149.799 327.594C153.757 325.866 157.794 324.593 162.26 323.185C171.868 320.156 183.458 316.502 200.503 306.34C234.665 285.973 287.978 216.403 240.422 159.699C234.095 152.156 229.101 144.238 225.633 136.39L116.657 85.5735C108.416 87.961 99.1404 89.2249 89.2948 89.2274C15.2894 89.246 -3.73576 174.805 2.62091 214.067C5.79243 233.655 10.4435 244.882 14.2993 254.19C16.0913 258.516 17.7116 262.427 18.9317 266.57C25.4697 288.77 26.7273 298.806 20.1203 312.975ZM221.838 125.66C216.598 105.763 222.172 87.7068 241.91 79.1993C249.093 76.1032 259.846 72.2922 272.344 69.1665C275.667 68.3355 276.199 63.6659 273.095 62.2185L142.968 1.53898C139.864 0.0915632 136.629 3.50096 138.128 6.58038C143.767 18.1637 147.759 28.8504 150.005 36.3432C156.175 56.932 145.927 72.8083 127.316 81.5838L221.838 125.66Z" stroke="#00FAEB"/>
</svg>
