<svg width="239" height="394" viewBox="0 0 239 394" fill="none" xmlns="http://www.w3.org/2000/svg">
<path d="M167.866 50.8915L168.319 51.1028L168.53 50.6497L177.34 31.7563L224.005 53.5164C235.724 58.981 240.794 72.9109 235.329 84.6297L221.588 114.097L72.0167 44.3506L85.7575 14.8833C91.2221 3.16444 105.152 -1.90563 116.871 3.55894L165.685 26.3216L156.875 45.215L156.664 45.6681L157.117 45.8794L167.866 50.8915ZM124.347 78.9146L162.797 96.8438L130.878 165.294L84.5915 164.172L124.347 78.9146ZM74.1046 186.661L81.2691 171.297L127.556 172.419L120.391 187.783L74.1046 186.661ZM117.069 194.908L109.904 210.273L63.6176 209.15L70.7821 193.786L117.069 194.908ZM60.2952 216.275L106.582 217.398L99.4174 232.762L53.1308 231.639L60.2952 216.275ZM1.64963 392.233L12.8993 317.916L49.8084 238.764L96.095 239.887L51.3487 335.845L1.64963 392.233Z" fill="#BDD5DD" fill-opacity="0.1" stroke="#00FAEB"/>
</svg>
