<svg width="67" height="80" viewBox="0 0 67 80" fill="none" xmlns="http://www.w3.org/2000/svg">
<mask id="path-1-inside-1_435_2842" fill="white">
<path d="M23.4309 0.00854492L42.9389 0.0405244L48.2012 6.18601L36.5739 23.2138L29.7198 23.2026L18.1484 6.13675L23.4309 0.00854492Z"/>
<path d="M19.4674 16.4308C8.00867 21.4129 0.0767834 32.5428 0.0547332 45.9938C0.0246252 64.3602 14.8891 79.2735 33.2554 79.3036C51.6218 79.3337 66.5351 64.4692 66.5652 46.1029C66.5871 32.7181 58.6262 21.6057 47.1974 16.5506L41.5848 24.5253C50.6195 27.6996 57.0941 35.902 57.0774 46.0873C57.0559 59.2137 46.3974 69.8373 33.271 69.8158C20.1446 69.7943 9.52102 59.1358 9.54254 46.0094C9.55935 35.7526 15.9876 27.528 25.0598 24.4324L19.4674 16.4308Z"/>
</mask>
<path d="M23.4309 0.00854492L42.9389 0.0405244L48.2012 6.18601L36.5739 23.2138L29.7198 23.2026L18.1484 6.13675L23.4309 0.00854492Z" fill="#BDD5DD" fill-opacity="0.1"/>
<path d="M19.4674 16.4308C8.00867 21.4129 0.0767834 32.5428 0.0547332 45.9938C0.0246252 64.3602 14.8891 79.2735 33.2554 79.3036C51.6218 79.3337 66.5351 64.4692 66.5652 46.1029C66.5871 32.7181 58.6262 21.6057 47.1974 16.5506L41.5848 24.5253C50.6195 27.6996 57.0941 35.902 57.0774 46.0873C57.0559 59.2137 46.3974 69.8373 33.271 69.8158C20.1446 69.7943 9.52102 59.1358 9.54254 46.0094C9.55935 35.7526 15.9876 27.528 25.0598 24.4324L19.4674 16.4308Z" fill="#BDD5DD" fill-opacity="0.1"/>
<path d="M42.9389 0.0405244L43.6984 -0.609897L43.3997 -0.958721L42.9405 -0.959474L42.9389 0.0405244ZM23.4309 0.00854492L23.4325 -0.991454L22.9733 -0.992207L22.6734 -0.644363L23.4309 0.00854492ZM18.1484 6.13675L17.3909 5.48384L16.8908 6.064L17.3207 6.69795L18.1484 6.13675ZM29.7198 23.2026L28.8921 23.7638L29.189 24.2017L29.7181 24.2026L29.7198 23.2026ZM36.5739 23.2138L36.5723 24.2138L37.1014 24.2147L37.3998 23.7777L36.5739 23.2138ZM48.2012 6.18601L49.0271 6.74993L49.459 6.11738L48.9608 5.53559L48.2012 6.18601ZM0.0547332 45.9938L1.05473 45.9955L0.0547332 45.9938ZM19.4674 16.4308L20.287 15.858C20.0145 15.468 19.505 15.3241 19.0687 15.5138L19.4674 16.4308ZM66.5652 46.1029L67.5652 46.1045L66.5652 46.1029ZM47.1974 16.5506L47.6019 15.6361C47.1658 15.4432 46.6541 15.5851 46.3796 15.9751L47.1974 16.5506ZM41.5848 24.5253L40.767 23.9497C40.5867 24.2059 40.5369 24.5318 40.6324 24.8302C40.7279 25.1285 40.9577 25.3649 41.2533 25.4687L41.5848 24.5253ZM57.0774 46.0873L58.0774 46.0889L57.0774 46.0873ZM33.271 69.8158L33.2726 68.8158L33.271 69.8158ZM9.54254 46.0094L10.5425 46.011L9.54254 46.0094ZM25.0598 24.4324L25.3827 25.3789C25.6802 25.2774 25.9126 25.0419 26.0103 24.7432C26.108 24.4445 26.0595 24.1172 25.8794 23.8596L25.0598 24.4324ZM42.9405 -0.959474L23.4325 -0.991454L23.4292 1.00854L42.9372 1.04052L42.9405 -0.959474ZM22.6734 -0.644363L17.3909 5.48384L18.9058 6.78966L24.1883 0.661453L22.6734 -0.644363ZM17.3207 6.69795L28.8921 23.7638L30.5474 22.6414L18.976 5.57554L17.3207 6.69795ZM29.7181 24.2026L36.5723 24.2138L36.5756 22.2138L29.7214 22.2026L29.7181 24.2026ZM37.3998 23.7777L49.0271 6.74993L47.3754 5.6221L35.7481 22.6499L37.3998 23.7777ZM48.9608 5.53559L43.6984 -0.609897L42.1793 0.690946L47.4417 6.83644L48.9608 5.53559ZM1.05473 45.9955C1.0761 32.9586 8.75648 22.1782 19.8661 17.3479L19.0687 15.5138C7.26087 20.6476 -0.922536 32.127 -0.945265 45.9922L1.05473 45.9955ZM33.2571 78.3036C15.443 78.2744 1.02553 63.8095 1.05473 45.9955L-0.945265 45.9922C-0.976279 64.9108 14.3352 80.2726 33.2538 80.3036L33.2571 78.3036ZM65.5652 46.1012C65.536 63.9153 51.0712 78.3328 33.2571 78.3036L33.2538 80.3036C52.1724 80.3346 67.5342 65.0231 67.5652 46.1045L65.5652 46.1012ZM46.7929 17.4651C57.8818 22.3699 65.5864 33.137 65.5652 46.1012L67.5652 46.1045C67.5878 32.2991 59.3706 20.8415 47.6019 15.6361L46.7929 17.4651ZM46.3796 15.9751L40.767 23.9497L42.4026 25.1008L48.0152 17.1262L46.3796 15.9751ZM58.0774 46.0889C58.0948 35.446 51.3205 26.886 41.9163 23.5818L41.2533 25.4687C49.9185 28.5132 56.0933 36.3579 56.0774 46.0857L58.0774 46.0889ZM33.2694 70.8158C46.948 70.8382 58.055 59.7676 58.0774 46.0889L56.0774 46.0857C56.0568 58.6598 45.8467 68.8364 33.2726 68.8158L33.2694 70.8158ZM8.54254 46.0077C8.52012 59.6864 19.5907 70.7933 33.2694 70.8158L33.2726 68.8158C20.6985 68.7952 10.5219 58.5851 10.5425 46.011L8.54254 46.0077ZM24.7369 23.486C15.2805 26.7126 8.56009 35.3027 8.54254 46.0077L10.5425 46.011C10.5586 36.2025 16.6946 28.3434 25.3827 25.3789L24.7369 23.486ZM25.8794 23.8596L20.287 15.858L18.6477 17.0037L24.2401 25.0053L25.8794 23.8596Z" fill="#00FAEB" mask="url(#path-1-inside-1_435_2842)"/>
</svg>
