<svg width="67" height="82" viewBox="0 0 67 82" fill="none" xmlns="http://www.w3.org/2000/svg">
<mask id="path-1-inside-1_422_39231" fill="white">
<path d="M37.4405 0.853516L56.0896 6.57836L59.329 13.9923L43.2377 26.8846L36.6853 24.8731L30.5992 5.17292L37.4405 0.853516Z"/>
<path d="M28.856 15.4037C16.4421 16.8241 5.6069 25.154 1.65955 38.0128C-3.73027 55.5706 6.13378 74.1732 23.6915 79.563C41.2492 84.9529 59.8519 75.0888 65.2417 57.5311C69.1696 44.7356 64.799 31.7834 55.3435 23.6125L47.6475 29.6016C55.3622 35.2748 59.1606 45.0099 56.1716 54.7468C52.3195 67.2952 39.0243 74.3451 26.4758 70.493C13.9273 66.6409 6.87754 53.3456 10.7296 40.7971C13.7396 30.9919 22.2886 25.0019 31.8693 24.6893L28.856 15.4037Z"/>
</mask>
<path d="M37.4405 0.853516L56.0896 6.57836L59.329 13.9923L43.2377 26.8846L36.6853 24.8731L30.5992 5.17292L37.4405 0.853516Z" fill="#BDD5DD" fill-opacity="0.1"/>
<path d="M28.856 15.4037C16.4421 16.8241 5.6069 25.154 1.65955 38.0128C-3.73027 55.5706 6.13378 74.1732 23.6915 79.563C41.2492 84.9529 59.8519 75.0888 65.2417 57.5311C69.1696 44.7356 64.799 31.7834 55.3435 23.6125L47.6475 29.6016C55.3622 35.2748 59.1606 45.0099 56.1716 54.7468C52.3195 67.2952 39.0243 74.3451 26.4758 70.493C13.9273 66.6409 6.87754 53.3456 10.7296 40.7971C13.7396 30.9919 22.2886 25.0019 31.8693 24.6893L28.856 15.4037Z" fill="#BDD5DD" fill-opacity="0.1"/>
<path d="M56.0896 6.57836L57.0059 6.17798L56.8221 5.75716L56.383 5.62239L56.0896 6.57836ZM37.4405 0.853516L37.7339 -0.102455L37.2949 -0.237224L36.9066 0.00794995L37.4405 0.853516ZM30.5992 5.17292L30.0654 4.32735L29.4177 4.73627L29.6438 5.46809L30.5992 5.17292ZM36.6853 24.8731L35.7299 25.1683L35.8861 25.6738L36.3919 25.8291L36.6853 24.8731ZM43.2377 26.8846L42.9443 27.8405L43.4501 27.9958L43.863 27.665L43.2377 26.8846ZM59.329 13.9923L59.9542 14.7727L60.552 14.2938L60.2453 13.5919L59.329 13.9923ZM1.65955 38.0128L0.70358 37.7194L1.65955 38.0128ZM28.856 15.4037L29.8072 15.0951C29.6604 14.6425 29.215 14.3561 28.7424 14.4102L28.856 15.4037ZM65.2417 57.5311L66.1977 57.8246L65.2417 57.5311ZM55.3435 23.6125L55.9973 22.8558C55.6365 22.544 55.1057 22.5304 54.7293 22.8233L55.3435 23.6125ZM47.6475 29.6016L47.0334 28.8124C46.7862 29.0048 46.6434 29.302 46.6476 29.6152C46.6519 29.9285 46.8027 30.2216 47.0551 30.4072L47.6475 29.6016ZM56.1716 54.7468L57.1276 55.0402L56.1716 54.7468ZM26.4758 70.493L26.7693 69.537L26.4758 70.493ZM10.7296 40.7971L9.77366 40.5037L10.7296 40.7971ZM31.8693 24.6893L31.9019 25.6887C32.216 25.6785 32.5071 25.5211 32.6877 25.2639C32.8683 25.0067 32.9175 24.6795 32.8205 24.3806L31.8693 24.6893ZM56.383 5.62239L37.7339 -0.102455L37.147 1.80949L55.7961 7.53433L56.383 5.62239ZM36.9066 0.00794995L30.0654 4.32735L31.1331 6.01848L37.9743 1.69908L36.9066 0.00794995ZM29.6438 5.46809L35.7299 25.1683L37.6408 24.578L31.5547 4.87775L29.6438 5.46809ZM36.3919 25.8291L42.9443 27.8405L43.5312 25.9286L36.9788 23.9172L36.3919 25.8291ZM43.863 27.665L59.9542 14.7727L58.7037 13.2119L42.6124 26.1042L43.863 27.665ZM60.2453 13.5919L57.0059 6.17798L55.1732 6.97874L58.4126 14.3927L60.2453 13.5919ZM2.61552 38.3063C6.44134 25.8434 16.934 17.7744 28.9697 16.3972L28.7424 14.4102C15.9503 15.8739 4.77247 24.4647 0.70358 37.7194L2.61552 38.3063ZM23.985 78.6071C6.9552 73.3793 -2.61222 55.3361 2.61552 38.3063L0.70358 37.7194C-4.84831 55.8051 5.31235 74.9671 23.398 80.519L23.985 78.6071ZM64.2857 57.2376C59.058 74.2674 41.0147 83.8348 23.985 78.6071L23.398 80.519C41.4837 86.0709 60.6458 75.9102 66.1977 57.8246L64.2857 57.2376ZM54.6896 24.3691C63.864 32.297 68.0902 44.8442 64.2857 57.2376L66.1977 57.8246C70.249 44.627 65.7341 31.2698 55.9973 22.8558L54.6896 24.3691ZM54.7293 22.8233L47.0334 28.8124L48.2617 30.3908L55.9576 24.4017L54.7293 22.8233ZM57.1276 55.0402C60.2509 44.8659 56.2702 34.7013 48.24 28.796L47.0551 30.4072C54.4542 35.8484 58.0704 45.1539 55.2157 54.4533L57.1276 55.0402ZM26.1823 71.4489C39.2588 75.4631 53.1134 68.1167 57.1276 55.0402L55.2157 54.4533C51.5256 66.4738 38.7898 73.227 26.7693 69.537L26.1823 71.4489ZM9.77366 40.5037C5.7595 53.5801 13.1059 67.4348 26.1823 71.4489L26.7693 69.537C14.7488 65.847 7.99559 53.1111 11.6856 41.0906L9.77366 40.5037ZM31.8367 23.6898C21.8503 24.0156 12.9152 30.27 9.77366 40.5037L11.6856 41.0906C14.564 31.7139 22.7268 25.9881 31.9019 25.6887L31.8367 23.6898ZM32.8205 24.3806L29.8072 15.0951L27.9049 15.7124L30.9181 24.9979L32.8205 24.3806Z" fill="#00FAEB" mask="url(#path-1-inside-1_422_39231)"/>
</svg>
