<svg xmlns="http://www.w3.org/2000/svg" xmlns:xlink="http://www.w3.org/1999/xlink" id="Calque_2" viewBox="0 0 94.39 79.81"><defs><radialGradient id="Dégradé_sans_nom_24" cx="49.35" cy="37.94" r="37.8" fx="49.35" fy="37.94" gradientUnits="userSpaceOnUse"><stop offset="0" stop-color="#00faeb"/><stop offset=".18" stop-color="#02f9ea"/><stop offset=".32" stop-color="#0cf9ea"/><stop offset=".44" stop-color="#1cf7e9"/><stop offset=".55" stop-color="#33f6e8"/><stop offset=".65" stop-color="#50f3e6"/><stop offset=".75" stop-color="#74f1e5"/><stop offset=".85" stop-color="#9feee3"/><stop offset=".94" stop-color="#d0eae0"/><stop offset="1" stop-color="#f2e8df"/></radialGradient><radialGradient xlink:href="#Dégradé_sans_nom_24" id="Dégradé_sans_nom_24-2" r="37.8"/><radialGradient xlink:href="#Dégradé_sans_nom_24" id="Dégradé_sans_nom_24-3" cy="37.94" r="37.8" fy="37.94"/><radialGradient xlink:href="#Dégradé_sans_nom_24" id="Dégradé_sans_nom_24-4" cy="37.94" r="37.8" fy="37.94"/><radialGradient xlink:href="#Dégradé_sans_nom_24" id="Dégradé_sans_nom_24-5" cx="49.35" cy="37.94" r="37.8" fx="49.35" fy="37.94"/><radialGradient xlink:href="#Dégradé_sans_nom_24" id="Dégradé_sans_nom_24-6" cx="49.35" r="37.8" fx="49.35"/><radialGradient xlink:href="#Dégradé_sans_nom_24" id="Dégradé_sans_nom_24-7" r="37.8"/><radialGradient xlink:href="#Dégradé_sans_nom_24" id="Dégradé_sans_nom_24-8" cy="37.94" r="37.8" fy="37.94"/><radialGradient xlink:href="#Dégradé_sans_nom_24" id="Dégradé_sans_nom_24-9" r="37.8"/><radialGradient xlink:href="#Dégradé_sans_nom_24" id="Dégradé_sans_nom_24-10" r="37.8"/><radialGradient xlink:href="#Dégradé_sans_nom_24" id="Dégradé_sans_nom_24-11" r="37.8" gradientTransform="rotate(45 29.364 32.003)"/><radialGradient xlink:href="#Dégradé_sans_nom_24" id="Dégradé_sans_nom_24-12" r="37.8"/><radialGradient xlink:href="#Dégradé_sans_nom_24" id="Dégradé_sans_nom_24-13" r="37.8"/><radialGradient xlink:href="#Dégradé_sans_nom_24" id="Dégradé_sans_nom_24-14" r="37.8"/><radialGradient xlink:href="#Dégradé_sans_nom_24" id="Dégradé_sans_nom_24-15" cx="49.35" r="37.8" fx="49.35"/><radialGradient xlink:href="#Dégradé_sans_nom_24" id="Dégradé_sans_nom_24-16" r="37.8"/><radialGradient xlink:href="#Dégradé_sans_nom_24" id="Dégradé_sans_nom_24-17" r="37.8"/><radialGradient xlink:href="#Dégradé_sans_nom_24" id="Dégradé_sans_nom_24-18" r="37.8"/><radialGradient xlink:href="#Dégradé_sans_nom_24" id="Dégradé_sans_nom_24-19" r="37.8" gradientTransform="rotate(9.22 50.783 23.74)"/><radialGradient id="Dégradé_sans_nom_21" cx="49.29" cy="67.86" r="23.7" fx="49.29" fy="67.86" gradientUnits="userSpaceOnUse"><stop offset="0" stop-color="#00faeb"/><stop offset=".12" stop-color="#04f9ea"/><stop offset=".25" stop-color="#11f8ea"/><stop offset=".38" stop-color="#27f7e9"/><stop offset=".52" stop-color="#46f4e7"/><stop offset=".66" stop-color="#6ef1e5"/><stop offset=".8" stop-color="#9feee3"/><stop offset=".94" stop-color="#d7e9e0"/><stop offset="1" stop-color="#f2e8df"/></radialGradient><radialGradient xlink:href="#Dégradé_sans_nom_21" id="Dégradé_sans_nom_21-2" cx="49.29" r="23.7" fx="49.29"/><radialGradient xlink:href="#Dégradé_sans_nom_21" id="Dégradé_sans_nom_21-3" r="23.7" gradientTransform="rotate(40.46 36.776 72.236)"/><radialGradient xlink:href="#Dégradé_sans_nom_21" id="Dégradé_sans_nom_21-4" cx="49.29" r="23.7" fx="49.29"/><radialGradient xlink:href="#Dégradé_sans_nom_21" id="Dégradé_sans_nom_21-5" cx="49.29" r="23.7" fx="49.29"/><radialGradient xlink:href="#Dégradé_sans_nom_21" id="Dégradé_sans_nom_21-6" cx="49.29" r="23.7" fx="49.29"/><radialGradient xlink:href="#Dégradé_sans_nom_21" id="Dégradé_sans_nom_21-7" cx="49.29" cy="67.86" r="23.7" fx="49.29" fy="67.86"/><radialGradient xlink:href="#Dégradé_sans_nom_21" id="Dégradé_sans_nom_21-8" cx="49.29" r="23.7" fx="49.29"/><radialGradient xlink:href="#Dégradé_sans_nom_21" id="Dégradé_sans_nom_21-9" cx="49.29" r="23.7" fx="49.29"/><style>.cls-7{fill:#f2e8df}</style></defs><g id="Bassin"><path d="M87.64 73.16a7.56 7.56 0 1 0-1.631-15.031A7.56 7.56 0 0 0 87.64 73.16ZM73.55 76.21a3.772 3.772 0 0 0 3.35-4.17 3.772 3.772 0 0 0-4.17-3.35c-.18.02-.35.07-.52.11-.08 2.36-.48 4.64-1.16 6.79.71.47 1.57.72 2.49.62ZM8.16 59.08C4 58.75.35 61.86.02 66.02c-.33 4.16 2.78 7.81 6.94 8.14 4.16.33 7.81-2.78 8.14-6.94.33-4.16-2.78-7.81-6.94-8.14Z" class="cls-7"/><circle cx="21.44" cy="73.03" r="3.78" class="cls-7"/><path d="M15.73 54.11c0 .1-.01.19-.01.29a7.56 7.56 0 0 0 7.56 7.56c1.49 0 2.88-.44 4.05-1.18.26-.9.56-1.78.91-2.64-4.63-1.04-8.84-2.41-12.5-4.04ZM3.92 45.83c-.54.79-.88 1.73-.94 2.76A5.43 5.43 0 0 0 8.1 54.3c1.71.09 3.27-.62 4.33-1.8-3.61-1.96-6.51-4.21-8.51-6.66ZM5.66 28.17c1.27-1.22 2.78-2.37 4.49-3.45a7.543 7.543 0 0 0-4.49 3.45ZM71.5 61.67c3.11-.37 5.63-2.63 6.41-5.59-2.36.8-4.88 1.5-7.54 2.09.46 1.13.84 2.29 1.13 3.5ZM86.62 12.25C86.62 5.49 81.14 0 74.37 0S62.12 5.48 62.12 12.25c0 1.46.27 2.85.73 4.14 7.38.99 14.04 2.76 19.51 5.12 2.6-2.25 4.25-5.56 4.25-9.26ZM39.52 13.62c0-5.6-4.54-10.15-10.15-10.15S19.22 8.01 19.22 13.62c0 2.27.75 4.35 2.01 6.04 5.31-1.75 11.4-3.02 17.99-3.67.18-.76.29-1.56.29-2.38ZM7.7 16.88c0 2.09 1.69 3.78 3.78 3.78s3.78-1.69 3.78-3.78-1.69-3.78-3.78-3.78-3.78 1.69-3.78 3.78Z" class="cls-7"/><path d="M30.77 53.44c-.47-3.72-3.64-6.6-7.49-6.6-4.08 0-7.39 3.23-7.55 7.27 3.66 1.63 7.87 3 12.5 4.04.68-1.68 1.54-3.25 2.54-4.71Z" style="fill:url(#Dégradé_sans_nom_24)"/><path d="M52.19 43.63a7.535 7.535 0 0 0-9.91.97 21.54 21.54 0 0 1 9.92-.97Z" style="fill:url(#Dégradé_sans_nom_24-2)"/><path d="M8.69 43.47c-1.96-.11-3.73.85-4.77 2.36 1.99 2.46 4.89 4.7 8.51 6.66.79-.89 1.31-2.04 1.37-3.32a5.43 5.43 0 0 0-5.12-5.71Z" style="fill:url(#Dégradé_sans_nom_24-3)"/><path d="M30.26 42.55a3.774 3.774 0 0 0 3.57 3.98c2.09.11 3.87-1.48 3.98-3.57a3.774 3.774 0 0 0-3.57-3.98 3.774 3.774 0 0 0-3.98 3.57Z" style="fill:url(#Dégradé_sans_nom_24-4)"/><path d="M41.38 39.07c2.16.12 4-1.54 4.12-3.7.12-2.16-1.54-4-3.7-4.12-2.16-.12-4 1.54-4.12 3.7-.12 2.16 1.54 4 3.7 4.12Z" style="fill:url(#Dégradé_sans_nom_24-5)"/><path d="M59.62 37.29a3.774 3.774 0 0 0-3.98 3.57 3.774 3.774 0 0 0 3.57 3.98c2.09.11 3.87-1.48 3.98-3.57a3.774 3.774 0 0 0-3.57-3.98Z" style="fill:url(#Dégradé_sans_nom_24-6)"/><path d="M50.21 34.83c-1.07-.06-1.98.76-2.04 1.83-.06 1.07.76 1.98 1.83 2.04 1.07.06 1.98-.76 2.04-1.83s-.76-1.98-1.83-2.04Z" style="fill:url(#Dégradé_sans_nom_24-7)"/><path d="M61.98 33.87a2.629 2.629 0 1 0 .29-5.25 2.629 2.629 0 0 0-.29 5.25Z" style="fill:url(#Dégradé_sans_nom_24-8)"/><circle cx="73.17" cy="33.87" r="5.42" style="fill:url(#Dégradé_sans_nom_24-9)"/><path d="M12.17 39.57c4.18 0 7.56-3.39 7.56-7.56s-3.39-7.56-7.56-7.56c-.7 0-1.38.1-2.02.28-1.71 1.08-3.22 2.23-4.49 3.45a7.53 7.53 0 0 0-1.05 3.83 7.56 7.56 0 0 0 7.56 7.56Z" style="fill:url(#Dégradé_sans_nom_24-10)"/><circle cx="29.37" cy="32" r="5.42" style="fill:url(#Dégradé_sans_nom_24-11)" transform="rotate(-45 29.367 32.006)"/><path d="M23.02 44.84c2.09 0 3.78-1.69 3.78-3.78s-1.69-3.78-3.78-3.78-3.78 1.69-3.78 3.78 1.69 3.78 3.78 3.78Z" style="fill:url(#Dégradé_sans_nom_24-12)"/><path d="M86.07 32c2.09 0 3.78-1.69 3.78-3.78s-1.69-3.78-3.78-3.78-3.78 1.69-3.78 3.78S83.98 32 86.07 32Z" style="fill:url(#Dégradé_sans_nom_24-13)"/><circle cx="86.15" cy="44.84" r="6.05" style="fill:url(#Dégradé_sans_nom_24-14)"/><path d="M68.34 44.15c1.07.06 1.98-.76 2.04-1.83.06-1.07-.76-1.98-1.83-2.04-1.07-.06-1.98.76-2.04 1.83-.06 1.07.76 1.98 1.83 2.04Z" style="fill:url(#Dégradé_sans_nom_24-15)"/><path d="M70.6 46.61c-2.47 0-4.66 1.19-6.04 3.02a24.46 24.46 0 0 1 5.8 8.55c2.66-.59 5.18-1.3 7.54-2.09.16-.61.25-1.25.25-1.91a7.56 7.56 0 0 0-7.56-7.56Z" style="fill:url(#Dégradé_sans_nom_24-16)"/><path d="M74.38 24.5c3.06 0 5.85-1.13 8-2.99-5.48-2.36-12.13-4.13-19.51-5.12 1.7 4.72 6.21 8.1 11.51 8.1Z" style="fill:url(#Dégradé_sans_nom_24-17)"/><path d="M29.37 23.76c4.78 0 8.78-3.31 9.85-7.77-6.59.65-12.69 1.92-17.99 3.67 1.85 2.49 4.8 4.1 8.14 4.1Z" style="fill:url(#Dégradé_sans_nom_24-18)"/><circle cx="50.82" cy="23.76" r="7.56" style="fill:url(#Dégradé_sans_nom_24-19)" transform="rotate(-9.22 50.822 23.758)"/><path d="M58.6 79.62a7.56 7.56 0 1 0-1.631-15.031A7.56 7.56 0 0 0 58.6 79.62Z" style="fill:url(#Dégradé_sans_nom_21)"/><path d="M69.38 72.86c.13 1.16.78 2.13 1.68 2.73.67-2.15 1.07-4.42 1.16-6.79-1.8.45-3.04 2.16-2.84 4.06Z" style="fill:url(#Dégradé_sans_nom_21-2)"/><circle cx="36.78" cy="72.25" r="7.56" style="fill:url(#Dégradé_sans_nom_21-3)" transform="rotate(-40.46 36.772 72.25)"/><path d="M29.65 58.45c-.48-.1-.96-.2-1.43-.3-.35.85-.65 1.73-.91 2.64.94-.6 1.74-1.4 2.33-2.34Z" style="fill:url(#Dégradé_sans_nom_21-4)"/><path d="M64.95 59.19a7.53 7.53 0 0 0 5.64 2.54c.31 0 .61-.02.9-.06-.3-1.21-.68-2.37-1.13-3.5-1.75.39-3.56.72-5.41 1.02Z" style="fill:url(#Dégradé_sans_nom_21-5)"/><path d="M30.77 53.44c-1 1.46-1.86 3.03-2.54 4.71.47.11.95.2 1.43.3a7.554 7.554 0 0 0 1.18-4.04c0-.33-.03-.65-.07-.96Z" style="fill:url(#Dégradé_sans_nom_21-6)"/><path d="M40.23 49.36c-.23 4.17 2.97 7.73 7.14 7.96 4.17.23 7.73-2.97 7.96-7.14.15-2.67-1.12-5.1-3.15-6.55-.95-.13-1.92-.2-2.9-.2-2.45 0-4.8.41-7.02 1.17a7.502 7.502 0 0 0-2.04 4.76Z" style="fill:url(#Dégradé_sans_nom_21-7)"/><path d="M35.46 50.29c-1.07-.06-1.98.76-2.04 1.83-.06 1.07.76 1.98 1.83 2.04 1.07.06 1.98-.76 2.04-1.83.06-1.07-.76-1.98-1.83-2.04Z" style="fill:url(#Dégradé_sans_nom_21-8)"/><path d="M64.56 49.63a7.544 7.544 0 0 0-1.53 4.54c0 1.93.73 3.68 1.92 5.02 1.85-.29 3.66-.63 5.41-1.02-1.34-3.29-3.33-6.2-5.8-8.55Z" style="fill:url(#Dégradé_sans_nom_21-9)"/></g></svg>