<svg width="948" height="778" viewBox="0 0 948 778" fill="none" xmlns="http://www.w3.org/2000/svg">
<path d="M43 60.5H882V742.5H43V60.5Z" fill="#BDD5DD" fill-opacity="0.1"/>
<path d="M582.5 74H458.517L361.366 38.5H0.5V777H858.452L911.5 727.076V139.439" stroke="#00FAEB"/>
<path d="M809.052 13H809.254L809.4 12.8597L815.56 6.91213H947.5V159.79L941.752 163.066L941.5 163.209V163.5V226.958H936.89V18.246V17.746H936.39H456.156L423.729 2H525.899L562.356 12.9788L562.426 13H562.5H809.052Z" fill="#00FAEB" stroke="#00FAEB"/>
<path d="M0 1H385.3L458.581 30.5H930.5V776.5" stroke="#00FAEB"/>
<path d="M930.5 617.441L941.5 624.866L941.5 776L930.5 776L930.5 617.441Z" fill="#00FAEB" stroke="#00FAEB"/>
<mask id="path-6-inside-1_357_7390" fill="white">
<path d="M0.000406422 764.5L5.403e-07 777.29L18.0211 777.29L310.397 777.29V770.895L220.289 770.895L215.784 764.5L0.000406422 764.5Z"/>
</mask>
<path d="M0.000406422 764.5L5.403e-07 777.29L18.0211 777.29L310.397 777.29V770.895L220.289 770.895L215.784 764.5L0.000406422 764.5Z" fill="#00FAEB"/>
<path d="M5.403e-07 777.29L-0.999999 777.29L-1.00003 778.29L-1.93514e-07 778.29L5.403e-07 777.29ZM0.000406422 764.5L0.000406377 763.5H-0.999562L-0.999594 764.5L0.000406422 764.5ZM215.784 764.5L216.602 763.924L216.303 763.5L215.784 763.5V764.5ZM220.289 770.895L219.471 771.471L219.77 771.895H220.289V770.895ZM310.397 770.895H311.397V769.895H310.397V770.895ZM310.397 777.29V778.29H311.397V777.29H310.397ZM18.0211 777.29V778.29V777.29ZM1 777.29L1.00041 764.5L-0.999594 764.5L-0.999999 777.29L1 777.29ZM0.000406467 765.5L215.784 765.5V763.5L0.000406377 763.5L0.000406467 765.5ZM214.967 765.076L219.471 771.471L221.106 770.319L216.602 763.924L214.967 765.076ZM220.289 771.895L310.397 771.895V769.895L220.289 769.895V771.895ZM309.397 770.895V777.29H311.397V770.895H309.397ZM310.397 776.29L18.0211 776.29V778.29L310.397 778.29V776.29ZM18.0211 776.29L1.27411e-06 776.29L-1.93514e-07 778.29L18.0211 778.29L18.0211 776.29Z" fill="#00FAEB" mask="url(#path-6-inside-1_357_7390)"/>
<mask id="path-8-inside-2_357_7390" fill="white">
<path d="M13 38.5L1 38.5L0.999991 56.3416L0.999991 345.805L7.02732 345.806L7.02732 256.595L13 252.134L13 38.5Z"/>
</mask>
<path d="M13 38.5L1 38.5L0.999991 56.3416L0.999991 345.805L7.02732 345.806L7.02732 256.595L13 252.134L13 38.5Z" fill="#00FAEB"/>
<path d="M1 38.5L1 37.5L4.81391e-06 37.5L4.76837e-06 38.5L1 38.5ZM13 38.5L14 38.5L14 37.5L13 37.5L13 38.5ZM13 252.134L13.5984 252.936L14 252.636L14 252.134L13 252.134ZM7.02732 256.595L6.42893 255.794L6.02732 256.094L6.02732 256.595L7.02732 256.595ZM7.02732 345.806L7.0272 346.806L8.02732 346.806L8.02732 345.806L7.02732 345.806ZM0.999991 345.805L-9.2266e-06 345.805L-9.27214e-06 346.805L0.999869 346.805L0.999991 345.805ZM0.999991 56.3416L-9.3956e-06 56.3416L0.999991 56.3416ZM1 39.5L13 39.5L13 37.5L1 37.5L1 39.5ZM12 38.5L12 252.134L14 252.134L14 38.5L12 38.5ZM12.4016 251.333L6.42893 255.794L7.62572 257.396L13.5984 252.936L12.4016 251.333ZM6.02732 256.595L6.02732 345.806L8.02732 345.806L8.02732 256.595L6.02732 256.595ZM7.02745 344.806L1.00011 344.805L0.999869 346.805L7.0272 346.806L7.02745 344.806ZM1.99999 345.805L1.99999 56.3416L-9.3956e-06 56.3416L-9.2266e-06 345.805L1.99999 345.805ZM1.99999 56.3416L2 38.5L4.76837e-06 38.5L-9.3956e-06 56.3416L1.99999 56.3416Z" fill="#00FAEB" mask="url(#path-8-inside-2_357_7390)"/>
</svg>
