<svg width="53" height="116" viewBox="0 0 53 116" fill="none" xmlns="http://www.w3.org/2000/svg">
<path d="M27.5894 35.4569C28.753 32.3543 32.2115 30.7824 35.3142 31.946L39.2749 33.4315C42.3775 34.5951 43.9494 38.0537 42.7858 41.1563L16.7218 110.652C15.5581 113.754 12.0996 115.326 8.99691 114.163L5.03626 112.677C1.93358 111.513 0.36169 108.055 1.52534 104.952L27.5894 35.4569Z" fill="#BDD5DD" fill-opacity="0.1"/>
<path d="M39.0879 11.2941C37.195 12.6901 35.5831 13.8788 34.6073 15.1326C32.5711 17.7489 31.5264 23.6627 34.8663 27.4856C35.014 26.9164 35.2502 26.4161 35.5291 26.0578C35.9546 25.511 36.6575 24.9927 37.483 24.384C38.81 23.4053 40.4539 22.1929 41.7714 20.2534C43.2099 22.0316 43.2174 25.9104 43.117 27.6512C43.0758 28.3663 42.7154 29.5905 42.0339 30.6696C48.501 30.5265 51.813 22.1707 52.0082 18.7867C52.2384 14.7947 52.2213 5.89955 48.9223 1.82178C45.9011 6.26963 42.1312 9.04978 39.0879 11.2941Z" fill="#BDD5DD" fill-opacity="0.1"/>
<path d="M5.03626 112.677L5.21184 112.209L5.03626 112.677ZM1.52534 104.952L1.9935 105.128L1.52534 104.952ZM16.7218 110.652L17.1899 110.827L16.7218 110.652ZM8.99691 114.163L8.82133 114.631H8.82133L8.99691 114.163ZM39.2749 33.4315L39.0993 33.8996L39.2749 33.4315ZM42.7858 41.1563L42.3176 40.9807L42.7858 41.1563ZM35.3142 31.946L35.4898 31.4779L35.3142 31.946ZM27.5894 35.4569L27.1212 35.2814L27.5894 35.4569ZM34.6073 15.1326L34.2127 14.8255L34.6073 15.1326ZM39.0879 11.2941L39.3847 11.6966L39.0879 11.2941ZM34.8663 27.4856L34.4897 27.8146L35.1125 28.5274L35.3502 27.6112L34.8663 27.4856ZM35.5291 26.0578L35.1345 25.7507H35.1345L35.5291 26.0578ZM37.483 24.384L37.7797 24.7864L37.483 24.384ZM41.7714 20.2534L42.1601 19.9389L41.7364 19.4151L41.3578 19.9724L41.7714 20.2534ZM43.117 27.6512L42.6179 27.6224L43.117 27.6512ZM42.0339 30.6696L41.6111 30.4026L41.1138 31.1901L42.0449 31.1694L42.0339 30.6696ZM52.0082 18.7867L51.509 18.758L52.0082 18.7867ZM48.9223 1.82178L49.3111 1.5073L48.8873 0.983502L48.5087 1.54083L48.9223 1.82178ZM36.7764 32.7239L36.4582 33.1095L37.2296 33.7459L37.5478 33.3603L36.7764 32.7239ZM39.8301 26.9177C39.7116 26.6683 39.4133 26.5622 39.1639 26.6808C38.9145 26.7993 38.8084 27.0976 38.9269 27.347L39.8301 26.9177ZM35.1386 32.4142L39.0993 33.8996L39.4505 32.9633L35.4898 31.4779L35.1386 32.4142ZM42.3176 40.9807L16.2536 110.476L17.1899 110.827L43.2539 41.3319L42.3176 40.9807ZM9.17249 113.694L5.21184 112.209L4.86068 113.145L8.82133 114.631L9.17249 113.694ZM1.9935 105.128L28.0575 35.6325L27.1212 35.2814L1.05718 104.777L1.9935 105.128ZM5.21184 112.209C2.36772 111.142 0.926819 107.972 1.9935 105.128L1.05718 104.777C-0.203438 108.138 1.49945 111.885 4.86068 113.145L5.21184 112.209ZM16.2536 110.476C15.1869 113.32 12.0166 114.761 9.17249 113.694L8.82133 114.631C12.1826 115.891 15.9293 114.188 17.1899 110.827L16.2536 110.476ZM39.0993 33.8996C41.9434 34.9663 43.3843 38.1366 42.3176 40.9807L43.2539 41.3319C44.5146 37.9707 42.8117 34.2239 39.4505 32.9633L39.0993 33.8996ZM35.4898 31.4779C32.1286 30.2173 28.3818 31.9201 27.1212 35.2814L28.0575 35.6325C29.1242 32.7884 32.2945 31.3475 35.1386 32.4142L35.4898 31.4779ZM35.0019 15.4397C35.9257 14.2527 37.4705 13.1082 39.3847 11.6966L38.7911 10.8917C36.9194 12.2721 35.2405 13.505 34.2127 14.8255L35.0019 15.4397ZM35.2428 27.1567C33.6778 25.3654 33.1261 23.0681 33.2203 20.8781C33.3149 18.6796 34.0583 16.6521 35.0019 15.4397L34.2127 14.8255C33.12 16.2295 32.3231 18.467 32.2212 20.8351C32.119 23.2118 32.7148 25.783 34.4897 27.8146L35.2428 27.1567ZM35.3502 27.6112C35.4847 27.0932 35.6951 26.6586 35.9237 26.3649L35.1345 25.7507C34.8053 26.1737 34.5433 26.7395 34.3823 27.36L35.3502 27.6112ZM35.9237 26.3649C36.2972 25.8849 36.933 25.4108 37.7797 24.7864L37.1862 23.9815C36.382 24.5746 35.612 25.1372 35.1345 25.7507L35.9237 26.3649ZM37.7797 24.7864C39.1052 23.8088 40.8143 22.5523 42.185 20.5343L41.3578 19.9724C40.0936 21.8335 38.5149 23.0017 37.1862 23.9815L37.7797 24.7864ZM41.3827 20.5679C42.0081 21.341 42.3578 22.6333 42.5249 24.0259C42.6893 25.3961 42.667 26.7693 42.6179 27.6224L43.6162 27.68C43.6674 26.7923 43.6916 25.3557 43.5177 23.9067C43.3466 22.4802 42.9732 20.944 42.1601 19.9389L41.3827 20.5679ZM42.6179 27.6224C42.5822 28.2413 42.254 29.3846 41.6111 30.4026L42.4566 30.9366C43.1767 29.7964 43.5694 28.4913 43.6162 27.68L42.6179 27.6224ZM51.509 18.758C51.4171 20.3519 50.5738 23.2033 48.9551 25.6691C47.337 28.1339 45.021 30.1034 42.0228 30.1697L42.0449 31.1694C45.5139 31.0927 48.0875 28.8127 49.791 26.2179C51.4939 23.624 52.4041 20.6055 52.5073 18.8155L51.509 18.758ZM48.5336 2.13625C50.0893 4.05917 50.9064 7.18048 51.2922 10.396C51.6754 13.5891 51.6231 16.7792 51.509 18.758L52.5073 18.8155C52.6234 16.8022 52.6777 13.5487 52.2851 10.2768C51.8952 7.02731 51.0543 3.66215 49.3111 1.5073L48.5336 2.13625ZM39.3847 11.6966C42.4264 9.45334 46.2614 6.62902 49.3359 2.10272L48.5087 1.54083C45.5408 5.91023 41.8361 8.64621 38.7911 10.8917L39.3847 11.6966ZM37.5478 33.3603C38.5362 32.1623 39.2698 30.9463 39.6807 29.8508C40.083 28.7782 40.2119 27.7211 39.8301 26.9177L38.9269 27.347C39.1322 27.7788 39.1157 28.5097 38.7444 29.4996C38.3817 30.4668 37.7136 31.588 36.7764 32.7239L37.5478 33.3603Z" fill="#00FAEB"/>
</svg>
