<svg width="20" height="121" viewBox="0 0 20 121" fill="none" xmlns="http://www.w3.org/2000/svg">
<path d="M1.82092 40.0548C1.82092 36.741 4.50721 34.0548 7.82092 34.0548H12.051C15.3647 34.0548 18.051 36.741 18.051 40.0548V114.277C18.051 117.591 15.3647 120.277 12.051 120.277H7.82092C4.50721 120.277 1.82092 117.591 1.82092 114.277V40.0548Z" fill="#BDD5DD" fill-opacity="0.1"/>
<path d="M4.10212 13.3929C2.81994 15.3647 1.72815 17.0438 1.25477 18.5604C0.266987 21.725 1.36556 27.6291 5.83516 30.0357C5.77357 29.4508 5.8191 28.8995 5.9544 28.466C6.16082 27.8047 6.63691 27.0725 7.19602 26.2127C8.09492 24.8303 9.2084 23.1179 9.76086 20.8392C11.7322 21.999 13.1013 25.6282 13.6186 27.2934C13.8311 27.9774 13.9236 29.2502 13.6644 30.4999C19.6695 28.0949 19.8363 19.1082 18.8307 15.8712C17.6444 12.0526 14.5047 3.72993 9.9839 1.07031C8.71699 6.29584 6.1635 10.2228 4.10212 13.3929Z" fill="#BDD5DD" fill-opacity="0.1"/>
<path d="M4.10212 13.3929L4.52129 13.6655L4.10212 13.3929ZM1.25477 18.5604L1.73206 18.7094L1.25477 18.5604ZM5.83516 30.0357L5.59811 30.476L6.43153 30.9247L6.33241 29.9834L5.83516 30.0357ZM5.9544 28.466L5.47711 28.3171L5.9544 28.466ZM7.19602 26.2127L7.6152 26.4853H7.6152L7.19602 26.2127ZM9.76086 20.8392L10.0144 20.4083L9.43368 20.0667L9.27493 20.7214L9.76086 20.8392ZM13.6186 27.2934L13.1411 27.4417L13.6186 27.2934ZM13.6644 30.4999L13.1748 30.3984L12.9857 31.3103L13.8503 30.964L13.6644 30.4999ZM18.8307 15.8712L18.3532 16.0196L18.8307 15.8712ZM9.9839 1.07031L10.2374 0.639359L9.65673 0.297726L9.49798 0.952502L9.9839 1.07031ZM9.46315 34.2696L9.30063 34.7424L10.2463 35.0674L10.4089 34.5946L9.46315 34.2696ZM10.2835 27.7609C10.0849 27.569 9.76835 27.5744 9.57646 27.7729C9.38456 27.9715 9.38997 28.288 9.58854 28.4799L10.2835 27.7609ZM2.32092 40.0548C2.32092 37.0172 4.78335 34.5548 7.82092 34.5548V33.5548C4.23107 33.5548 1.32092 36.4649 1.32092 40.0548H2.32092ZM7.82092 34.5548H12.051V33.5548H7.82092V34.5548ZM12.051 34.5548C15.0885 34.5548 17.551 37.0172 17.551 40.0548H18.551C18.551 36.4649 15.6408 33.5548 12.051 33.5548V34.5548ZM17.551 40.0548V114.277H18.551V40.0548H17.551ZM17.551 114.277C17.551 117.314 15.0885 119.777 12.051 119.777V120.777C15.6408 120.777 18.551 117.867 18.551 114.277H17.551ZM12.051 119.777H7.82092V120.777H12.051V119.777ZM7.82092 119.777C4.78335 119.777 2.32092 117.314 2.32092 114.277H1.32092C1.32092 117.867 4.23107 120.777 7.82092 120.777V119.777ZM2.32092 114.277V40.0548H1.32092V114.277H2.32092ZM3.68295 13.1203C2.41515 15.07 1.27607 16.814 0.77748 18.4114L1.73206 18.7094C2.18024 17.2735 3.22474 15.6594 4.52129 13.6655L3.68295 13.1203ZM0.77748 18.4114C0.247417 20.1096 0.28694 22.4845 1.02318 24.7376C1.76207 26.9988 3.22284 29.197 5.59811 30.476L6.0722 29.5955C3.97787 28.4678 2.65456 26.5106 1.97372 24.427C1.29021 22.3353 1.27434 20.1758 1.73206 18.7094L0.77748 18.4114ZM6.33241 29.9834C6.27636 29.4511 6.32079 28.9703 6.43169 28.615L5.47711 28.3171C5.31741 28.8287 5.27078 29.4506 5.3379 30.0881L6.33241 29.9834ZM6.43169 28.615C6.6129 28.0344 7.04171 27.3672 7.6152 26.4853L6.77685 25.9401C6.23212 26.7778 5.70874 27.5749 5.47711 28.3171L6.43169 28.615ZM7.6152 26.4853C8.51303 25.1045 9.67198 23.3279 10.2468 20.9571L9.27493 20.7214C8.74483 22.9079 7.67681 24.5561 6.77685 25.9401L7.6152 26.4853ZM9.50733 21.2702C10.3644 21.7744 11.1456 22.8617 11.7911 24.1069C12.4262 25.3321 12.8876 26.6257 13.1411 27.4417L14.0961 27.1451C13.8323 26.2959 13.3505 24.9423 12.6789 23.6467C12.0177 22.371 11.1286 21.0638 10.0144 20.4083L9.50733 21.2702ZM13.1411 27.4417C13.325 28.0337 13.4193 29.2195 13.1748 30.3984L14.154 30.6014C14.4278 29.281 14.3372 27.9211 14.0961 27.1451L13.1411 27.4417ZM13.8503 30.964C17.0714 29.674 18.6805 26.6355 19.3642 23.6077C20.0478 20.581 19.8401 17.4351 19.3082 15.7229L18.3532 16.0196C18.8268 17.5443 19.0386 20.5102 18.3888 23.3874C17.7393 26.2634 16.2624 28.9208 13.4785 30.0357L13.8503 30.964ZM19.3082 15.7229C18.7099 13.797 17.6182 10.7317 16.1016 7.80603C14.5954 4.90037 12.6264 2.0448 10.2374 0.639359L9.73037 1.50127C11.8622 2.75544 13.7234 5.39101 15.2138 8.26624C16.6939 11.1215 17.7652 14.1268 18.3532 16.0196L19.3082 15.7229ZM9.49798 0.952502C8.25341 6.08586 5.74539 9.94857 3.68295 13.1203L4.52129 13.6655C6.58161 10.497 9.18056 6.50582 10.4698 1.18812L9.49798 0.952502ZM10.4089 34.5946C10.9136 33.1259 11.1735 31.7296 11.1735 30.5596C11.1735 29.414 10.9231 28.379 10.2835 27.7609L9.58854 28.4799C9.93233 28.8122 10.1735 29.5023 10.1735 30.5596C10.1735 31.5925 9.94176 32.877 9.46315 34.2696L10.4089 34.5946Z" fill="#00FAEB"/>
</svg>
