<svg width="46" height="147" viewBox="0 0 46 147" fill="none" xmlns="http://www.w3.org/2000/svg">
<path d="M2.5 146.47H2.44844L2.39796 146.48C2.12586 146.537 1.67762 146.492 1.28969 146.107C0.898533 145.718 0.5 144.915 0.5 143.321V125.5H33H33.5V125V78V77.5H33H0.5V76.0907C0.5 71.7739 2.58434 65.4739 5.14646 59.5465C7.70045 53.6379 10.6866 48.1943 12.4151 45.6205C14.2409 42.9018 15.1222 39.143 15.561 33.4585C16 27.7716 16 20.069 16 9.40788V9.3811V8.8811H15.5C15.4973 8.8811 15.4955 8.88097 15.4943 8.88085C15.4943 8.88084 15.4943 8.88083 15.4943 8.88083C15.4897 8.87777 15.4668 8.86049 15.4339 8.80585C15.3629 8.68793 15.2952 8.48082 15.2451 8.17286C15.146 7.56335 15.1447 6.76279 15.1447 6.00006C15.1447 5.23746 15.146 4.43335 15.2452 3.82032C15.2953 3.51054 15.3631 3.30145 15.4346 3.18204C15.4671 3.12761 15.4901 3.10966 15.4953 3.10608C15.4963 3.10599 15.4979 3.10591 15.5 3.10591H16V2.60591C16 2.24587 16.0017 1.64599 16.1082 1.1418C16.162 0.887315 16.2334 0.704856 16.3098 0.596853C16.3737 0.506561 16.4136 0.500006 16.4522 0.5C16.4522 0.5 16.4523 0.5 16.4523 0.5H29.8268C29.8725 0.631373 29.9119 0.834991 29.9405 1.09355C29.9995 1.62496 30 2.24908 30 2.60591V3.10591H30.5C30.6156 3.10591 30.6616 3.13791 30.7006 3.18281C30.7597 3.25093 30.8303 3.39049 30.8856 3.6552C30.9974 4.19091 31 4.97714 31 6.00006C31 7.02321 30.9974 7.80574 30.8857 8.33782C30.8305 8.60052 30.7603 8.73803 30.7018 8.80482C30.6634 8.84871 30.6172 8.8811 30.5 8.8811H30.0145L30.0002 9.36634C29.8333 15.0212 29.808 22.778 30.2761 29.7532C30.5101 33.24 30.8682 36.5426 31.3965 39.2944C31.9207 42.0247 32.6253 44.2873 33.5941 45.6338C35.8201 48.7274 38.803 53.9066 41.2282 59.5457C43.6577 65.1949 45.5 71.2429 45.5 76.0907V143.321C45.5 143.847 45.4998 144.317 45.47 144.736C45.4402 145.156 45.3824 145.49 45.2832 145.748C45.1875 145.997 45.0593 146.162 44.8876 146.271C44.7103 146.384 44.4374 146.47 44 146.47H2.5ZM0.5 82.5H28.5V120.5H0.5V82.5Z" fill="#BDD5DD" fill-opacity="0.1" stroke="#00FAEB"/>
</svg>
