<svg xmlns="http://www.w3.org/2000/svg" xmlns:xlink="http://www.w3.org/1999/xlink" id="Calque_2" viewBox="0 0 66.33 200.87"><defs><radialGradient id="Dégradé_sans_nom_8" cx="34.77" cy="115.55" r="35.29" fx="34.77" fy="115.55" gradientTransform="rotate(9.22 36.684 79.55)" gradientUnits="userSpaceOnUse"><stop offset="0" stop-color="#00faeb"/><stop offset="1" stop-color="#f2e8df"/></radialGradient><radialGradient xlink:href="#Dégradé_sans_nom_8" id="Dégradé_sans_nom_8-2" r="35.29"/><radialGradient xlink:href="#Dégradé_sans_nom_8" id="Dégradé_sans_nom_8-3" r="35.29"/><radialGradient xlink:href="#Dégradé_sans_nom_8" id="Dégradé_sans_nom_8-4" r="35.29"/><radialGradient xlink:href="#Dégradé_sans_nom_8" id="Dégradé_sans_nom_8-5" r="35.29"/><radialGradient xlink:href="#Dégradé_sans_nom_8" id="Dégradé_sans_nom_8-6" r="35.29"/><radialGradient xlink:href="#Dégradé_sans_nom_8" id="Dégradé_sans_nom_8-7" r="35.29"/><radialGradient xlink:href="#Dégradé_sans_nom_8" id="Dégradé_sans_nom_8-8" r="35.29" gradientTransform="rotate(13.28 28.758 145.318)"/><radialGradient xlink:href="#Dégradé_sans_nom_8" id="Dégradé_sans_nom_8-9" r="35.29" gradientTransform="rotate(67.5 49.545 100.084)"/><radialGradient xlink:href="#Dégradé_sans_nom_8" id="Dégradé_sans_nom_8-10" r="35.29"/><radialGradient xlink:href="#Dégradé_sans_nom_8" id="Dégradé_sans_nom_8-11" r="35.29"/><radialGradient xlink:href="#Dégradé_sans_nom_8" id="Dégradé_sans_nom_8-12" r="35.29"/><radialGradient id="Dégradé_sans_nom_13" cx="23.59" cy="169.24" r="16.06" fx="23.59" fy="169.24" gradientUnits="userSpaceOnUse"><stop offset="0" stop-color="#03b6ac"/><stop offset="0" stop-color="#00f368"/><stop offset="0" stop-color="#03b6ac"/><stop offset=".14" stop-color="#06b6ac"/><stop offset=".26" stop-color="#12b9af"/><stop offset=".39" stop-color="#25bdb3"/><stop offset=".52" stop-color="#41c2b9"/><stop offset=".65" stop-color="#64cac0"/><stop offset=".77" stop-color="#8fd3c9"/><stop offset=".89" stop-color="#c1ddd4"/><stop offset="1" stop-color="#f2e8df"/></radialGradient><radialGradient xlink:href="#Dégradé_sans_nom_13" id="Dégradé_sans_nom_13-2" r="16.06"/><radialGradient xlink:href="#Dégradé_sans_nom_13" id="Dégradé_sans_nom_13-3" cy="169.24" r="16.06" fy="169.24"/><radialGradient xlink:href="#Dégradé_sans_nom_13" id="Dégradé_sans_nom_13-4" r="16.06"/><radialGradient xlink:href="#Dégradé_sans_nom_13" id="Dégradé_sans_nom_13-5" r="16.06"/><radialGradient xlink:href="#Dégradé_sans_nom_13" id="Dégradé_sans_nom_13-6" r="16.06"/><radialGradient xlink:href="#Dégradé_sans_nom_13" id="Dégradé_sans_nom_13-7" r="16.06"/><radialGradient xlink:href="#Dégradé_sans_nom_13" id="Dégradé_sans_nom_13-8" r="16.06"/><radialGradient xlink:href="#Dégradé_sans_nom_13" id="Dégradé_sans_nom_13-9" r="16.06"/><radialGradient xlink:href="#Dégradé_sans_nom_13" id="Dégradé_sans_nom_13-10" cy="169.24" r="16.06" fy="169.24"/><radialGradient xlink:href="#Dégradé_sans_nom_13" id="Dégradé_sans_nom_13-11" r="16.06"/><radialGradient xlink:href="#Dégradé_sans_nom_13" id="Dégradé_sans_nom_13-12" cy="169.24" r="16.06" fy="169.24"/><radialGradient id="Dégradé_sans_nom_17" cx="17.78" cy="188.41" r="14.52" fx="17.78" fy="188.41" gradientUnits="userSpaceOnUse"><stop offset="0" stop-color="#00ff5b"/><stop offset="0" stop-color="#00f368"/><stop offset="0" stop-color="#0b171b"/><stop offset=".11" stop-color="#101b1f"/><stop offset=".24" stop-color="#1f292c"/><stop offset=".38" stop-color="#384041"/><stop offset=".53" stop-color="#5b5f5f"/><stop offset=".69" stop-color="#888885"/><stop offset=".86" stop-color="#bdb8b2"/><stop offset="1" stop-color="#f2e8df"/></radialGradient><radialGradient xlink:href="#Dégradé_sans_nom_17" id="Dégradé_sans_nom_17-2" r="14.52"/><radialGradient xlink:href="#Dégradé_sans_nom_17" id="Dégradé_sans_nom_17-3" r="14.52"/><radialGradient xlink:href="#Dégradé_sans_nom_17" id="Dégradé_sans_nom_17-4" r="14.52"/><radialGradient xlink:href="#Dégradé_sans_nom_17" id="Dégradé_sans_nom_17-5" r="14.52"/><style>.cls-9{fill:#f2e8df}</style></defs><g id="bras_à_gauche"><circle cx="43.74" cy="14.9" r="7.56" class="cls-9" transform="rotate(-45 43.746 14.91)"/><circle cx="38.33" cy="31.19" r="5.42" class="cls-9"/><path d="M50.07 23.94c-2.09 0-3.78 1.69-3.78 3.78s1.69 3.78 3.78 3.78 3.78-1.69 3.78-3.78-1.69-3.78-3.78-3.78ZM53.02 16.64a3.93 3.93 0 1 0 7.861-.001 3.93 3.93 0 0 0-7.861.001ZM53.02 7.59c2.1 0 3.79-1.7 3.79-3.79S55.11.01 53.02.01s-3.79 1.7-3.79 3.79 1.7 3.79 3.79 3.79ZM52.01 35.83c0-1.07-.87-1.94-1.94-1.94s-1.94.87-1.94 1.94.87 1.94 1.94 1.94 1.94-.87 1.94-1.94ZM6.58 191.87c-.09.46-.14.94-.14 1.43a7.56 7.56 0 0 0 7.56 7.56c3.02 0 5.62-1.78 6.83-4.34-1.6-.26-3.26-.6-4.95-1.05-3.51-.94-6.68-2.2-9.31-3.6ZM17.78 154.02c-1.45 0-2.69.82-3.32 2.02 1.19-.82 2.49-1.48 3.88-1.96-.18-.03-.36-.06-.55-.06ZM10.47 178.48c-.15.41-.25.85-.25 1.31v.02c.45.02.91.05 1.38.09-.4-.45-.79-.93-1.14-1.42ZM6.51 165.36c-1.07 0-1.94.87-1.94 1.94s.87 1.94 1.94 1.94c.38 0 .74-.11 1.04-.31.02-1.03.13-2.04.33-3.01-.35-.35-.83-.56-1.37-.56ZM5.25 179.26c0-1.45-1.18-2.63-2.63-2.63s-2.63 1.18-2.63 2.63c0 .85.41 1.59 1.03 2.07 1.02-.62 2.41-1.06 4.1-1.31.07-.24.12-.49.12-.76ZM6.51 173.97c0 1.07.87 1.94 1.94 1.94.18 0 .35-.03.51-.08-.52-1.16-.91-2.4-1.15-3.68-.75.27-1.3.98-1.3 1.82ZM32.7 184.73c1.07 0 1.94-.87 1.94-1.94 0-.54-.22-1.03-.58-1.38-.96.83-2.01 1.54-3.15 2.12.29.7.98 1.2 1.79 1.2Z" class="cls-9"/><circle cx="47.73" cy="44.65" r="5.42" class="cls-9" transform="rotate(-72.1 47.725 44.648)"/><path d="M36.18 48.5c2.09 0 3.78-1.69 3.78-3.78s-1.69-3.78-3.78-3.78-3.78 1.69-3.78 3.78 1.69 3.78 3.78 3.78ZM53.85 66.16c0 1.07.87 1.94 1.94 1.94s1.94-.87 1.94-1.94-.87-1.94-1.94-1.94-1.94.87-1.94 1.94Z" class="cls-9"/><circle cx="56.99" cy="56.34" r="3.78" class="cls-9"/><path d="M42.2 71.87c5.33-.31 9.55-4.71 9.55-10.12S47.21 51.6 41.6 51.6s-10.15 4.54-10.15 10.15c0 5.02 3.65 9.18 8.43 9.99.77-.03 1.54.01 2.31.13ZM54.26 82.49a5.413 5.413 0 0 0 3.07-4.88c0-2.99-2.43-5.42-5.42-5.42-1.68 0-3.19.77-4.18 1.97 2.6 1.86 4.8 4.71 6.53 8.33ZM38.23 156.17c-.5.35-1 .67-1.5.96a1.95 1.95 0 0 0 1.5-.96ZM66.06 47.61c0-2.09-1.69-3.78-3.78-3.78s-3.78 1.69-3.78 3.78 1.69 3.78 3.78 3.78 3.78-1.69 3.78-3.78Z" class="cls-9"/><circle cx="60.91" cy="31.19" r="5.42" class="cls-9" transform="rotate(-13.28 60.926 31.21)"/><circle cx="36.71" cy="79.54" r="5.42" style="fill:url(#Dégradé_sans_nom_8)" transform="rotate(-9.22 36.713 79.54)"/><path d="M51.91 83.03c.84 0 1.64-.2 2.35-.54-1.73-3.61-3.93-6.47-6.53-8.33a5.43 5.43 0 0 0-1.24 3.45c0 2.99 2.43 5.42 5.42 5.42Z" style="fill:url(#Dégradé_sans_nom_8-2)"/><path d="M45.38 91.9c2.09 0 3.78-1.69 3.78-3.78s-1.69-3.78-3.78-3.78-3.78 1.69-3.78 3.78 1.69 3.78 3.78 3.78Z" style="fill:url(#Dégradé_sans_nom_8-3)"/><path d="M53.85 90.06c1.07 0 1.94-.87 1.94-1.94s-.87-1.94-1.94-1.94-1.94.87-1.94 1.94.87 1.94 1.94 1.94Z" style="fill:url(#Dégradé_sans_nom_8-4)"/><circle cx="39.36" cy="118.4" r="12.25" style="fill:url(#Dégradé_sans_nom_8-5)"/><circle cx="41.43" cy="137.74" r="4.34" style="fill:url(#Dégradé_sans_nom_8-6)"/><path d="M25.94 135.6c2.09 0 3.78-1.69 3.78-3.78s-1.69-3.78-3.78-3.78-3.78 1.69-3.78 3.78 1.69 3.78 3.78 3.78Z" style="fill:url(#Dégradé_sans_nom_8-7)"/><circle cx="28.78" cy="145.3" r="7.56" style="fill:url(#Dégradé_sans_nom_8-8)" transform="rotate(-13.28 28.794 145.314)"/><circle cx="49.54" cy="100.08" r="5.42" style="fill:url(#Dégradé_sans_nom_8-9)" transform="rotate(-67.5 49.54 100.08)"/><circle cx="33.28" cy="97.33" r="5.42" style="fill:url(#Dégradé_sans_nom_8-10)"/><path d="M36.56 153.27c-1.07 0-1.94.87-1.94 1.94s.87 1.94 1.94 1.94c.06 0 .12-.01.18-.02.5-.29 1-.61 1.5-.96.16-.28.27-.61.27-.96 0-1.07-.87-1.94-1.94-1.94Z" style="fill:url(#Dégradé_sans_nom_8-11)"/><path d="M25.94 108.38c1.07 0 1.94-.87 1.94-1.94s-.87-1.94-1.94-1.94-1.94.87-1.94 1.94.87 1.94 1.94 1.94Z" style="fill:url(#Dégradé_sans_nom_8-12)"/><path d="M23.86 166.41c0 4.18 3.39 7.56 7.56 7.56s7.56-3.39 7.56-7.56c0-3.82-2.84-6.98-6.53-7.48-1.24.32-2.48.46-3.72.42a7.542 7.542 0 0 0-4.87 7.06Z" style="fill:url(#Dégradé_sans_nom_13)"/><circle cx="16.14" cy="168.42" r="5.42" style="fill:url(#Dégradé_sans_nom_13-2)"/><path d="M17.78 161.58c2.09 0 3.78-1.69 3.78-3.78 0-.43-.09-.84-.22-1.22-.88-.69-1.72-1.48-2.51-2.39-.16-.05-.33-.09-.5-.11-1.39.48-2.69 1.14-3.88 1.96-.28.53-.46 1.12-.46 1.77 0 2.09 1.69 3.78 3.78 3.78Z" style="fill:url(#Dégradé_sans_nom_13-3)"/><path d="M17.62 180.84c.1-.33.17-.68.17-1.05 0-2.09-1.69-3.78-3.78-3.78-1.63 0-3 1.03-3.53 2.47.35.5.73.97 1.14 1.42 1.9.16 3.92.46 6.01.93Z" style="fill:url(#Dégradé_sans_nom_13-4)"/><path d="M8.44 167.3c0-.54-.22-1.02-.57-1.37-.2.97-.31 1.98-.33 3.01.54-.34.9-.95.9-1.63Z" style="fill:url(#Dégradé_sans_nom_13-5)"/><path d="M10.38 173.97c0-1.07-.87-1.94-1.94-1.94-.23 0-.44.05-.64.12.24 1.29.63 2.52 1.15 3.68.82-.22 1.43-.97 1.43-1.86Z" style="fill:url(#Dégradé_sans_nom_13-6)"/><path d="M34.77 175.23c-1.07 0-1.94.87-1.94 1.94s.87 1.94 1.94 1.94 1.94-.87 1.94-1.94-.87-1.94-1.94-1.94Z" style="fill:url(#Dégradé_sans_nom_13-7)"/><path d="M26.33 183.66a4.519 4.519 0 0 0 2.07-3.8c0-2.51-2.03-4.54-4.54-4.54s-4.54 2.03-4.54 4.54c0 .52.1 1 .26 1.46.03 0 .06.02.1.02 2.4.64 4.63 1.44 6.65 2.32Z" style="fill:url(#Dégradé_sans_nom_13-8)"/><path d="M30.76 182.79c0 .26.05.51.15.74 1.14-.58 2.19-1.29 3.15-2.12-.35-.34-.83-.56-1.36-.56-1.07 0-1.94.87-1.94 1.94Z" style="fill:url(#Dégradé_sans_nom_13-9)"/><path d="M32.45 158.92c-.34-.05-.68-.08-1.03-.08-.95 0-1.85.18-2.69.5 1.24.04 2.48-.1 3.72-.42Z" style="fill:url(#Dégradé_sans_nom_13-10)"/><path d="M21.34 156.58a3.772 3.772 0 0 0-2.51-2.39c.78.91 1.62 1.71 2.51 2.39Z" style="fill:url(#Dégradé_sans_nom_13-11)"/><path d="M25.57 158.75c1.07 0 1.94-.87 1.94-1.94s-.87-1.94-1.94-1.94-1.94.87-1.94 1.94c0 .67.34 1.26.86 1.61.27.11.54.21.82.3.09.01.17.03.26.03Z" style="fill:url(#Dégradé_sans_nom_13-12)"/><path d="M14 185.74c-3.69 0-6.75 2.64-7.42 6.13 2.62 1.4 5.79 2.66 9.31 3.6 1.69.45 3.35.8 4.95 1.05.46-.98.73-2.07.73-3.22a7.56 7.56 0 0 0-7.56-7.56Z" style="fill:url(#Dégradé_sans_nom_17)"/><path d="M27.5 194.3c2.16 0 3.92-1.75 3.92-3.92s-1.75-3.92-3.92-3.92-3.92 1.75-3.92 3.92 1.75 3.92 3.92 3.92Z" style="fill:url(#Dégradé_sans_nom_17-2)"/><path d="M14 183.57c.59 0 1.14-.15 1.64-.39-1.52-.87-2.88-1.98-4.04-3.28-.47-.04-.93-.07-1.38-.09a3.78 3.78 0 0 0 3.78 3.76Z" style="fill:url(#Dégradé_sans_nom_17-3)"/><path d="M5.13 180.02c-1.69.25-3.08.69-4.1 1.31.44.34.99.55 1.6.55 1.18 0 2.17-.79 2.5-1.87Z" style="fill:url(#Dégradé_sans_nom_17-4)"/><path d="M15.64 183.18c.95-.46 1.68-1.31 1.98-2.35-2.1-.47-4.12-.77-6.01-.93 1.16 1.3 2.52 2.41 4.04 3.28Z" style="fill:url(#Dégradé_sans_nom_17-5)"/></g></svg>