<svg xmlns="http://www.w3.org/2000/svg" xmlns:xlink="http://www.w3.org/1999/xlink" id="Calque_2" viewBox="0 0 67.13 202.11"><defs><radialGradient id="Dégradé_sans_nom_8" cx="30.42" cy="122.23" r="33.84" fx="30.42" fy="122.23" gradientUnits="userSpaceOnUse"><stop offset="0" stop-color="#00faeb"/><stop offset="1" stop-color="#f2e8df"/></radialGradient><radialGradient xlink:href="#Dégradé_sans_nom_8" id="Dégradé_sans_nom_8-2" r="33.84"/><radialGradient xlink:href="#Dégradé_sans_nom_8" id="Dégradé_sans_nom_8-3" r="33.84"/><radialGradient xlink:href="#Dégradé_sans_nom_8" id="Dégradé_sans_nom_8-4" r="33.84"/><radialGradient xlink:href="#Dégradé_sans_nom_8" id="Dégradé_sans_nom_8-5" r="33.84"/><radialGradient xlink:href="#Dégradé_sans_nom_8" id="Dégradé_sans_nom_8-6" r="33.84"/><radialGradient xlink:href="#Dégradé_sans_nom_8" id="Dégradé_sans_nom_8-7" r="33.84"/><radialGradient xlink:href="#Dégradé_sans_nom_8" id="Dégradé_sans_nom_8-8" r="33.84" gradientTransform="rotate(13.28 28.569 120.134)"/><radialGradient xlink:href="#Dégradé_sans_nom_8" id="Dégradé_sans_nom_8-9" r="33.84"/><radialGradient xlink:href="#Dégradé_sans_nom_8" id="Dégradé_sans_nom_8-10" r="33.84"/><radialGradient xlink:href="#Dégradé_sans_nom_8" id="Dégradé_sans_nom_8-11" r="33.84" gradientTransform="rotate(13.28 39.143 147.026)"/><radialGradient xlink:href="#Dégradé_sans_nom_8" id="Dégradé_sans_nom_8-12" r="33.84" gradientTransform="rotate(45 18.389 101.787)"/><radialGradient xlink:href="#Dégradé_sans_nom_8" id="Dégradé_sans_nom_8-13" r="33.84"/><radialGradient xlink:href="#Dégradé_sans_nom_8" id="Dégradé_sans_nom_8-14" r="33.84"/><radialGradient xlink:href="#Dégradé_sans_nom_8" id="Dégradé_sans_nom_8-15" r="33.84"/><radialGradient id="Dégradé_sans_nom_13" cx="45.57" cy="172.77" r="16.06" fx="45.57" fy="172.77" gradientUnits="userSpaceOnUse"><stop offset="0" stop-color="#03b6ac"/><stop offset="0" stop-color="#00f368"/><stop offset="0" stop-color="#03b6ac"/><stop offset=".14" stop-color="#06b6ac"/><stop offset=".26" stop-color="#12b9af"/><stop offset=".39" stop-color="#25bdb3"/><stop offset=".52" stop-color="#41c2b9"/><stop offset=".65" stop-color="#64cac0"/><stop offset=".77" stop-color="#8fd3c9"/><stop offset=".89" stop-color="#c1ddd4"/><stop offset="1" stop-color="#f2e8df"/></radialGradient><radialGradient xlink:href="#Dégradé_sans_nom_13" id="Dégradé_sans_nom_13-2" r="16.06" gradientTransform="rotate(45 50.985 169.659)"/><radialGradient xlink:href="#Dégradé_sans_nom_13" id="Dégradé_sans_nom_13-3" r="16.06"/><radialGradient xlink:href="#Dégradé_sans_nom_13" id="Dégradé_sans_nom_13-4" cx="45.57" r="16.06" fx="45.57"/><radialGradient xlink:href="#Dégradé_sans_nom_13" id="Dégradé_sans_nom_13-5" cx="45.57" r="16.06" fx="45.57"/><radialGradient xlink:href="#Dégradé_sans_nom_13" id="Dégradé_sans_nom_13-6" cx="45.57" r="16.06" fx="45.57"/><radialGradient xlink:href="#Dégradé_sans_nom_13" id="Dégradé_sans_nom_13-7" r="16.06"/><radialGradient xlink:href="#Dégradé_sans_nom_13" id="Dégradé_sans_nom_13-8" r="16.06" gradientTransform="rotate(45 43.278 181.096)"/><radialGradient xlink:href="#Dégradé_sans_nom_13" id="Dégradé_sans_nom_13-9" r="16.06"/><radialGradient xlink:href="#Dégradé_sans_nom_13" id="Dégradé_sans_nom_13-10" cy="172.77" r="16.06" fy="172.77"/><radialGradient xlink:href="#Dégradé_sans_nom_13" id="Dégradé_sans_nom_13-11" r="16.06"/><radialGradient xlink:href="#Dégradé_sans_nom_13" id="Dégradé_sans_nom_13-12" r="16.06"/><radialGradient id="Dégradé_sans_nom_17" cx="53.13" cy="192.94" r="14.52" fx="53.13" fy="192.94" gradientUnits="userSpaceOnUse"><stop offset="0" stop-color="#00ff5b"/><stop offset="0" stop-color="#00f368"/><stop offset="0" stop-color="#0b171b"/><stop offset=".11" stop-color="#101b1f"/><stop offset=".24" stop-color="#1f292c"/><stop offset=".38" stop-color="#384041"/><stop offset=".53" stop-color="#5b5f5f"/><stop offset=".69" stop-color="#888885"/><stop offset=".86" stop-color="#bdb8b2"/><stop offset="1" stop-color="#f2e8df"/></radialGradient><radialGradient xlink:href="#Dégradé_sans_nom_17" id="Dégradé_sans_nom_17-2" cx="53.13" r="14.52" fx="53.13"/><radialGradient xlink:href="#Dégradé_sans_nom_17" id="Dégradé_sans_nom_17-3" cx="53.13" r="14.52" fx="53.13"/><style>.cls-9{fill:#f2e8df}</style></defs><g id="bras_à_droite"><circle cx="21.52" cy="14.92" r="7.56" class="cls-9" transform="rotate(-13.28 21.51 14.911)"/><circle cx="26.94" cy="31.2" r="5.42" class="cls-9" transform="rotate(-67.5 26.938 31.204)"/><path d="M17.37 27.74c0-2.09-1.69-3.78-3.78-3.78s-3.78 1.69-3.78 3.78 1.69 3.78 3.78 3.78 3.78-1.69 3.78-3.78ZM12.19 7.56c2.09 0 3.78-1.69 3.78-3.78S14.28 0 12.19 0 8.41 1.69 8.41 3.78s1.69 3.78 3.78 3.78ZM17.9 36.62c0-1.07-.87-1.94-1.94-1.94s-1.94.87-1.94 1.94.87 1.94 1.94 1.94 1.94-.87 1.94-1.94ZM30.8 161.9a7.568 7.568 0 0 0-2.66 5.75c0 1.63.52 3.13 1.4 4.37.16-3.5 1.44-6.71 3.49-9.28-.75-.22-1.49-.5-2.23-.84ZM49.32 201.07a7.536 7.536 0 0 0 10.13-2.38 49.374 49.374 0 0 1-10.13 2.38ZM53.08 158.58a3.766 3.766 0 0 0-3.19-3.27c-.36.6-.74 1.17-1.14 1.71 1.53.31 2.99.84 4.33 1.55ZM42.49 188.97a3.91 3.91 0 0 0-.69-.6c-.71-.17-1.41-.39-2.08-.65h-.1a3.92 3.92 0 0 0-3.92 3.92c0 .62.16 1.19.41 1.71 1.4-1.51 3.6-3.02 6.37-4.36ZM62.56 168.54c0-1.07-.87-1.94-1.94-1.94-.07 0-.15.01-.22.02.48 1.16.82 2.4 1.02 3.68.67-.3 1.14-.98 1.14-1.76ZM64.5 183.12c1.45 0 2.63-1.18 2.63-2.63s-1.18-2.63-2.63-2.63-2.63 1.18-2.63 2.63 1.18 2.63 2.63 2.63ZM32.99 182.74c-.31.34-.5.79-.5 1.28 0 1.07.87 1.94 1.94 1.94.5 0 .96-.2 1.3-.51-1.02-.79-1.94-1.7-2.75-2.71ZM22.07 51.44c2.81-1.03 4.25-4.14 3.22-6.95s-4.14-4.25-6.95-3.22a5.414 5.414 0 0 0-3.22 6.95 5.414 5.414 0 0 0 6.95 3.22ZM27.97 46.42c0 2.09 1.69 3.78 3.78 3.78s3.78-1.69 3.78-3.78-1.69-3.78-3.78-3.78-3.78 1.69-3.78 3.78ZM12.14 65.92c-1.07 0-1.94.87-1.94 1.94s.87 1.94 1.94 1.94 1.94-.87 1.94-1.94-.87-1.94-1.94-1.94Z" class="cls-9"/><circle cx="10.94" cy="58.05" r="3.78" class="cls-9"/><circle cx="26.33" cy="63.46" r="10.15" class="cls-9" transform="rotate(-9.22 26.337 63.475)"/><path d="M36.64 81.25c0-2.99-2.43-5.42-5.42-5.42s-5.42 2.43-5.42 5.42v.03c2.98.49 5.99 1.91 8.89 4.13a5.396 5.396 0 0 0 1.94-4.16ZM21.04 81.33a5.422 5.422 0 0 0-5.03-7.44c-2.99 0-5.42 2.43-5.42 5.42 0 2.53 1.74 4.65 4.08 5.25 1.72-1.52 3.66-2.59 5.81-3.12.18-.04.37-.07.55-.11Z" class="cls-9"/><circle cx="3.78" cy="40.93" r="3.78" class="cls-9"/><path d="M35.74 160.09h-.03c-1.87 0-3.58.69-4.91 1.81.74.34 1.49.61 2.23.84.79-.99 1.7-1.87 2.7-2.65Z" style="fill:url(#Dégradé_sans_nom_8)"/><path d="M46.36 156.75c.81.04 1.62.12 2.4.28.4-.54.78-1.11 1.14-1.71-.18-.03-.36-.05-.55-.05-1.22 0-2.3.59-2.99 1.49Z" style="fill:url(#Dégradé_sans_nom_8-2)"/><path d="M41.56 156.12c-1 0-1.81.76-1.92 1.73 1.1-.44 2.27-.75 3.48-.94-.35-.48-.92-.8-1.56-.8Z" style="fill:url(#Dégradé_sans_nom_8-3)"/><path d="M31.22 86.66c1.32 0 2.53-.47 3.47-1.26-2.9-2.22-5.91-3.64-8.89-4.13a5.418 5.418 0 0 0 5.42 5.39Z" style="fill:url(#Dégradé_sans_nom_8-4)"/><path d="M21.04 81.33c-.18.04-.37.06-.55.11-2.15.52-4.09 1.6-5.81 3.12.43.11.87.17 1.34.17 2.28 0 4.22-1.41 5.03-3.4Z" style="fill:url(#Dégradé_sans_nom_8-5)"/><path d="M22.55 93.6c2.09 0 3.78-1.69 3.78-3.78s-1.69-3.78-3.78-3.78-3.78 1.69-3.78 3.78 1.69 3.78 3.78 3.78Z" style="fill:url(#Dégradé_sans_nom_8-6)"/><path d="M16.02 89.82c0-1.07-.87-1.94-1.94-1.94s-1.94.87-1.94 1.94.87 1.94 1.94 1.94 1.94-.87 1.94-1.94Z" style="fill:url(#Dégradé_sans_nom_8-7)"/><circle cx="28.57" cy="120.11" r="12.25" style="fill:url(#Dégradé_sans_nom_8-8)" transform="rotate(-13.28 28.591 120.128)"/><circle cx="26.5" cy="139.44" r="4.34" style="fill:url(#Dégradé_sans_nom_8-9)"/><path d="M38.21 133.52c0 2.09 1.69 3.78 3.78 3.78s3.78-1.69 3.78-3.78-1.69-3.78-3.78-3.78-3.78 1.69-3.78 3.78Z" style="fill:url(#Dégradé_sans_nom_8-10)"/><circle cx="39.15" cy="147" r="7.56" style="fill:url(#Dégradé_sans_nom_8-11)" transform="rotate(-13.28 39.17 147.044)"/><circle cx="18.39" cy="101.79" r="5.42" style="fill:url(#Dégradé_sans_nom_8-12)" transform="rotate(-45 18.393 101.791)"/><circle cx="34.65" cy="99.03" r="5.42" style="fill:url(#Dégradé_sans_nom_8-13)"/><path d="M31.37 154.97c-1.07 0-1.94.87-1.94 1.94s.87 1.94 1.94 1.94 1.94-.87 1.94-1.94-.87-1.94-1.94-1.94Z" style="fill:url(#Dégradé_sans_nom_8-14)"/><path d="M41.99 110.08c1.07 0 1.94-.87 1.94-1.94s-.87-1.94-1.94-1.94-1.94.87-1.94 1.94.87 1.94 1.94 1.94Z" style="fill:url(#Dégradé_sans_nom_8-15)"/><path d="M35.71 175.21a7.56 7.56 0 0 0 7.56-7.56c0-1.89-.7-3.61-1.84-4.93-.36.12-.72.23-1.09.32-2.38.58-4.84.45-7.31-.3a15.926 15.926 0 0 0-3.49 9.28 7.548 7.548 0 0 0 6.17 3.19Z" style="fill:url(#Dégradé_sans_nom_13)"/><circle cx="50.99" cy="169.66" r="5.42" style="fill:url(#Dégradé_sans_nom_13-2)" transform="rotate(-45 50.994 169.657)"/><path d="M45.78 160.24c.5 1.5 1.9 2.58 3.57 2.58 2.09 0 3.78-1.69 3.78-3.78 0-.16-.03-.31-.05-.46-1.34-.71-2.79-1.24-4.33-1.55-.9 1.23-1.89 2.31-2.97 3.21Z" style="fill:url(#Dégradé_sans_nom_13-3)"/><path d="M53.13 177.25c-2.09 0-3.78 1.69-3.78 3.78s1.69 3.78 3.78 3.78 3.78-1.69 3.78-3.78-1.69-3.78-3.78-3.78Z" style="fill:url(#Dégradé_sans_nom_13-4)"/><path d="M58.68 168.54c0 1.07.87 1.94 1.94 1.94.29 0 .55-.07.8-.18-.2-1.28-.53-2.52-1.02-3.68-.97.11-1.72.92-1.72 1.92Z" style="fill:url(#Dégradé_sans_nom_13-5)"/><path d="M58.68 177.15c1.07 0 1.94-.87 1.94-1.94s-.87-1.94-1.94-1.94-1.94.87-1.94 1.94.87 1.94 1.94 1.94Z" style="fill:url(#Dégradé_sans_nom_13-6)"/><path d="M34.29 178.41c0-1.07-.87-1.94-1.94-1.94-.98 0-1.78.73-1.91 1.67.23.63.49 1.25.79 1.85.32.23.7.36 1.13.36 1.07 0 1.94-.87 1.94-1.94Z" style="fill:url(#Dégradé_sans_nom_13-7)"/><circle cx="43.27" cy="181.1" r="4.54" style="fill:url(#Dégradé_sans_nom_13-8)" transform="rotate(-45 43.272 181.096)"/><path d="M36.37 184.03c0-1.07-.87-1.94-1.94-1.94-.58 0-1.09.26-1.44.65.8 1.01 1.73 1.92 2.75 2.71.39-.35.63-.86.63-1.43Z" style="fill:url(#Dégradé_sans_nom_13-9)"/><path d="M35.74 160.09c-1 .78-1.91 1.66-2.7 2.65 2.46.74 4.92.87 7.31.3.37-.09.73-.2 1.09-.32a7.548 7.548 0 0 0-5.69-2.63Z" style="fill:url(#Dégradé_sans_nom_13-10)"/><path d="M48.75 157.03c-.78-.16-1.58-.24-2.4-.28-.49.64-.79 1.42-.79 2.29 0 .42.08.82.21 1.2 1.08-.9 2.07-1.98 2.97-3.21Z" style="fill:url(#Dégradé_sans_nom_13-11)"/><path d="M41.56 159.99c1.07 0 1.94-.87 1.94-1.94 0-.43-.14-.82-.38-1.14-1.21.19-2.37.5-3.48.94 0 .07-.02.13-.02.2 0 1.07.87 1.94 1.94 1.94Z" style="fill:url(#Dégradé_sans_nom_13-12)"/><path d="M53.13 186.98h-.1c-1.39.73-2.9 1.26-4.5 1.56a7.545 7.545 0 0 0-2.97 6 7.55 7.55 0 0 0 3.75 6.52c1.78-.22 3.64-.56 5.54-1.02 1.61-.39 3.14-.86 4.59-1.36a7.526 7.526 0 0 0 1.24-4.14 7.56 7.56 0 0 0-7.56-7.56Z" style="fill:url(#Dégradé_sans_nom_17)"/><path d="M39.62 195.54a3.92 3.92 0 0 0 3.92-3.92c0-1.03-.4-1.95-1.05-2.65-2.77 1.34-4.97 2.85-6.37 4.36.64 1.3 1.96 2.2 3.51 2.2Z" style="fill:url(#Dégradé_sans_nom_17-2)"/><path d="M53.03 186.99c-1.69.02-3.25.6-4.5 1.56 1.59-.3 3.11-.83 4.5-1.56Z" style="fill:url(#Dégradé_sans_nom_17-3)"/></g></svg>