<svg width="948" height="778" viewBox="0 0 948 778" fill="none" xmlns="http://www.w3.org/2000/svg">
<path d="M582.5 74H458.517L361.366 38.5H0.5V777H858.452L911.5 727.076V139.439" stroke="#A1CCD9"/>
<path d="M809.052 13H809.254L809.4 12.8597L815.56 6.91213H947.5V159.79L941.752 163.066L941.5 163.209V163.5V226.958H936.89V18.246V17.746H936.39H456.156L423.729 2H525.899L562.356 12.9788L562.426 13H562.5H809.052Z" fill="#A1CCD9" stroke="#A1CCD9"/>
<path d="M0 1H385.3L458.581 30.5H930.5V776.5" stroke="#A1CCD9"/>
<mask id="path-4-inside-1_459_5452" fill="white">
<path d="M13 38.5L1 38.5L0.999991 56.3416L0.999991 345.805L7.02732 345.806L7.02732 256.595L13 252.134L13 38.5Z"/>
</mask>
<path d="M13 38.5L1 38.5L0.999991 56.3416L0.999991 345.805L7.02732 345.806L7.02732 256.595L13 252.134L13 38.5Z" fill="#A1CCD9"/>
<path d="M1 38.5L1 37.5L4.81391e-06 37.5L4.76837e-06 38.5L1 38.5ZM13 38.5L14 38.5L14 37.5L13 37.5L13 38.5ZM13 252.134L13.5984 252.936L14 252.636L14 252.134L13 252.134ZM7.02732 256.595L6.42893 255.794L6.02732 256.094L6.02732 256.595L7.02732 256.595ZM7.02732 345.806L7.0272 346.806L8.02732 346.806L8.02732 345.806L7.02732 345.806ZM0.999991 345.805L-9.2266e-06 345.805L-9.27214e-06 346.805L0.999869 346.805L0.999991 345.805ZM0.999991 56.3416L-9.3956e-06 56.3416L0.999991 56.3416ZM1 39.5L13 39.5L13 37.5L1 37.5L1 39.5ZM12 38.5L12 252.134L14 252.134L14 38.5L12 38.5ZM12.4016 251.333L6.42893 255.794L7.62572 257.396L13.5984 252.936L12.4016 251.333ZM6.02732 256.595L6.02732 345.806L8.02732 345.806L8.02732 256.595L6.02732 256.595ZM7.02745 344.806L1.00011 344.805L0.999869 346.805L7.0272 346.806L7.02745 344.806ZM1.99999 345.805L1.99999 56.3416L-9.3956e-06 56.3416L-9.2266e-06 345.805L1.99999 345.805ZM1.99999 56.3416L2 38.5L4.76837e-06 38.5L-9.3956e-06 56.3416L1.99999 56.3416Z" fill="#A1CCD9" mask="url(#path-4-inside-1_459_5452)"/>
<mask id="path-6-inside-2_459_5452" fill="white">
<path d="M1 764.5L1 776.5L18.8416 776.5L308.305 776.5L308.306 770.473L219.095 770.473L214.634 764.5L1 764.5Z"/>
</mask>
<path d="M1 764.5L1 776.5L18.8416 776.5L308.305 776.5L308.306 770.473L219.095 770.473L214.634 764.5L1 764.5Z" fill="#A1CCD9"/>
<path d="M1 776.5L5.19866e-07 776.5L5.83057e-07 777.5H1L1 776.5ZM1 764.5L1 763.5L-3.58572e-09 763.5L0 764.5L1 764.5ZM214.634 764.5L215.436 763.902L215.136 763.5H214.634L214.634 764.5ZM219.095 770.473L218.294 771.071L218.594 771.473H219.095L219.095 770.473ZM308.306 770.473L309.306 770.473L309.306 769.473H308.306L308.306 770.473ZM308.305 776.5L308.305 777.5H309.305L309.305 776.5L308.305 776.5ZM18.8416 776.5L18.8416 777.5L18.8416 776.5ZM2 776.5L2 764.5L0 764.5L5.19866e-07 776.5L2 776.5ZM1 765.5L214.634 765.5L214.634 763.5L1 763.5L1 765.5ZM213.833 765.098L218.294 771.071L219.896 769.874L215.436 763.902L213.833 765.098ZM219.095 771.473L308.306 771.473L308.306 769.473L219.095 769.473L219.095 771.473ZM307.306 770.473L307.305 776.5L309.305 776.5L309.306 770.473L307.306 770.473ZM308.305 775.5L18.8416 775.5L18.8416 777.5L308.305 777.5L308.305 775.5ZM18.8416 775.5L1 775.5L1 777.5L18.8416 777.5L18.8416 775.5Z" fill="#A1CCD9" mask="url(#path-6-inside-2_459_5452)"/>
<path d="M930.5 617.441L941.5 624.866L941.5 776L930.5 776L930.5 617.441Z" fill="#A1CCD9" stroke="#A1CCD9"/>
</svg>
