<svg xmlns="http://www.w3.org/2000/svg" id="Calque_2" data-name="Calque 2" viewBox="0 0 214.42 514.36">
  <defs>
    <style>
      .cls-1{fill:#00f9c9}.cls-2{fill:#03b6ac}.cls-3{fill:#f2e8df}.cls-4{fill:#005b54}.cls-5{fill:#06b291}.cls-6{fill:#0b171b}.cls-7{fill:#04b57e}.cls-8{fill:#00faeb}
    </style>
  </defs>
  <g id="tete">
    <circle cx="120.28" cy="45.26" r="7.56" class="cls-4" transform="rotate(-45 120.28 45.268)"/>
    <circle cx="101.82" cy="47.76" r="5.42" class="cls-4" transform="rotate(-45 101.812 47.758)"/>
    <path d="M89.84 20.9c0 2.09 1.69 3.78 3.78 3.78s3.78-1.69 3.78-3.78-1.69-3.78-3.78-3.78-3.78 1.69-3.78 3.78ZM92.01 65.89c0 2.1 1.7 3.79 3.79 3.79s3.79-1.7 3.79-3.79-1.7-3.79-3.79-3.79-3.79 1.7-3.79 3.79ZM83.83 21.76c1.07 0 1.94-.87 1.94-1.94s-.87-1.94-1.94-1.94-1.94.87-1.94 1.94.87 1.94 1.94 1.94ZM127.98 29.53a3.4 3.4 0 0 0-3.67 3.12 3.4 3.4 0 0 0 3.12 3.67 3.4 3.4 0 0 0 3.67-3.12 3.4 3.4 0 0 0-3.12-3.67Z" class="cls-4"/>
    <circle cx="118.69" cy="30.35" r="4.49" class="cls-4"/>
    <circle cx="88.28" cy="42.3" r="5.42" class="cls-4" transform="rotate(-67.5 88.275 42.304)"/>
    <circle cx="103.67" cy="31.04" r="7.87" class="cls-4" transform="rotate(-45 103.676 31.036)"/>
    <path d="M108.66 52.92c-2.09 0-3.78 1.69-3.78 3.78s1.69 3.78 3.78 3.78 3.78-1.69 3.78-3.78-1.69-3.78-3.78-3.78Z" class="cls-4"/>
    <circle cx="105.84" cy="10.45" r="10.45" class="cls-4" transform="rotate(-58.61 105.842 10.453)"/>
    <path d="M124.79 25.03c3.94-.1 7.06-3.37 6.97-7.32a7.155 7.155 0 0 0-7.32-6.97c-3.94.1-7.06 3.37-6.97 7.32.1 3.94 3.37 7.06 7.32 6.97ZM89.79 14.63a3.778 3.778 0 0 0 3.69-3.87 3.778 3.778 0 0 0-3.87-3.69 3.778 3.778 0 0 0-3.69 3.87 3.778 3.778 0 0 0 3.87 3.69ZM126.86 61.3c-.07-2.99-2.56-5.36-5.55-5.29s-5.36 2.56-5.29 5.55a5.426 5.426 0 0 0 5.55 5.29 5.426 5.426 0 0 0 5.29-5.55ZM107.39 63.68a5.426 5.426 0 0 0-5.29 5.55 5.426 5.426 0 0 0 5.55 5.29 5.426 5.426 0 0 0 5.29-5.55 5.426 5.426 0 0 0-5.55-5.29ZM89.57 50.38a5.426 5.426 0 0 0-5.29 5.55 5.426 5.426 0 0 0 5.55 5.29 5.426 5.426 0 0 0 5.29-5.55 5.426 5.426 0 0 0-5.55-5.29ZM86.05 34.42a5.426 5.426 0 0 0 5.29-5.55 5.426 5.426 0 0 0-5.55-5.29 5.426 5.426 0 0 0-5.29 5.55 5.426 5.426 0 0 0 5.55 5.29ZM121.48 9.91c1.6-.04 2.87-1.37 2.83-2.98s-1.37-2.87-2.98-2.83a2.905 2.905 0 1 0 .15 5.81Z" class="cls-4"/>
    <path d="M76.36 40.24c2.09-.05 3.74-1.78 3.69-3.87s-1.78-3.74-3.87-3.69a3.778 3.778 0 0 0-3.69 3.87 3.778 3.778 0 0 0 3.87 3.69ZM78.32 50.47a2.246 2.246 0 1 0 .11 4.49 2.246 2.246 0 0 0-.11-4.49ZM79.34 46.64c-.85.02-1.52.72-1.49 1.57s.72 1.52 1.57 1.49c.85-.02 1.52-.72 1.49-1.57-.02-.85-.72-1.52-1.57-1.49ZM72.54 45.58a2.246 2.246 0 1 0-.11-4.49 2.246 2.246 0 0 0 .11 4.49ZM78.32 41.23a2.246 2.246 0 1 0 .11 4.49 2.246 2.246 0 0 0-.11-4.49ZM73.97 46.56a2.246 2.246 0 1 0 .11 4.49 2.246 2.246 0 0 0-.11-4.49ZM136.69 38.3c2.09.05 3.82-1.6 3.87-3.69.05-2.09-1.6-3.82-3.69-3.87s-3.82 1.6-3.87 3.69a3.778 3.778 0 0 0 3.69 3.87ZM134.72 48.53a2.246 2.246 0 1 0-.11 4.49 2.246 2.246 0 0 0 .11-4.49ZM133.63 47.76a1.53 1.53 0 1 0 .08-3.06 1.53 1.53 0 0 0-.08 3.06ZM138.32 41.34a2.246 2.246 0 1 0 4.49.11 2.246 2.246 0 0 0-4.49-.11ZM134.61 43.77a2.246 2.246 0 1 0 .11-4.49 2.246 2.246 0 0 0-.11 4.49ZM138.97 49.1a2.246 2.246 0 1 0 .11-4.49 2.246 2.246 0 0 0-.11 4.49Z" class="cls-6"/>
  </g>
  <g id="bras_gauche" data-name="bras gauche">
    <circle cx="43.74" cy="108.44" r="7.56" class="cls-3" transform="rotate(-45 43.744 108.43)"/>
    <circle cx="38.33" cy="124.72" r="5.42" class="cls-3"/>
    <path d="M53.85 121.25c0-2.09-1.69-3.78-3.78-3.78s-3.78 1.69-3.78 3.78 1.69 3.78 3.78 3.78 3.78-1.69 3.78-3.78ZM53.02 110.17a3.93 3.93 0 1 0 7.861-.001 3.93 3.93 0 0 0-7.861.001ZM53.02 101.12c2.1 0 3.79-1.7 3.79-3.79s-1.7-3.79-3.79-3.79-3.79 1.7-3.79 3.79 1.7 3.79 3.79 3.79ZM48.13 129.36c0 1.07.87 1.94 1.94 1.94s1.94-.87 1.94-1.94-.87-1.94-1.94-1.94-1.94.87-1.94 1.94Z" class="cls-3"/>
    <circle cx="31.42" cy="259.94" r="7.56" class="cls-2" transform="rotate(-13.28 31.422 259.981)"/>
    <circle cx="14" cy="286.84" r="7.56" class="cls-7" transform="rotate(-45 14 286.831)"/>
    <circle cx="16.14" cy="261.95" r="5.42" class="cls-2"/>
    <path d="M17.78 255.11c2.09 0 3.78-1.69 3.78-3.78s-1.69-3.78-3.78-3.78-3.78 1.69-3.78 3.78 1.69 3.78 3.78 3.78Z" class="cls-2"/>
    <path d="M27.5 280c-2.16 0-3.92 1.75-3.92 3.92s1.75 3.92 3.92 3.92 3.92-1.75 3.92-3.92S29.67 280 27.5 280Z" class="cls-7"/>
    <path d="M10.22 273.32c0 2.09 1.69 3.78 3.78 3.78s3.78-1.69 3.78-3.78-1.69-3.78-3.78-3.78-3.78 1.69-3.78 3.78ZM6.51 262.77c1.07 0 1.94-.87 1.94-1.94s-.87-1.94-1.94-1.94-1.94.87-1.94 1.94.87 1.94 1.94 1.94Z" class="cls-2"/>
    <path d="M2.63 270.16c-1.45 0-2.63 1.18-2.63 2.63s1.18 2.63 2.63 2.63 2.63-1.18 2.63-2.63-1.18-2.63-2.63-2.63Z" class="cls-7"/>
    <path d="M6.51 267.5c0 1.07.87 1.94 1.94 1.94s1.94-.87 1.94-1.94-.87-1.94-1.94-1.94-1.94.87-1.94 1.94ZM34.77 268.76c-1.07 0-1.94.87-1.94 1.94s.87 1.94 1.94 1.94 1.94-.87 1.94-1.94-.87-1.94-1.94-1.94Z" class="cls-2"/>
    <circle cx="23.86" cy="273.39" r="4.54" class="cls-2" transform="rotate(-13.28 23.85 273.422)"/>
    <path d="M32.7 274.38c-1.07 0-1.94.87-1.94 1.94s.87 1.94 1.94 1.94 1.94-.87 1.94-1.94-.87-1.94-1.94-1.94ZM25.57 252.29c1.07 0 1.94-.87 1.94-1.94s-.87-1.94-1.94-1.94-1.94.87-1.94 1.94.87 1.94 1.94 1.94Z" class="cls-2"/>
    <circle cx="47.73" cy="138.18" r="5.42" class="cls-3" transform="rotate(-72.1 47.724 138.174)"/>
    <path d="M36.18 142.03c2.09 0 3.78-1.69 3.78-3.78s-1.69-3.78-3.78-3.78-3.78 1.69-3.78 3.78 1.69 3.78 3.78 3.78ZM55.79 157.75c-1.07 0-1.94.87-1.94 1.94s.87 1.94 1.94 1.94 1.94-.87 1.94-1.94-.87-1.94-1.94-1.94Z" class="cls-3"/>
    <circle cx="56.99" cy="149.88" r="3.78" class="cls-3"/>
    <circle cx="41.6" cy="155.29" r="10.15" class="cls-3"/>
    <circle cx="36.71" cy="173.07" r="5.42" class="cls-3" transform="rotate(-9.22 36.726 173.034)"/>
    <circle cx="51.91" cy="171.14" r="5.42" class="cls-3" transform="rotate(-67.5 51.912 171.144)"/>
    <path d="M49.16 181.65c0-2.09-1.69-3.78-3.78-3.78s-3.78 1.69-3.78 3.78 1.69 3.78 3.78 3.78 3.78-1.69 3.78-3.78ZM55.79 181.65c0-1.07-.87-1.94-1.94-1.94s-1.94.87-1.94 1.94.87 1.94 1.94 1.94 1.94-.87 1.94-1.94Z" class="cls-8"/>
    <circle cx="39.36" cy="211.94" r="12.25" class="cls-8"/>
    <circle cx="41.43" cy="231.27" r="4.34" class="cls-8"/>
    <path d="M25.94 229.13c2.09 0 3.78-1.69 3.78-3.78s-1.69-3.78-3.78-3.78-3.78 1.69-3.78 3.78 1.69 3.78 3.78 3.78Z" class="cls-8"/>
    <circle cx="28.78" cy="238.83" r="7.56" class="cls-3" transform="rotate(-13.28 28.786 238.865)"/>
    <circle cx="49.54" cy="193.62" r="5.42" class="cls-8"/>
    <circle cx="33.28" cy="190.86" r="5.42" class="cls-8"/>
    <path d="M36.56 250.68c1.07 0 1.94-.87 1.94-1.94s-.87-1.94-1.94-1.94-1.94.87-1.94 1.94.87 1.94 1.94 1.94Z" class="cls-3"/>
    <path d="M25.94 201.91c1.07 0 1.94-.87 1.94-1.94s-.87-1.94-1.94-1.94-1.94.87-1.94 1.94.87 1.94 1.94 1.94Z" class="cls-8"/>
  </g>
  <g id="bras_droit" data-name="bras droit">
    <circle cx="168.81" cy="108.03" r="7.56" class="cls-3" transform="rotate(-13.28 168.827 108.026)"/>
    <circle cx="174.23" cy="124.31" r="5.42" class="cls-3" transform="rotate(-67.5 174.234 124.31)"/>
    <path d="M160.88 117.06c-2.09 0-3.78 1.69-3.78 3.78s1.69 3.78 3.78 3.78 3.78-1.69 3.78-3.78-1.69-3.78-3.78-3.78ZM159.48 100.67c2.09 0 3.78-1.69 3.78-3.78s-1.69-3.78-3.78-3.78-3.78 1.69-3.78 3.78 1.69 3.78 3.78 3.78ZM163.26 127.79c-1.07 0-1.94.87-1.94 1.94s.87 1.94 1.94 1.94 1.94-.87 1.94-1.94-.87-1.94-1.94-1.94Z" class="cls-3"/>
    <circle cx="183" cy="260.75" r="7.56" class="cls-2" transform="rotate(-9.22 182.945 260.655)"/>
    <circle cx="200.42" cy="287.65" r="7.56" class="cls-7" transform="rotate(-13.28 200.454 287.712)"/>
    <circle cx="198.28" cy="262.77" r="5.42" class="cls-2" transform="rotate(-13.28 198.302 262.822)"/>
    <path d="M192.86 252.14c0 2.09 1.69 3.78 3.78 3.78s3.78-1.69 3.78-3.78-1.69-3.78-3.78-3.78-3.78 1.69-3.78 3.78Z" class="cls-2"/>
    <path d="M186.92 280.82c-2.16 0-3.92 1.75-3.92 3.92s1.75 3.92 3.92 3.92 3.92-1.75 3.92-3.92-1.75-3.92-3.92-3.92Z" class="cls-7"/>
    <path d="M200.42 270.36c-2.09 0-3.78 1.69-3.78 3.78s1.69 3.78 3.78 3.78 3.78-1.69 3.78-3.78-1.69-3.78-3.78-3.78ZM207.92 263.58c1.07 0 1.94-.87 1.94-1.94s-.87-1.94-1.94-1.94-1.94.87-1.94 1.94.87 1.94 1.94 1.94Z" class="cls-2"/>
    <path d="M211.8 270.97c-1.45 0-2.63 1.18-2.63 2.63s1.18 2.63 2.63 2.63 2.63-1.18 2.63-2.63-1.18-2.63-2.63-2.63Z" class="cls-7"/>
    <path d="M205.98 270.25c1.07 0 1.94-.87 1.94-1.94s-.87-1.94-1.94-1.94-1.94.87-1.94 1.94.87 1.94 1.94 1.94ZM181.59 271.52c0-1.07-.87-1.94-1.94-1.94s-1.94.87-1.94 1.94.87 1.94 1.94 1.94 1.94-.87 1.94-1.94Z" class="cls-2"/>
    <circle cx="190.56" cy="274.2" r="4.54" class="cls-2" transform="rotate(-45 190.565 274.195)"/>
    <path d="M183.67 277.13c0-1.07-.87-1.94-1.94-1.94s-1.94.87-1.94 1.94.87 1.94 1.94 1.94 1.94-.87 1.94-1.94ZM186.92 251.16c0 1.07.87 1.94 1.94 1.94s1.94-.87 1.94-1.94-.87-1.94-1.94-1.94-1.94.87-1.94 1.94Z" class="cls-2"/>
    <path d="M162.41 141.32a5.414 5.414 0 0 0 6.95 3.22c2.81-1.03 4.25-4.14 3.22-6.95s-4.14-4.25-6.95-3.22a5.414 5.414 0 0 0-3.22 6.95ZM175.26 139.52c0 2.09 1.69 3.78 3.78 3.78s3.78-1.69 3.78-3.78-1.69-3.78-3.78-3.78-3.78 1.69-3.78 3.78ZM159.43 159.03c-1.07 0-1.94.87-1.94 1.94s.87 1.94 1.94 1.94 1.94-.87 1.94-1.94-.87-1.94-1.94-1.94Z" class="cls-3"/>
    <circle cx="158.23" cy="151.15" r="3.78" class="cls-3"/>
    <circle cx="173.62" cy="156.57" r="10.15" class="cls-3" transform="rotate(-67.5 173.624 156.569)"/>
    <circle cx="178.51" cy="174.35" r="5.42" class="cls-3"/>
    <circle cx="163.31" cy="172.42" r="5.42" class="cls-3"/>
    <path d="M169.84 186.71c2.09 0 3.78-1.69 3.78-3.78s-1.69-3.78-3.78-3.78-3.78 1.69-3.78 3.78 1.69 3.78 3.78 3.78ZM161.37 184.87c1.07 0 1.94-.87 1.94-1.94s-.87-1.94-1.94-1.94-1.94.87-1.94 1.94.87 1.94 1.94 1.94Z" class="cls-8"/>
    <circle cx="175.86" cy="213.21" r="12.25" class="cls-8" transform="rotate(-45 175.858 213.217)"/>
    <circle cx="173.8" cy="232.55" r="4.34" class="cls-8"/>
    <path d="M185.5 226.63c0 2.09 1.69 3.78 3.78 3.78s3.78-1.69 3.78-3.78-1.69-3.78-3.78-3.78-3.78 1.69-3.78 3.78Z" class="cls-8"/>
    <circle cx="186.45" cy="240.11" r="7.56" class="cls-3" transform="rotate(-45 186.444 240.102)"/>
    <circle cx="165.68" cy="194.89" r="5.42" class="cls-8" transform="rotate(-13.28 165.717 194.948)"/>
    <circle cx="181.94" cy="192.14" r="5.42" class="cls-8" transform="rotate(-9.22 181.857 192.1)"/>
    <path d="M176.72 250.02c0 1.07.87 1.94 1.94 1.94s1.94-.87 1.94-1.94-.87-1.94-1.94-1.94-1.94.87-1.94 1.94Z" class="cls-3"/>
    <path d="M189.28 203.19c1.07 0 1.94-.87 1.94-1.94s-.87-1.94-1.94-1.94-1.94.87-1.94 1.94.87 1.94 1.94 1.94Z" class="cls-8"/>
  </g>
  <g id="bassin">
    <path d="M117.91 291.49a7.56 7.56 0 1 0-1.631-15.031 7.56 7.56 0 0 0 1.631 15.031Z" class="cls-1"/>
    <path d="M146.96 285.03a7.56 7.56 0 1 0-1.631-15.031 7.56 7.56 0 0 0 1.631 15.031Z" class="cls-2"/>
    <path d="M132.86 288.08a3.772 3.772 0 0 0 3.35-4.17c-.22-2.08-2.09-3.58-4.17-3.35s-3.58 2.09-3.35 4.17a3.772 3.772 0 0 0 4.17 3.35Z" class="cls-3"/>
    <circle cx="96.09" cy="284.12" r="7.56" class="cls-1" transform="rotate(-40.46 96.083 284.1)"/>
    <path d="M67.47 270.95c-4.16-.33-7.81 2.78-8.14 6.94-.33 4.16 2.78 7.81 6.94 8.14 4.16.33 7.81-2.78 8.14-6.94.33-4.16-2.78-7.81-6.94-8.14Z" class="cls-2"/>
    <circle cx="80.75" cy="284.9" r="3.78" class="cls-3"/>
    <circle cx="82.59" cy="266.28" r="7.56" class="cls-2" transform="rotate(-67.5 82.592 266.274)"/>
    <circle cx="107.1" cy="261.64" r="7.56" class="cls-1" transform="rotate(-86.38 107.086 261.637)"/>
    <path d="M67.41 266.16a5.43 5.43 0 0 0 5.71-5.12 5.43 5.43 0 0 0-5.12-5.71 5.43 5.43 0 0 0-5.71 5.12 5.43 5.43 0 0 0 5.12 5.71ZM93.55 250.85a3.774 3.774 0 0 0-3.98 3.57 3.774 3.774 0 0 0 3.57 3.98c2.09.11 3.87-1.48 3.98-3.57a3.774 3.774 0 0 0-3.57-3.98ZM100.69 250.94c2.16.12 4-1.54 4.12-3.7.12-2.16-1.54-4-3.7-4.12-2.16-.12-4 1.54-4.12 3.7-.12 2.16 1.54 4 3.7 4.12ZM118.52 256.71c2.09.11 3.87-1.48 3.98-3.57a3.774 3.774 0 0 0-3.57-3.98 3.774 3.774 0 0 0-3.98 3.57 3.774 3.774 0 0 0 3.57 3.98ZM107.48 248.53c-.06 1.07.76 1.98 1.83 2.04 1.07.06 1.98-.76 2.04-1.83s-.76-1.98-1.83-2.04-1.98.76-2.04 1.83ZM121.3 245.74a2.629 2.629 0 1 0 .29-5.25 2.629 2.629 0 0 0-.29 5.25ZM92.73 264c-.06 1.07.76 1.98 1.83 2.04 1.07.06 1.98-.76 2.04-1.83.06-1.07-.76-1.98-1.83-2.04s-1.98.76-2.04 1.83Z" class="cls-2"/>
    <circle cx="132.49" cy="245.74" r="5.42" class="cls-2"/>
    <circle cx="71.49" cy="243.88" r="7.56" class="cls-2" transform="rotate(-13.28 71.513 243.926)"/>
    <circle cx="88.68" cy="243.88" r="5.42" class="cls-2" transform="rotate(-13.28 88.708 243.926)"/>
    <path d="M82.33 256.71c2.09 0 3.78-1.69 3.78-3.78s-1.69-3.78-3.78-3.78-3.78 1.69-3.78 3.78 1.69 3.78 3.78 3.78ZM149.17 240.09c0-2.09-1.69-3.78-3.78-3.78s-3.78 1.69-3.78 3.78 1.69 3.78 3.78 3.78 3.78-1.69 3.78-3.78Z" class="cls-2"/>
    <circle cx="145.47" cy="256.71" r="6.05" class="cls-2"/>
    <path d="M125.82 253.98c-.06 1.07.76 1.98 1.83 2.04 1.07.06 1.98-.76 2.04-1.83.06-1.07-.76-1.98-1.83-2.04-1.07-.06-1.98.76-2.04 1.83Z" class="cls-2"/>
    <circle cx="129.91" cy="266.04" r="7.56" class="cls-2"/>
    <circle cx="110.14" cy="235.63" r="7.56" class="cls-2"/>
  </g>
  <g id="jambes">
    <path d="M123.18 323.38a7.56 7.56 0 1 0-1.631-15.031 7.56 7.56 0 0 0 1.631 15.031Z" class="cls-3"/>
    <circle cx="142.91" cy="300.85" r="12.25" class="cls-3" transform="rotate(-51.18 142.92 300.861)"/>
    <path d="M125.35 341.25c4.14-.58 7.02-4.4 6.44-8.54s-4.4-7.02-8.54-6.44-7.02 4.4-6.44 8.54c.58 4.14 4.4 7.02 8.54 6.44ZM128.19 348.93a7.56 7.56 0 1 0 15.031-1.631 7.56 7.56 0 0 0-15.031 1.631ZM122.72 353.32a3.772 3.772 0 0 0 3.35-4.17 3.772 3.772 0 0 0-4.17-3.35 3.772 3.772 0 0 0-3.35 4.17 3.772 3.772 0 0 0 4.17 3.35Z" class="cls-3"/>
    <circle cx="128.44" cy="364.48" r="7.56" class="cls-3" transform="rotate(-75.45 128.423 364.47)"/>
    <circle cx="143.96" cy="327.6" r="10.15" class="cls-3" transform="rotate(-80.07 143.958 327.59)"/>
    <path d="M146.28 357.1c-2.98.32-5.13 3-4.8 5.97s3 5.13 5.97 4.8c2.98-.32 5.13-3 4.8-5.97-.32-2.98-3-5.13-5.97-4.8ZM120.15 294.42c-2.98.32-5.13 3-4.8 5.97.32 2.98 3 5.13 5.97 4.8 2.98-.32 5.13-3 4.8-5.97-.32-2.98-3-5.13-5.97-4.8ZM153.44 344.91a3.772 3.772 0 0 0-4.17-3.35 3.772 3.772 0 0 0-3.35 4.17 3.772 3.772 0 0 0 4.17 3.35 3.772 3.772 0 0 0 3.35-4.17Z" class="cls-3"/>
    <circle cx="65.65" cy="298.01" r="7.56" class="cls-3" transform="rotate(-40.46 65.642 298)"/>
    <circle cx="82.67" cy="361.43" r="12.25" class="cls-3"/>
    <circle cx="94.53" cy="303.73" r="7.56" class="cls-3" transform="rotate(-29.68 94.554 303.753)"/>
    <path d="M70.9 315.68c-.33 4.16 2.78 7.81 6.94 8.14 4.16.33 7.81-2.78 8.14-6.94.33-4.16-2.78-7.81-6.94-8.14-4.16-.33-7.81 2.78-8.14 6.94Z" class="cls-3"/>
    <circle cx="91.86" cy="317.35" r="3.78" class="cls-3" transform="rotate(-16.03 91.845 317.306)"/>
    <circle cx="86.17" cy="332.44" r="7.56" class="cls-3" transform="rotate(-80.92 86.15 332.43)"/>
    <circle cx="67.7" cy="330.97" r="5.42" class="cls-3" transform="rotate(-40.46 67.687 330.962)"/>
    <path d="M71.79 347.55c.53-2.94-1.42-5.77-4.36-6.3-2.94-.53-5.77 1.42-6.3 4.36-.53 2.94 1.42 5.77 4.36 6.3 2.94.53 5.77-1.42 6.3-4.36ZM64.09 317.66c2.08.17 3.9-1.39 4.07-3.47s-1.39-3.9-3.47-4.07c-2.08-.17-3.9 1.39-4.07 3.47-.17 2.08 1.39 3.9 3.47 4.07Z" class="cls-3"/>
    <circle cx="80.23" cy="299.17" r="3.78" class="cls-3" transform="rotate(-18.38 80.231 299.168)"/>
    <path d="M92.96 342.38c-2.08-.17-3.9 1.39-4.07 3.47s1.39 3.9 3.47 4.07 3.9-1.39 4.07-3.47c.17-2.08-1.39-3.9-3.47-4.07ZM60.32 370.04c0 2.09 1.69 3.78 3.78 3.78s3.78-1.69 3.78-3.78-1.69-3.78-3.78-3.78-3.78 1.69-3.78 3.78ZM81.67 445.65c-4.16-.33-7.81 2.78-8.14 6.94-.33 4.16 2.78 7.81 6.94 8.14 4.16.33 7.81-2.78 8.14-6.94.33-4.16-2.78-7.81-6.94-8.14Z" class="cls-3"/>
    <circle cx="70.07" cy="385.59" r="7.56" class="cls-8" transform="rotate(-40.46 70.061 385.572)"/>
    <path d="M64.88 407.05c2.98.24 5.59-1.99 5.83-4.97.24-2.98-1.99-5.59-4.97-5.83-2.98-.24-5.59 1.99-5.83 4.97s1.99 5.59 4.97 5.83ZM73.29 411.12c-6.69-.53-12.55 4.46-13.08 11.16-.53 6.69 4.46 12.55 11.16 13.08 6.69.53 12.55-4.46 13.08-11.16.53-6.69-4.46-12.55-11.16-13.08Z" class="cls-8"/>
    <circle cx="86.63" cy="398.87" r="9.33" class="cls-8" transform="rotate(-40.46 86.617 398.855)"/>
    <path d="M85.73 433.36c-2.08-.17-3.9 1.39-4.07 3.47-.17 2.08 1.39 3.9 3.47 4.07s3.9-1.39 4.07-3.47-1.39-3.9-3.47-4.07ZM67.82 438.49c-2.98-.24-5.59 1.99-5.83 4.97-.24 2.98 1.99 5.59 4.97 5.83 2.98.24 5.59-1.99 5.83-4.97.24-2.98-1.99-5.59-4.97-5.83Z" class="cls-8"/>
    <circle cx="88.5" cy="381.92" r="3.78" class="cls-8" transform="rotate(-3.78 88.565 382.138)"/>
    <circle cx="78.92" cy="473.21" r="7.56" class="cls-5" transform="rotate(-40.46 78.903 473.187)"/>
    <path d="M90.05 412.44c-2.08-.17-3.9 1.39-4.07 3.47-.17 2.08 1.39 3.9 3.47 4.07s3.9-1.39 4.07-3.47-1.39-3.9-3.47-4.07Z" class="cls-8"/>
    <circle cx="68.28" cy="461.32" r="3.78" class="cls-3" transform="rotate(-4.14 68.363 461.652)"/>
    <path d="M139.99 459.65a7.56 7.56 0 1 0-1.631-15.031 7.56 7.56 0 0 0 1.631 15.031Z" class="cls-3"/>
    <path d="M149.06 391.77a7.56 7.56 0 1 0-1.631-15.031 7.56 7.56 0 0 0 1.631 15.031ZM152.88 394.77c-2.98.32-5.13 3-4.8 5.97.32 2.98 3 5.13 5.97 4.8 2.98-.32 5.13-3 4.8-5.97s-3-5.13-5.97-4.8Z" class="cls-8"/>
    <circle cx="147.06" cy="421.95" r="12.16" class="cls-8"/>
    <circle cx="132.07" cy="397.99" r="9.33" class="cls-8" transform="rotate(-11.54 132.128 398.101)"/>
    <path d="M134.77 439.97a3.772 3.772 0 0 0 3.35-4.17 3.772 3.772 0 0 0-4.17-3.35 3.772 3.772 0 0 0-3.35 4.17 3.772 3.772 0 0 0 4.17 3.35ZM157.98 441.86c-.32-2.98-3-5.13-5.97-4.8-2.98.32-5.13 3-4.8 5.97.32 2.98 3 5.13 5.97 4.8s5.13-3 4.8-5.97ZM129.31 377.35a3.772 3.772 0 0 0-3.35 4.17 3.772 3.772 0 0 0 4.17 3.35 3.772 3.772 0 0 0 3.35-4.17 3.772 3.772 0 0 0-4.17-3.35Z" class="cls-8"/>
    <path d="M141.09 464.56a7.56 7.56 0 1 0 1.631 15.031 7.56 7.56 0 0 0-1.631-15.031Z" class="cls-5"/>
    <path d="M129.85 419.17a3.772 3.772 0 0 0 3.35-4.17 3.772 3.772 0 0 0-4.17-3.35 3.772 3.772 0 0 0-3.35 4.17 3.772 3.772 0 0 0 4.17 3.35Z" class="cls-8"/>
    <path d="M151.79 456.14a3.772 3.772 0 0 0-3.35 4.17 3.772 3.772 0 0 0 4.17 3.35 3.772 3.772 0 0 0 3.35-4.17 3.772 3.772 0 0 0-4.17-3.35Z" class="cls-3"/>
    <path d="M81.76 483.37c-2.08-.17-3.9 1.39-4.07 3.47s1.39 3.9 3.47 4.07c2.08.17 3.9-1.39 4.07-3.47.17-2.08-1.39-3.9-3.47-4.07Z" class="cls-5"/>
    <circle cx="67.24" cy="487.31" r="3.78" class="cls-5" transform="rotate(-3.78 67.342 487.466)"/>
    <circle cx="82.63" cy="503.56" r="10.15" class="cls-8" transform="rotate(-80.34 82.633 503.568)"/>
    <circle cx="59.24" cy="501.7" r="7.56" class="cls-8" transform="rotate(-40.46 59.23 501.689)"/>
    <path d="M139.78 491.53a3.772 3.772 0 0 0 3.35-4.17 3.772 3.772 0 0 0-4.17-3.35 3.772 3.772 0 0 0-3.35 4.17 3.772 3.772 0 0 0 4.17 3.35ZM157.35 487.12a3.772 3.772 0 0 0-4.17-3.35c-2.08.22-3.58 2.09-3.35 4.17s2.09 3.58 4.17 3.35a3.772 3.772 0 0 0 3.35-4.17Z" class="cls-5"/>
    <circle cx="138.68" cy="504.22" r="10.15" class="cls-8" transform="rotate(-89.02 138.676 504.218)"/>
    <path d="M161.18 494.17a7.56 7.56 0 1 0 1.631 15.031 7.56 7.56 0 0 0-1.631-15.031Z" class="cls-8"/>
  </g>
  <g id="Torse">
    <path d="M150.14 108.44c0 2.16 1.75 3.92 3.92 3.92s3.92-1.75 3.92-3.92-1.75-3.92-3.92-3.92-3.92 1.75-3.92 3.92ZM151.07 93.43c1.07 0 1.94-.87 1.94-1.94s-.87-1.94-1.94-1.94-1.94.87-1.94 1.94.87 1.94 1.94 1.94ZM151.07 102.07c1.45 0 2.63-1.18 2.63-2.63s-1.18-2.63-2.63-2.63-2.63 1.18-2.63 2.63 1.18 2.63 2.63 2.63Z" class="cls-3"/>
    <circle cx="63.91" cy="99.48" r="5.44" class="cls-3"/>
    <path d="M66.05 92.71c1.07 0 1.95-.87 1.95-1.95s-.87-1.95-1.95-1.95-1.95.87-1.95 1.95.87 1.95 1.95 1.95Z" class="cls-3"/>
    <circle cx="137.03" cy="102.59" r="9.33" class="cls-3" transform="rotate(-45 137.025 102.592)"/>
    <circle cx="78.36" cy="93.26" r="7.56" class="cls-3" transform="rotate(-13.28 78.385 93.274)"/>
    <circle cx="145.39" cy="121.25" r="7.56" class="cls-3" transform="rotate(-13.28 145.43 121.279)"/>
    <path d="M87.73 79.57c-2.09 0-3.78 1.69-3.78 3.78s1.69 3.78 3.78 3.78 3.78-1.69 3.78-3.78-1.69-3.78-3.78-3.78Z" class="cls-3"/>
    <circle cx="119.68" cy="85.7" r="7.56" class="cls-3"/>
    <path d="M130.26 114.1c-2.09 0-3.78 1.69-3.78 3.78s1.69 3.78 3.78 3.78 3.78-1.69 3.78-3.78-1.69-3.78-3.78-3.78ZM66.06 141.15c0-2.09-1.69-3.78-3.78-3.78s-3.78 1.69-3.78 3.78 1.69 3.78 3.78 3.78 3.78-1.69 3.78-3.78Z" class="cls-3"/>
    <circle cx="101.82" cy="86.42" r="6.85" class="cls-3" transform="rotate(-9.22 101.754 86.407)"/>
    <circle cx="69.98" cy="113.2" r="6.05" class="cls-3" transform="rotate(-45 69.98 113.203)"/>
    <path d="M129.91 87.71c0 2.09 1.69 3.78 3.78 3.78s3.78-1.69 3.78-3.78-1.69-3.78-3.78-3.78-3.78 1.69-3.78 3.78Z" class="cls-3"/>
    <circle cx="60.91" cy="124.72" r="5.42" class="cls-3" transform="rotate(-13.28 60.92 124.762)"/>
    <circle cx="106.51" cy="101.08" r="5.42" class="cls-3"/>
    <path d="M89.56 97.3c0 2.09 1.69 3.78 3.78 3.78s3.78-1.69 3.78-3.78-1.69-3.78-3.78-3.78-3.78 1.69-3.78 3.78Z" class="cls-3"/>
    <circle cx="119.68" cy="101.08" r="3.78" class="cls-3"/>
    <circle cx="151.07" cy="134.04" r="3.78" class="cls-3"/>
    <circle cx="133.69" cy="224.12" r="12.25" class="cls-3" transform="rotate(-45 133.694 224.122)"/>
    <circle cx="88.68" cy="225.49" r="10.15" class="cls-3" transform="rotate(-13.28 88.719 225.512)"/>
    <circle cx="75.57" cy="158.98" r="12.16" class="cls-3" transform="rotate(-67.5 75.575 158.975)"/>
    <circle cx="130.26" cy="131.41" r="7.56" class="cls-3" transform="rotate(-45 130.263 131.413)"/>
    <circle cx="76.27" cy="182.92" r="7.56" class="cls-3" transform="rotate(-45 76.271 182.927)"/>
    <circle cx="76.27" cy="201.96" r="7.56" class="cls-3" transform="rotate(-9.22 76.274 201.937)"/>
    <circle cx="112.72" cy="165.51" r="7.56" class="cls-3" transform="rotate(-13.28 112.723 165.532)"/>
    <circle cx="93.35" cy="141.15" r="7.56" class="cls-3" transform="rotate(-45 93.353 141.142)"/>
    <circle cx="87.73" cy="172.69" r="3.78" class="cls-3"/>
    <circle cx="101.04" cy="181.65" r="7.56" class="cls-3"/>
    <circle cx="112.12" cy="135.72" r="7.56" class="cls-3" transform="rotate(-13.28 112.143 135.731)"/>
    <circle cx="115.08" cy="116" r="7.56" class="cls-3" transform="rotate(-45 115.08 116.002)"/>
    <circle cx="141.69" cy="148.65" r="9.39" class="cls-3"/>
    <circle cx="91.03" cy="207.23" r="3.78" class="cls-3"/>
    <path d="M72.25 219.12c2.09 0 3.78-1.69 3.78-3.78s-1.69-3.78-3.78-3.78-3.78 1.69-3.78 3.78 1.69 3.78 3.78 3.78ZM67.01 228.75c0 2.09 1.69 3.78 3.78 3.78s3.78-1.69 3.78-3.78-1.69-3.78-3.78-3.78-3.78 1.69-3.78 3.78Z" class="cls-3"/>
    <circle cx="124.94" cy="185.85" r="10.15" class="cls-3" transform="rotate(-13.28 124.98 185.895)"/>
    <circle cx="107.17" cy="201.81" r="7.56" class="cls-3"/>
    <circle cx="74.58" cy="133.14" r="7.56" class="cls-3" transform="rotate(-45 74.578 133.139)"/>
    <circle cx="132.18" cy="165.39" r="7.56" class="cls-3" transform="rotate(-9.22 132.147 165.375)"/>
    <circle cx="122.29" cy="207.23" r="3.78" class="cls-3"/>
    <circle cx="137.91" cy="201.81" r="5.42" class="cls-3" transform="rotate(-45 137.902 201.81)"/>
    <circle cx="89.7" cy="193.24" r="5.42" class="cls-3" transform="rotate(-67.5 89.697 193.241)"/>
    <circle cx="96.44" cy="158.59" r="5.42" class="cls-3"/>
    <circle cx="108.6" cy="218.72" r="5.42" class="cls-3"/>
    <circle cx="122.29" cy="148.65" r="5.42" class="cls-3"/>
    <path d="M139.54 177.51c0 2.09 1.69 3.78 3.78 3.78s3.78-1.69 3.78-3.78-1.69-3.78-3.78-3.78-3.78 1.69-3.78 3.78ZM108.6 147.16c-2.09 0-3.78 1.69-3.78 3.78s1.69 3.78 3.78 3.78 3.78-1.69 3.78-3.78-1.69-3.78-3.78-3.78ZM145.94 189.21c0-2.09-1.69-3.78-3.78-3.78s-3.78 1.69-3.78 3.78 1.69 3.78 3.78 3.78 3.78-1.69 3.78-3.78ZM145.94 162.1c-2.09 0-3.78 1.69-3.78 3.78s1.69 3.78 3.78 3.78 3.78-1.69 3.78-3.78-1.69-3.78-3.78-3.78Z" class="cls-3"/>
    <circle cx="91.52" cy="117.2" r="12.16" class="cls-3"/>
  </g>
</svg>