<svg width="345" height="782" viewBox="0 0 345 782" fill="none" xmlns="http://www.w3.org/2000/svg">
<path d="M134.679 49.2983C127.787 8.32308 155.886 1 172.5 1C189.114 1 217.213 8.32308 210.321 49.2983C221.397 53.6182 211.552 69.0456 209.09 70.8969C207.121 72.378 201.581 81.3876 200.145 85.7073C197.684 95.5808 200.682 116.562 214.958 121.499C217.674 122.438 221.058 123.334 224.839 124.335C245.909 129.913 279.288 138.75 277.723 176.42C275.877 220.851 287.158 281.124 293.106 291.818C299.8 303.849 302.747 338.511 303.567 357.23C305.208 363.812 309.844 377.964 315.259 381.914C318.005 383.916 323.736 389.911 328.088 395.902C329.545 397.907 332.433 400.37 335.354 402.86C340.071 406.883 344.873 410.978 343.865 413.332C341.775 418.214 331.841 414.855 330.808 412.788C330.236 411.642 328.742 410.854 327.306 410.098C326.012 409.416 324.765 408.759 324.28 407.885C325.864 414.47 329.195 421.795 332.173 428.34C336.355 437.536 339.839 445.194 336.793 447.103C333.786 448.988 327.762 437.203 323.627 429.116C322.345 426.608 321.245 424.456 320.472 423.177C319.706 428.143 322.299 436.004 324.589 442.947C327.175 450.786 329.374 457.452 325.912 457.452C322.864 457.452 320.84 452.663 317.927 445.768C315.642 440.359 312.809 433.655 308.504 426.95C308.504 429.035 308.628 431.938 308.766 435.138C309.203 445.307 309.768 458.481 306.872 457.997C304.221 457.554 301.655 445.553 299.633 436.099C298.336 430.032 297.263 425.014 296.535 424.771C295.887 424.555 295.659 428.059 295.385 432.277C294.969 438.68 294.446 446.728 292.183 445.909C289.463 444.924 289.392 438.604 290.007 418.24C290.623 397.876 282.646 373.891 274.646 362.167C266.647 350.442 245.11 293.052 246.956 272.071C247.311 268.042 246.201 264.977 244.998 261.655C243.541 257.633 241.949 253.236 242.655 246.295C242.199 249.928 241.683 253.52 241.111 257.006C235.961 288.42 235.156 309.628 238.341 339.334C239.023 343.301 240.265 348.741 241.721 355.118C246.834 377.512 254.586 411.463 249.988 433.75C245.656 454.747 245.202 477.517 244.771 499.064C244.468 514.246 244.177 528.822 242.551 541.742C242.399 542.949 241.911 545.278 241.272 548.333C238.934 559.503 234.564 580.387 237.111 591.727C240.354 606.169 240.502 637.201 234.935 656.849C229.67 675.428 216.804 726.871 218.035 736.127C219.02 743.533 222.548 753.2 224.189 757.109C226.24 762.663 228.988 774.264 223.573 776.239C216.804 778.707 182.961 784.878 178.653 777.473C175.208 771.549 182.551 751.966 186.653 742.916C187.473 739.83 188.991 732.919 188.499 729.956C188.18 728.036 189.516 723.625 190.876 719.135C192.139 714.969 193.422 710.734 193.422 708.358C193.422 707.388 193.493 704.463 193.593 700.338C194.005 683.474 194.905 646.549 193.422 641.095C192.353 637.164 193.553 626.517 194.634 616.931C195.419 609.961 196.142 603.551 195.883 600.694C195.598 597.554 192.681 578.371 189.627 558.29C186.078 534.955 182.345 510.409 182.345 508.419C182.345 507.074 181.372 499.791 180.161 490.733C178.038 474.846 175.185 453.501 175.577 449.177C174.775 449.378 173.605 449.402 172.5 449.359C171.395 449.402 170.225 449.378 169.423 449.177C169.815 453.501 166.962 474.846 164.839 490.733C163.628 499.791 162.655 507.074 162.655 508.419C162.655 510.409 158.922 534.955 155.373 558.29C152.319 578.371 149.402 597.554 149.117 600.694C148.858 603.551 149.581 609.961 150.366 616.931C151.447 626.517 152.647 637.164 151.578 641.095C150.095 646.549 150.995 683.474 151.407 700.338C151.507 704.463 151.578 707.388 151.578 708.358C151.578 710.734 152.861 714.969 154.124 719.135C155.484 723.625 156.82 728.036 156.501 729.956C156.009 732.919 157.527 739.83 158.347 742.916C162.449 751.966 169.792 771.549 166.347 777.473C162.039 784.878 128.196 778.707 121.427 776.239C116.012 774.264 118.76 762.663 120.811 757.109C122.452 753.2 125.98 743.533 126.965 736.127C128.196 726.871 115.33 675.428 110.065 656.849C104.498 637.201 104.646 606.169 107.889 591.727C110.6 579.657 105.651 556.748 103.391 546.289C102.947 544.234 102.607 542.659 102.449 541.742C99.9836 527.411 99.7688 511.036 99.546 494.053C99.283 474.011 99.009 453.124 95.012 433.75C90.4141 411.463 98.1656 377.512 103.279 355.118C104.735 348.741 105.977 343.301 106.659 339.334C109.844 309.628 109.039 288.42 103.889 257.006C103.317 253.52 102.801 249.928 102.345 246.295C103.051 253.236 101.459 257.633 100.002 261.655C98.7994 264.977 97.6895 268.042 98.0439 272.071C99.8899 293.052 78.3531 350.442 70.3536 362.167C62.3542 373.891 54.3774 397.876 54.9927 418.24C55.6081 438.604 55.5368 444.924 52.8167 445.909C50.5544 446.728 50.0312 438.68 49.6149 432.277C49.3406 428.059 49.1128 424.555 48.4646 424.771C47.7372 425.014 46.6642 430.032 45.367 436.099C43.3454 445.553 40.7793 457.554 38.1283 457.997C35.2316 458.481 35.7974 445.307 36.2342 435.138C36.3716 431.938 36.4962 429.035 36.4962 426.95C32.1913 433.655 29.3584 440.359 27.0729 445.768C24.1598 452.663 22.1363 457.452 19.0878 457.452C15.6256 457.452 17.8248 450.786 20.4108 442.947C22.7009 436.004 25.2944 428.143 24.5279 423.177C23.7555 424.456 22.6552 426.608 21.3734 429.116C17.2384 437.203 11.2137 448.988 8.20747 447.103C5.16148 445.194 8.64474 437.536 12.8274 428.34C15.8047 421.795 19.1363 414.47 20.7198 407.885C20.2353 408.759 18.9879 409.416 17.6938 410.098C16.2576 410.854 14.7639 411.642 14.1916 412.788C13.1594 414.855 3.22475 418.214 1.13527 413.332C0.127337 410.978 4.92932 406.883 9.64641 402.86C12.5672 400.37 15.4555 397.907 16.9117 395.902C21.2638 389.911 26.9954 383.916 29.7414 381.914C35.1564 377.964 39.7919 363.812 41.4328 357.23C42.2533 338.511 45.2005 303.849 51.8936 291.818C57.8424 281.124 69.123 220.851 67.277 176.42C65.7119 138.75 99.091 129.913 120.161 124.335C123.942 123.334 127.326 122.438 130.042 121.499C144.318 116.562 147.316 95.5808 144.855 85.7073C143.419 81.3876 137.879 72.378 135.91 70.8969C133.448 69.0456 123.603 53.6182 134.679 49.2983Z" fill="#BDD5DD" fill-opacity="0.1"/>
<path d="M242.598 246.656C243.142 242.299 247.004 207.112 243.087 188.374C245.807 185.651 246.895 183.472 247.439 180.749M102.376 246.656C101.832 242.299 97.9696 207.112 101.887 188.374C99.1665 185.651 98.0784 183.472 97.5344 180.749M172.5 1C155.886 1 127.787 8.32308 134.679 49.2983C123.603 53.6182 133.448 69.0456 135.91 70.8969C137.879 72.3779 143.419 81.3876 144.855 85.7073C147.316 95.5808 144.318 116.562 130.042 121.499C127.326 122.438 123.942 123.334 120.161 124.335C99.091 129.913 65.7119 138.75 67.277 176.42C69.123 220.851 57.8424 281.124 51.8936 291.818C45.2005 303.849 42.2533 338.511 41.4328 357.23C39.7919 363.812 35.1564 377.964 29.7414 381.914C26.9954 383.916 21.2638 389.911 16.9117 395.902C15.4555 397.907 12.5672 400.37 9.64641 402.86C4.92932 406.883 0.127337 410.978 1.13527 413.332C3.22475 418.214 13.1594 414.855 14.1916 412.788C14.7639 411.642 16.2576 410.855 17.6938 410.098C18.9879 409.416 20.2353 408.759 20.7198 407.885C19.1363 414.47 15.8047 421.795 12.8274 428.34C8.64474 437.536 5.16148 445.194 8.20747 447.103C11.2137 448.988 17.2384 437.203 21.3734 429.116C22.6552 426.608 23.7555 424.456 24.5279 423.177C25.2944 428.143 22.7009 436.004 20.4108 442.947C17.8248 450.786 15.6256 457.452 19.0878 457.452C22.1363 457.452 24.1598 452.663 27.0729 445.769C29.3583 440.359 32.1913 433.655 36.4962 426.95C36.4962 429.035 36.3716 431.938 36.2342 435.138C35.7974 445.307 35.2316 458.481 38.1283 457.997C40.7793 457.554 43.3454 445.553 45.367 436.099C46.6642 430.032 47.7372 425.014 48.4646 424.771C49.1128 424.555 49.3406 428.059 49.6149 432.277C50.0312 438.68 50.5544 446.728 52.8167 445.909C55.5368 444.924 55.6081 438.604 54.9927 418.24C54.3774 397.876 62.3542 373.891 70.3536 362.167C78.3531 350.442 99.8899 293.052 98.0439 272.071C97.6895 268.042 98.7994 264.977 100.002 261.655C101.459 257.633 103.051 253.236 102.345 246.295C102.801 249.928 103.317 253.52 103.889 257.006C109.039 288.42 109.844 309.628 106.659 339.334C105.977 343.301 104.735 348.741 103.279 355.118C98.1656 377.512 90.4141 411.463 95.012 433.75C99.009 453.124 99.283 474.011 99.546 494.053C99.7688 511.036 99.9836 527.411 102.449 541.742C102.607 542.659 102.947 544.234 103.391 546.289C105.651 556.748 110.6 579.657 107.889 591.727C104.646 606.169 104.498 637.201 110.065 656.849C115.33 675.428 128.196 726.871 126.965 736.127C125.98 743.533 122.452 753.2 120.811 757.109C118.76 762.663 116.012 774.264 121.427 776.239C128.196 778.707 162.039 784.878 166.347 777.473C169.792 771.549 162.449 751.966 158.347 742.916C157.527 739.83 156.009 732.919 156.501 729.957C156.82 728.036 155.484 723.625 154.124 719.135C152.861 714.969 151.578 710.734 151.578 708.358C151.578 707.388 151.507 704.463 151.407 700.338C150.995 683.474 150.095 646.549 151.578 641.095C152.647 637.164 151.447 626.517 150.366 616.931C149.581 609.961 148.858 603.551 149.117 600.694C149.402 597.554 152.319 578.371 155.373 558.29C158.922 534.955 162.655 510.409 162.655 508.419C162.655 507.074 163.628 499.791 164.839 490.733C166.962 474.846 169.815 453.501 169.423 449.177C170.225 449.378 171.395 449.402 172.5 449.359C173.605 449.402 174.775 449.378 175.577 449.177C175.185 453.501 178.038 474.846 180.161 490.733C181.372 499.791 182.345 507.074 182.345 508.419C182.345 510.409 186.078 534.955 189.627 558.29C192.681 578.371 195.598 597.554 195.883 600.694C196.142 603.551 195.419 609.961 194.634 616.931C193.553 626.517 192.353 637.164 193.422 641.095C194.905 646.549 194.005 683.474 193.593 700.338C193.493 704.463 193.422 707.388 193.422 708.358C193.422 710.734 192.139 714.969 190.876 719.135C189.516 723.625 188.18 728.036 188.499 729.957C188.991 732.919 187.473 739.83 186.653 742.916C182.551 751.966 175.208 771.549 178.653 777.473C182.961 784.878 216.804 778.707 223.573 776.239C228.988 774.264 226.24 762.663 224.189 757.109C222.548 753.2 219.02 743.533 218.035 736.127C216.804 726.871 229.67 675.428 234.935 656.849C240.502 637.201 240.354 606.169 237.111 591.727C234.564 580.387 238.934 559.503 241.272 548.333C241.911 545.278 242.399 542.949 242.551 541.742C244.177 528.822 244.468 514.246 244.771 499.064C245.202 477.517 245.656 454.747 249.988 433.75C254.586 411.463 246.834 377.512 241.721 355.118C240.265 348.741 239.023 343.301 238.341 339.334C235.156 309.628 235.961 288.42 241.111 257.006C241.683 253.52 242.199 249.928 242.655 246.295C241.949 253.236 243.541 257.633 244.998 261.655C246.201 264.977 247.311 268.042 246.956 272.071C245.11 293.052 266.647 350.442 274.646 362.167C282.646 373.891 290.623 397.876 290.007 418.24C289.392 438.604 289.463 444.924 292.183 445.909C294.446 446.728 294.969 438.68 295.385 432.277C295.659 428.059 295.887 424.555 296.535 424.771C297.263 425.014 298.336 430.032 299.633 436.099C301.655 445.553 304.221 457.554 306.872 457.997C309.768 458.481 309.203 445.307 308.766 435.138C308.628 431.938 308.504 429.035 308.504 426.95C312.809 433.655 315.642 440.359 317.927 445.768C320.84 452.663 322.864 457.452 325.912 457.452C329.374 457.452 327.175 450.786 324.589 442.947C322.299 436.004 319.706 428.143 320.472 423.177C321.245 424.456 322.345 426.608 323.627 429.116C327.762 437.203 333.786 448.988 336.793 447.103C339.839 445.194 336.355 437.536 332.173 428.34C329.195 421.795 325.864 414.47 324.28 407.885C324.765 408.759 326.012 409.416 327.306 410.098C328.742 410.855 330.236 411.642 330.808 412.788C331.841 414.855 341.775 418.214 343.865 413.332C344.873 410.978 340.071 406.883 335.354 402.86C332.433 400.37 329.545 397.907 328.088 395.902C323.736 389.911 318.005 383.916 315.259 381.914C309.844 377.964 305.208 363.812 303.567 357.23C302.747 338.511 299.8 303.849 293.106 291.818C287.158 281.124 275.877 220.851 277.723 176.42C279.288 138.75 245.909 129.913 224.839 124.335C221.058 123.334 217.674 122.438 214.958 121.499C200.682 116.562 197.684 95.5808 200.145 85.7073C201.581 81.3876 207.121 72.3779 209.09 70.8969C211.552 69.0456 221.397 53.6182 210.321 49.2983C217.213 8.32308 189.114 1 172.5 1Z" stroke="#00FAEB"/>
</svg>
