<svg width="271" height="634" viewBox="0 0 271 634" fill="none" xmlns="http://www.w3.org/2000/svg">
<path d="M102.882 40.0668C97.2816 6.86676 122.5 1 135.5 1C149 1 173.482 6.9335 167.882 40.1335C176.882 43.6336 168.882 56.1336 166.882 57.6336C165.282 58.8336 162.548 66.1337 161.382 69.6337C159.382 77.6337 158.282 94.6337 169.882 98.6337C184.382 103.634 222.382 107.134 220.882 143.134C219.382 179.134 226.882 229.134 233.382 236.634C238.582 242.634 241.215 274.467 241.882 289.634C243.215 294.967 246.982 306.434 251.382 309.634C256.882 313.634 272.382 338.634 269.382 343.134C266.982 346.734 260.715 340.3 257.882 336.634C260.548 344.967 265.082 362.134 261.882 364.134C258.682 366.134 254.215 357.967 252.382 353.634C252.548 360.134 252.282 373.134 249.882 373.134C247.482 373.134 244.548 360.134 243.382 353.634C243.048 359.967 241.782 372.534 239.382 372.134C236.382 371.634 233.882 358.134 234.382 356.634C234.882 355.134 230.382 366.134 228.882 365.134C227.382 364.134 225.382 355.634 225.882 339.134C226.382 322.634 224.882 303.134 218.382 293.634C211.882 284.134 194.382 237.634 195.882 220.634C197.082 207.034 193.382 205.3 191.382 206.134L188.882 275.134C195.215 290.967 206.682 328.434 201.882 351.634C195.882 380.634 186.882 436.634 187.882 439.134C188.882 441.634 187.882 470.134 186.382 471.634C185.182 472.834 186.882 477.467 187.882 479.634C190.215 491.967 193.482 519.434 187.882 530.634C180.882 544.634 171.382 589.134 172.382 596.634C173.182 602.634 176.048 610.467 177.382 613.634C179.048 618.134 181.282 627.534 176.882 629.134C171.382 631.134 143.882 636.134 140.382 630.134C137.582 625.334 143.548 609.467 146.882 602.134C147.548 599.634 148.782 594.034 148.382 591.634C147.882 588.634 152.382 578.134 152.382 574.134C152.382 570.134 153.882 525.134 152.382 519.634C150.882 514.134 154.882 490.634 154.382 485.134C153.882 479.634 143.382 415.134 143.382 412.134C143.382 409.134 137.382 369.634 137.882 364.134C136.282 364.534 132.882 364.067 132.882 364.067C133.382 369.567 127.382 409.067 127.382 412.067C127.382 415.067 116.882 479.567 116.382 485.067C115.882 490.567 119.882 514.067 118.382 519.567C116.882 525.067 118.382 570.067 118.382 574.067C118.382 578.067 122.882 588.567 122.382 591.567C121.982 593.967 123.215 599.567 123.882 602.067C127.215 609.4 133.182 625.267 130.382 630.067C126.882 636.067 99.3816 631.067 93.8816 629.067C89.4816 627.467 91.7149 618.067 93.3816 613.567C94.7149 610.4 97.5816 602.567 98.3816 596.567C99.3816 589.067 89.8816 544.567 82.8816 530.567C77.2816 519.367 80.5483 491.9 82.8816 479.567C83.8816 477.4 85.5816 472.767 84.3816 471.567C82.8816 470.067 81.8816 441.567 82.8816 439.067C83.8816 436.567 74.8816 380.567 68.8816 351.567C64.0816 328.367 75.5483 290.9 81.8816 275.067L79.3816 206.067C77.3816 205.234 73.6816 206.967 74.8816 220.567C76.3816 237.567 58.8816 284.067 52.3816 293.567C45.8816 303.067 44.3816 322.567 44.8816 339.067C45.3816 355.567 43.3816 364.067 41.8816 365.067C40.3816 366.067 35.8816 355.067 36.3816 356.567C36.8816 358.067 34.3816 371.567 31.3816 372.067C28.9816 372.467 27.7149 359.9 27.3816 353.567C26.2149 360.067 23.2816 373.067 20.8816 373.067C18.4816 373.067 18.2149 360.067 18.3816 353.567C16.5483 357.9 12.0816 366.067 8.88159 364.067C5.68159 362.067 10.2149 344.9 12.8816 336.567C10.0483 340.234 3.78169 346.667 1.38169 343.067C-1.61831 338.567 13.8817 313.567 19.3817 309.567C23.7817 306.367 27.5484 294.9 28.8817 289.567C29.5484 274.4 32.1817 242.567 37.3817 236.567C43.8817 229.067 51.3816 179.067 49.8816 143.067C48.3816 107.067 86.3816 103.567 100.882 98.5669C112.482 94.5669 111.382 77.5669 109.382 69.5669C108.215 66.0669 105.482 58.7669 103.882 57.5669C101.882 56.0669 93.8816 43.5669 102.882 40.0668Z" fill="#BDD5DD" fill-opacity="0.1" stroke="#00FAEB"/>
</svg>
