<svg width="317" height="718" viewBox="0 0 317 718" fill="none" xmlns="http://www.w3.org/2000/svg">
<path d="M255 336.495C261.386 348.15 267.033 367.228 266.534 383.72C265.968 402.413 266.034 408.215 268.534 409.119C270.613 409.87 271.094 402.483 271.477 396.605C271.729 392.733 271.938 389.516 272.534 389.715C273.202 389.938 274.189 394.544 275.381 400.113C277.239 408.792 279.597 419.808 282.034 420.215C284.696 420.659 284.176 408.566 283.775 399.231C283.649 396.294 283.534 393.63 283.534 391.715C287.491 397.869 290.094 404.024 292.195 408.989C294.872 415.318 296.732 419.715 299.534 419.715C302.716 419.715 300.695 413.595 298.318 406.399C296.213 400.027 293.829 392.81 294.534 388.252C295.244 389.426 296.255 391.401 297.432 393.701L297.433 393.703C301.234 401.127 306.771 411.944 309.534 410.215C312.333 408.462 309.132 401.433 305.288 392.992C302.551 386.983 299.489 380.259 298.034 374.215C298.479 375.016 299.626 375.62 300.815 376.246C302.135 376.94 303.508 377.663 304.034 378.715C304.983 380.612 314.114 383.696 316.034 379.215C316.96 377.053 312.547 373.295 308.212 369.602C305.527 367.316 302.872 365.055 301.534 363.215C297.534 357.715 292.266 352.213 289.742 350.374C284.765 346.749 280.505 333.758 278.997 327.716C278.995 327.686 278.994 327.656 278.993 327.627L278.91 327.716C272.971 325.241 258.021 329.428 255 336.495Z" fill="#BDD5DD" fill-opacity="0.1" stroke="#00FAEB"/>
<path d="M62.1583 336.495C55.7727 348.15 50.1254 367.228 50.6243 383.72C51.1899 402.413 51.1243 408.215 48.6243 409.119C46.5451 409.87 46.0642 402.483 45.6816 396.605C45.4295 392.733 45.2201 389.516 44.6243 389.715C43.9558 389.938 42.9696 394.544 41.7774 400.113C39.9193 408.792 37.5608 419.808 35.1243 420.215C32.462 420.659 32.982 408.566 33.3835 399.231C33.5098 396.294 33.6243 393.63 33.6243 391.715C29.6677 397.869 27.064 404.024 24.9635 408.989C22.2861 415.318 20.4262 419.715 17.6243 419.715C14.4423 419.715 16.4636 413.595 18.8403 406.399C20.9452 400.027 23.3288 392.81 22.6243 388.252C21.9146 389.426 20.9037 391.401 19.7259 393.701L19.725 393.703C15.9246 401.127 10.3874 411.944 7.62433 410.215C4.8248 408.462 8.02622 401.433 11.8705 392.992C14.6069 386.983 17.6689 380.259 19.1243 374.215C18.679 375.016 17.5325 375.62 16.3431 376.246C15.0232 376.94 13.6503 377.663 13.1243 378.715C12.1757 380.612 3.04477 383.696 1.12433 379.215C0.197953 377.053 4.61128 373.295 8.94663 369.602C11.6311 367.316 14.2859 365.055 15.6243 363.215C19.6243 357.715 24.8922 352.213 27.416 350.374C32.3929 346.749 36.6534 333.758 38.1615 327.716C38.1628 327.686 38.1641 327.656 38.1654 327.627L38.2486 327.716C44.1869 325.241 59.1368 329.428 62.1583 336.495Z" fill="#BDD5DD" fill-opacity="0.1" stroke="#00FAEB"/>
<path d="M223.327 119.237C223.327 119.237 233.827 143.237 227.327 166.237C226.494 168.237 224.527 172.337 223.327 172.737C226.101 182.793 224.656 209.201 222.6 228.447C222.714 227.603 222.824 226.755 222.931 225.905C222.282 232.276 223.746 236.313 225.084 240.005C226.19 243.054 227.21 245.867 226.884 249.565C225.187 268.825 244.982 321.506 252.334 332.269C253.2 333.537 254.066 334.96 254.918 336.517C257.94 329.45 272.89 325.263 278.828 327.738L278.937 327.825L278.915 327.737C278.161 310.555 275.452 278.737 269.301 267.692C263.833 257.876 253.465 202.549 255.162 161.764C256.224 136.223 239.766 125.122 223.287 119L223.327 119.237Z" fill="#BDD5DD" fill-opacity="0.1" stroke="#00FAEB"/>
<path d="M93.6097 119.237C93.6097 119.237 83.1097 143.237 89.6097 166.237C90.4431 168.237 92.4097 172.337 93.6097 172.737C90.8357 182.793 92.281 209.201 94.3372 228.447C94.2232 227.603 94.1127 226.755 94.0057 225.905C94.6548 232.276 93.1911 236.313 91.8525 240.005C90.747 243.054 89.7269 245.867 90.0527 249.565C91.7493 268.825 71.9549 321.506 64.6027 332.269C63.7368 333.537 62.8711 334.96 62.0186 336.517C58.9971 329.45 44.0472 325.263 38.109 327.738L38 327.825L38.0219 327.737C38.7759 310.555 41.4847 278.737 47.6363 267.692C53.1038 257.876 63.4717 202.549 61.775 161.764C60.7126 136.223 77.1703 125.122 93.6497 119L93.6097 119.237Z" fill="#BDD5DD" fill-opacity="0.1" stroke="#00FAEB"/>
<path d="M133.349 79.2699C146.781 104.145 169.619 104.269 183.638 79.6424C181.852 89.083 184.891 107.028 197.496 111.382C199.991 112.244 203.102 113.066 206.577 113.985C211.735 115.349 217.696 116.925 223.639 119.157C224.512 121.231 233.772 144.072 227.574 166.004C226.741 168.004 224.774 172.104 223.574 172.504C226.347 182.558 224.904 208.956 222.848 228.2C222.961 227.361 223.071 226.518 223.178 225.673C223.136 226.083 223.094 226.49 223.052 226.894C222.963 227.754 222.876 228.597 222.797 229.421C222.779 228.339 222.825 227.184 222.952 225.939C222.532 229.273 222.058 232.57 221.533 235.77C216.799 264.606 216.059 284.075 218.987 311.343C219.614 314.984 220.755 319.978 222.094 325.832L222.095 325.839C222.601 328.052 223.135 330.388 223.68 332.821C172.764 348.117 144.085 348.457 93.2494 332.893C93.7995 330.436 94.3388 328.077 94.8494 325.844L94.852 325.832C96.1902 319.978 97.3318 314.984 97.9586 311.343C100.886 284.075 100.147 264.606 95.4128 235.77C94.8876 232.57 94.4135 229.273 93.9939 225.939C94.1922 227.885 94.1933 229.614 94.0609 231.182C93.9459 229.812 93.7979 228.378 93.6448 226.894C93.6032 226.49 93.5612 226.083 93.5194 225.673C93.6257 226.518 93.7356 227.361 93.8488 228.2C91.7935 208.956 90.3496 182.558 93.123 172.504C91.923 172.104 89.9563 168.004 89.123 166.004C83.0209 144.413 91.901 121.939 93.0112 119.269C99.0515 116.977 105.125 115.372 110.368 113.985C113.843 113.066 116.954 112.244 119.45 111.382C132.253 106.96 135.187 88.5147 133.22 79.2031L133.349 79.2699Z" fill="#BDD5DD" fill-opacity="0.1"/>
<path d="M223.574 172.504C224.774 172.104 226.741 168.004 227.574 166.004C233.772 144.072 224.512 121.231 223.639 119.157C217.696 116.925 211.735 115.349 206.577 113.985C203.102 113.066 199.991 112.244 197.496 111.382C184.891 107.028 181.852 89.083 183.638 79.6424C169.619 104.269 146.781 104.145 133.349 79.2699L133.22 79.2031C135.187 88.5147 132.253 106.96 119.45 111.382C116.954 112.244 113.843 113.066 110.368 113.985C105.125 115.372 99.0515 116.977 93.0112 119.269C91.901 121.939 83.0209 144.413 89.123 166.004C89.9563 168.004 91.923 172.104 93.123 172.504M223.574 172.504C226.347 182.558 224.904 208.956 222.848 228.2C222.961 227.361 223.071 226.518 223.178 225.673C223.136 226.083 223.094 226.49 223.052 226.894C222.963 227.754 222.876 228.597 222.797 229.421C222.779 228.339 222.825 227.184 222.952 225.939C222.532 229.273 222.058 232.57 221.533 235.77C216.799 264.606 216.059 284.075 218.987 311.343C219.614 314.984 220.755 319.978 222.094 325.832L222.095 325.839C222.601 328.052 223.135 330.388 223.68 332.821C172.764 348.117 144.085 348.457 93.2494 332.893C93.7995 330.436 94.3388 328.077 94.8494 325.844L94.852 325.832C96.1902 319.978 97.3318 314.984 97.9586 311.343C100.886 284.075 100.147 264.606 95.4128 235.77C94.8876 232.57 94.4135 229.273 93.9939 225.939C94.1922 227.885 94.1933 229.614 94.0609 231.182C93.9459 229.812 93.7979 228.378 93.6448 226.894C93.6032 226.49 93.5612 226.083 93.5194 225.673C93.6257 226.518 93.7356 227.361 93.8488 228.2C91.7935 208.956 90.3496 182.558 93.123 172.504M223.574 172.504L223.575 172.504M93.123 172.504L93.1216 172.504M222.899 226.27C223.399 222.27 226.949 189.97 223.349 172.77C225.849 170.27 226.849 168.27 227.349 165.77M94.0223 226.27C93.5223 222.27 89.9725 189.97 93.5725 172.77C91.0725 170.27 90.0725 168.27 89.5725 165.77" stroke="#00FAEB"/>
<path d="M191.968 53.6259C192.642 49.2192 193.178 45.7196 193.617 45.5L193.635 45.3878C193.591 45.3701 193.547 45.3527 193.503 45.3354C199.837 7.72221 174.012 1 158.742 1C143.472 1 117.647 7.72221 123.981 45.3354C123.897 45.3682 123.814 45.4017 123.733 45.4358L123.743 45.5C124.182 45.7196 124.718 49.2192 125.392 53.6259C126.237 59.1454 127.3 66.0879 128.664 69.7903C130.574 72.7828 132.576 76.4798 133.333 78.7569C133.394 79.0001 133.451 79.2506 133.504 79.508L133.618 79.5C147.05 104.375 169.888 104.499 183.907 79.8725C183.981 79.4859 184.062 79.1135 184.151 78.7569C184.886 76.5472 186.793 73.0003 188.651 70.0577L188.617 70C190.019 66.3551 191.106 59.2514 191.968 53.6259Z" fill="#BDD5DD" fill-opacity="0.1" stroke="#00FAEB"/>
<path d="M166.5 51.9997C168.5 48.5 176.8 45.5997 180 51.9997C178 55.4991 170 54.9991 166.5 51.9997Z" fill="#BDD5DD" fill-opacity="0.1" stroke="#00FAEB"/>
<path d="M151.5 51.7887C149.5 48.2891 141.2 45.3887 138 51.7887C140 55.2882 148 54.7882 151.5 51.7887Z" fill="#BDD5DD" fill-opacity="0.1" stroke="#00FAEB"/>
<path d="M159.001 78.9999C163.5 77.5003 165.501 79.0004 170 80.5011C167.61 82.8891 162.847 84.0003 159.5 84.0003C155.716 84.0003 151.178 83.1763 148.5 80.5018C152 79.0021 154.5 77.5014 159.001 78.9999Z" fill="#BDD5DD" fill-opacity="0.1" stroke="#00FAEB"/>
<path d="M191.85 53.7379C192.525 49.3313 193.061 45.8316 193.5 45.612L193.518 45.5C203.486 49.5364 194.507 63.5819 192.254 65.2738C191.453 65.8757 190.009 67.8318 188.533 70.1693L188.5 70.112C189.902 66.4672 190.989 59.3634 191.85 53.7379Z" fill="#BDD5DD" fill-opacity="0.1" stroke="#00FAEB"/>
<path d="M125.509 53.738C124.834 49.3314 124.299 45.8318 123.859 45.6121L123.842 45.5C113.873 49.5363 122.853 63.5819 125.105 65.2739C125.906 65.8758 127.35 67.8321 128.826 70.1696L128.859 70.1121C127.458 66.4673 126.37 59.3635 125.509 53.738Z" fill="#BDD5DD" fill-opacity="0.1" stroke="#00FAEB"/>
<path d="M177.447 653.5C177.012 655.582 176.23 658.16 175.456 660.711C174.206 664.832 172.978 668.881 173.271 670.644C173.723 673.363 172.328 679.708 171.574 682.54C167.804 690.848 161.055 708.824 164.222 714.262C168.181 721.06 199.286 715.395 205.507 713.129C210.484 711.316 207.958 700.667 206.073 695.569C204.565 691.981 201.322 683.106 200.417 676.309C200.121 674.086 200.713 669.211 201.833 662.919C193.227 656.546 187.795 654.486 177.447 653.5Z" fill="#BDD5DD" fill-opacity="0.1" stroke="#00FAEB"/>
<path d="M139.753 653.5C140.189 655.582 140.971 658.16 141.744 660.711C142.995 664.832 144.223 668.881 143.93 670.644C143.477 673.363 144.872 679.708 145.626 682.54C149.397 690.848 156.146 708.824 152.978 714.262C149.02 721.06 117.914 715.395 111.693 713.129C106.716 711.316 109.242 700.667 111.127 695.569C112.636 691.981 115.878 683.106 116.783 676.309C117.079 674.086 116.488 669.211 115.367 662.919C123.974 656.546 129.406 654.486 139.753 653.5Z" fill="#BDD5DD" fill-opacity="0.1" stroke="#00FAEB"/>
<path d="M161.434 413.143L227.434 352.143L227.546 352C230.532 368.287 232.482 385.782 229.775 398.885C225.794 418.159 225.376 439.061 224.98 458.84C224.702 472.777 224.434 486.156 222.939 498.016C222.8 499.125 222.352 501.261 221.764 504.065L221.764 504.066C219.616 514.32 215.599 533.491 217.939 543.9C220.921 557.157 221.056 585.643 215.939 603.679C212.367 616.271 204.986 645.309 201.823 663.063C193.216 656.69 187.785 654.629 177.437 653.644C177.654 652.604 177.785 651.688 177.785 650.962C177.785 650.072 177.851 647.393 177.943 643.613L177.943 643.603L177.943 643.6C178.321 628.119 179.148 594.224 177.785 589.217C176.803 585.609 177.906 575.836 178.899 567.036C179.621 560.638 180.285 554.755 180.047 552.131C179.786 549.25 177.105 531.647 174.299 513.218L174.298 513.212L174.298 513.207C171.036 491.787 167.605 469.254 167.605 467.427C167.605 466.193 166.71 459.507 165.598 451.193C163.668 436.77 161.082 417.447 161.373 413.184L161.434 413.143Z" fill="#BDD5DD" fill-opacity="0.1" stroke="#00FAEB"/>
<path d="M155.766 413.143L89.766 352.143L89.6561 352.002C86.67 368.289 84.7208 385.783 87.4273 398.885C91.4087 418.16 91.8264 439.061 92.2218 458.84C92.5003 472.777 92.7678 486.156 94.2628 498.017C94.4025 499.125 94.8503 501.262 95.4378 504.065L95.438 504.066C97.5865 514.32 101.604 533.491 99.2628 543.9C96.2817 557.157 96.146 585.643 101.263 603.679C104.835 616.271 112.216 645.309 115.379 663.063C123.986 656.69 129.417 654.629 139.765 653.644C139.548 652.604 139.417 651.688 139.417 650.962C139.417 650.072 139.352 647.393 139.259 643.613L139.259 643.603L139.259 643.6C138.881 628.119 138.054 594.224 139.417 589.217C140.399 585.609 139.296 575.836 138.303 567.036C137.581 560.638 136.917 554.755 137.155 552.131C137.416 549.25 140.097 531.647 142.903 513.218L142.904 513.212L142.905 513.207C146.166 491.787 149.597 469.254 149.597 467.427C149.597 466.193 150.492 459.507 151.604 451.193C153.534 436.772 156.12 417.451 155.829 413.185L155.766 413.143Z" fill="#BDD5DD" fill-opacity="0.1" stroke="#00FAEB"/>
<path d="M223.795 333C172.878 348.296 144.2 348.636 93.3639 333.072C92.0224 339.063 90.6158 345.635 89.4004 352.393L89.4634 352.449L155.89 412.383C156.621 412.54 157.63 412.557 158.587 412.52C159.603 412.559 160.678 412.538 161.415 412.353C161.411 412.394 161.408 412.438 161.405 412.482L161.463 412.449L227.463 351.449L227.588 351.368C226.412 344.944 225.073 338.707 223.795 333Z" fill="#BDD5DD" fill-opacity="0.1" stroke="#00FAEB"/>
</svg>
