<svg width="20" height="157" viewBox="0 0 20 157" fill="none" xmlns="http://www.w3.org/2000/svg">
<path d="M19.2709 87.3643H8.41144C1.62434 99.9204 6.71461 132.91 7.05396 134.268C7.32545 135.354 4.9047 137.661 3.66039 138.679C2.75544 139.584 1.48851 141.734 3.66039 143.091C7.05396 158.362 17.063 160.45 18.3549 149.878C19.5161 140.376 19.2709 108.744 19.2709 87.3643Z" fill="#BDD5DD" fill-opacity="0.1"/>
<path d="M19.4327 83.9709C19.4328 57.8404 19.7723 11.3487 14.3423 1.16797C4.84059 18.1358 0.768067 58.5192 0.768066 76.8444C0.768066 76.8444 6.19777 75.8264 8.57326 83.9709H19.4327Z" fill="#BDD5DD" fill-opacity="0.1"/>
<path d="M19.2709 87.3643H8.41144C1.62434 99.9204 6.71461 132.91 7.05396 134.268C7.32545 135.354 4.9047 137.661 3.66039 138.679C2.75544 139.584 1.48851 141.734 3.66039 143.091C7.05396 158.362 17.063 160.45 18.3549 149.878C19.5161 140.376 19.2709 108.744 19.2709 87.3643Z" stroke="#00FAEB"/>
<path d="M19.4327 83.9709C19.4328 57.8404 19.7723 11.3487 14.3423 1.16797C4.84059 18.1358 0.768067 58.5192 0.768066 76.8444C0.768066 76.8444 6.19777 75.8264 8.57326 83.9709H19.4327Z" stroke="#00FAEB"/>
</svg>
