<svg width="25" height="105" viewBox="0 0 25 105" fill="none" xmlns="http://www.w3.org/2000/svg">
<path d="M1.41016 2.57031C1.41016 1.74189 2.08173 1.07031 2.91016 1.07031H22.9102C23.7386 1.07031 24.4102 1.74189 24.4102 2.57031V14.4503H1.41016V2.57031ZM1.41016 20.0703L24.4101 20.0703L24.4102 80.8422C24.4102 81.6707 23.7386 82.3422 22.9102 82.3422L2.91017 82.3422C2.08174 82.3422 1.41017 81.6707 1.41017 80.8422L1.41016 20.0703ZM12.7553 103.353C12.5502 103.641 12.12 103.631 11.9284 103.334L8.70427 98.3418H16.3347L12.7553 103.353ZM6.76673 95.3418L2.32641 88.4666C2.11153 88.1339 2.35037 87.6953 2.74643 87.6953H22.9671C23.3737 87.6953 23.6103 88.155 23.3739 88.4859L18.4773 95.3418H6.76673Z" fill="#BDD5DD" fill-opacity="0.1" stroke="#00FAEB"/>
</svg>
