<svg width="62" height="97" viewBox="0 0 62 97" fill="none" xmlns="http://www.w3.org/2000/svg">
<path d="M40.1361 2.00033C40.5254 1.26908 41.4338 0.991872 42.165 1.38118L59.8191 10.7798C60.5503 11.1691 60.8275 12.0775 60.4382 12.8088L54.8554 23.2953L34.5533 12.4868L40.1361 2.00033ZM3.35353 71.0911L31.9123 17.4476L52.2144 28.2561L23.6557 81.8996C23.2664 82.6308 22.358 82.908 21.6267 82.5187L3.97269 73.1201C3.24143 72.7308 2.96423 71.8224 3.35353 71.0911ZM2.78925 96.2932C2.47314 96.4503 2.09813 96.2393 2.06843 95.8875L1.56843 89.9658L8.3038 93.5515L2.78925 96.2932ZM1.26796 86.4071L0.579373 78.2517C0.546051 77.8571 0.962967 77.5822 1.31257 77.7683L19.1614 87.2707C19.5203 87.4618 19.5131 87.9787 19.149 88.1597L11.6049 91.9103L1.26796 86.4071Z" fill="#BDD5DD" fill-opacity="0.1" stroke="#00FAEB"/>
</svg>
