<svg xmlns="http://www.w3.org/2000/svg" xmlns:xlink="http://www.w3.org/1999/xlink" id="Calque_2" viewBox="0 0 117.88 225.76"><defs><radialGradient id="Dégradé_sans_nom_8" cx="91.12" cy="126.02" r="42.16" fx="91.12" fy="126.02" gradientUnits="userSpaceOnUse"><stop offset="0" stop-color="#00faeb"/><stop offset="1" stop-color="#f2e8df"/></radialGradient><radialGradient xlink:href="#Dégradé_sans_nom_8" id="Dégradé_sans_nom_8-2" cy="126.02" r="42.16" fy="126.02"/><radialGradient xlink:href="#Dégradé_sans_nom_8" id="Dégradé_sans_nom_8-3" cy="126.02" r="42.16" fy="126.02"/><radialGradient xlink:href="#Dégradé_sans_nom_8" id="Dégradé_sans_nom_8-4" cx="91.12" cy="126.02" r="42.16" fx="91.12" fy="126.02"/><radialGradient xlink:href="#Dégradé_sans_nom_8" id="Dégradé_sans_nom_8-5" cy="126.02" r="42.16" fy="126.02"/><radialGradient xlink:href="#Dégradé_sans_nom_8" id="Dégradé_sans_nom_8-6" cx="91.12" cy="126.02" r="42.16" fx="91.12" fy="126.02"/><radialGradient xlink:href="#Dégradé_sans_nom_8" id="Dégradé_sans_nom_8-7" cy="126.02" r="42.16" fy="126.02" gradientTransform="rotate(11.54 80.44 109.441)"/><radialGradient xlink:href="#Dégradé_sans_nom_8" id="Dégradé_sans_nom_8-8" cy="126.02" r="42.16" fy="126.02"/><radialGradient xlink:href="#Dégradé_sans_nom_8" id="Dégradé_sans_nom_8-9" cy="126.02" r="42.16" fy="126.02"/><radialGradient xlink:href="#Dégradé_sans_nom_8" id="Dégradé_sans_nom_8-10" cy="126.02" r="42.16" fy="126.02"/><radialGradient xlink:href="#Dégradé_sans_nom_8" id="Dégradé_sans_nom_8-11" cx="91.12" cy="126.02" r="42.16" fx="91.12" fy="126.02"/><radialGradient xlink:href="#Dégradé_sans_nom_8" id="Dégradé_sans_nom_8-12" cx="91.12" cy="126.02" r="42.16" fx="91.12" fy="126.02"/><radialGradient xlink:href="#Dégradé_sans_nom_8" id="Dégradé_sans_nom_8-13" cx="26.68" cy="127.61" r="42.16" fx="26.68" fy="127.61"/><radialGradient xlink:href="#Dégradé_sans_nom_8" id="Dégradé_sans_nom_8-14" cx="26.68" cy="127.61" r="42.16" fx="26.68" fy="127.61"/><radialGradient xlink:href="#Dégradé_sans_nom_8" id="Dégradé_sans_nom_8-15" cx="26.68" cy="127.61" r="42.16" fx="26.68" fy="127.61"/><radialGradient xlink:href="#Dégradé_sans_nom_8" id="Dégradé_sans_nom_8-16" cx="26.68" cy="127.61" r="42.16" fx="26.68" fy="127.61" gradientTransform="rotate(40.46 18.393 96.995)"/><radialGradient xlink:href="#Dégradé_sans_nom_8" id="Dégradé_sans_nom_8-17" cx="26.68" cy="127.61" r="42.16" fx="26.68" fy="127.61"/><radialGradient xlink:href="#Dégradé_sans_nom_8" id="Dégradé_sans_nom_8-18" cx="26.68" cy="127.61" r="42.16" fx="26.68" fy="127.61"/><radialGradient xlink:href="#Dégradé_sans_nom_8" id="Dégradé_sans_nom_8-19" cx="26.68" cy="127.61" r="42.16" fx="26.68" fy="127.61" gradientTransform="rotate(40.46 34.949 110.264)"/><radialGradient xlink:href="#Dégradé_sans_nom_8" id="Dégradé_sans_nom_8-20" cx="26.68" cy="127.61" r="42.16" fx="26.68" fy="127.61"/><radialGradient xlink:href="#Dégradé_sans_nom_8" id="Dégradé_sans_nom_8-21" cx="26.68" cy="127.61" r="42.16" fx="26.68" fy="127.61"/><radialGradient xlink:href="#Dégradé_sans_nom_8" id="Dégradé_sans_nom_8-22" cx="26.68" cy="127.61" r="42.16" fx="26.68" fy="127.61" gradientTransform="rotate(3.78 36.758 93.44)"/><radialGradient xlink:href="#Dégradé_sans_nom_8" id="Dégradé_sans_nom_8-23" cx="26.68" cy="127.61" r="42.16" fx="26.68" fy="127.61"/><radialGradient xlink:href="#Dégradé_sans_nom_8" id="Dégradé_sans_nom_8-24" cx="26.68" cy="127.61" r="42.16" fx="26.68" fy="127.61"/><radialGradient xlink:href="#Dégradé_sans_nom_8" id="Dégradé_sans_nom_8-25" cx="26.68" cy="127.61" r="42.16" fx="26.68" fy="127.61"/><radialGradient id="Dégradé_sans_nom_13" cx="94.26" cy="188.55" r="16.06" fx="94.26" fy="188.55" gradientUnits="userSpaceOnUse"><stop offset="0" stop-color="#03b6ac"/><stop offset="0" stop-color="#00f368"/><stop offset="0" stop-color="#03b6ac"/><stop offset=".14" stop-color="#06b6ac"/><stop offset=".26" stop-color="#12b9af"/><stop offset=".39" stop-color="#25bdb3"/><stop offset=".52" stop-color="#41c2b9"/><stop offset=".65" stop-color="#64cac0"/><stop offset=".77" stop-color="#8fd3c9"/><stop offset=".89" stop-color="#c1ddd4"/><stop offset="1" stop-color="#f2e8df"/></radialGradient><radialGradient xlink:href="#Dégradé_sans_nom_13" id="Dégradé_sans_nom_13-2" cx="94.26" cy="188.55" r="16.06" fx="94.26" fy="188.55"/><radialGradient xlink:href="#Dégradé_sans_nom_13" id="Dégradé_sans_nom_13-3" cx="94.26" cy="188.55" r="16.06" fx="94.26" fy="188.55"/><radialGradient xlink:href="#Dégradé_sans_nom_8" id="Dégradé_sans_nom_8-26" cy="126.02" r="42.16" fy="126.02"/><radialGradient xlink:href="#Dégradé_sans_nom_13" id="Dégradé_sans_nom_13-4" cy="188.55" r="16.06" fy="188.55"/><radialGradient xlink:href="#Dégradé_sans_nom_8" id="Dégradé_sans_nom_8-27" cy="126.02" r="42.16" fy="126.02"/><radialGradient xlink:href="#Dégradé_sans_nom_13" id="Dégradé_sans_nom_13-5" cy="188.55" r="16.06" fy="188.55"/><radialGradient xlink:href="#Dégradé_sans_nom_13" id="Dégradé_sans_nom_13-6" cx="23.34" cy="192.92" r="16.06" fx="23.34" fy="192.92"/><radialGradient xlink:href="#Dégradé_sans_nom_13" id="Dégradé_sans_nom_13-7" cx="23.34" cy="192.92" r="16.06" fx="23.34" fy="192.92"/><radialGradient xlink:href="#Dégradé_sans_nom_13" id="Dégradé_sans_nom_13-8" cx="23.34" cy="192.92" r="16.06" fx="23.34" fy="192.92" gradientTransform="rotate(3.78 15.51 198.804)"/><radialGradient xlink:href="#Dégradé_sans_nom_13" id="Dégradé_sans_nom_13-9" cx="23.34" cy="192.92" r="16.06" fx="23.34" fy="192.92"/><radialGradient xlink:href="#Dégradé_sans_nom_8" id="Dégradé_sans_nom_8-28" cx="26.68" cy="127.61" r="42.16" fx="26.68" fy="127.61"/><radialGradient xlink:href="#Dégradé_sans_nom_13" id="Dégradé_sans_nom_13-10" cx="23.34" cy="192.92" r="16.06" fx="23.34" fy="192.92"/><radialGradient id="Dégradé_sans_nom_56" cx="98" cy="214.96" r="14.73" fx="98" fy="214.96" gradientUnits="userSpaceOnUse"><stop offset="0" stop-color="#0fa"/><stop offset=".21" stop-color="#00faae"/><stop offset=".43" stop-color="#0eb"/><stop offset=".66" stop-color="#00dad1"/><stop offset=".9" stop-color="#00bef0"/><stop offset="1" stop-color="#00b1ff"/></radialGradient><radialGradient xlink:href="#Dégradé_sans_nom_56" id="Dégradé_sans_nom_56-2" cx="98" r="14.73" fx="98"/><radialGradient xlink:href="#Dégradé_sans_nom_56" id="Dégradé_sans_nom_56-3" cx="21.53" cy="215.62" r="14.73" fx="21.53" fy="215.62"/><radialGradient xlink:href="#Dégradé_sans_nom_56" id="Dégradé_sans_nom_56-4" cx="21.53" cy="215.62" r="14.73" fx="21.53" fy="215.62"/><radialGradient xlink:href="#Dégradé_sans_nom_56" id="Dégradé_sans_nom_56-5" cx="21.53" cy="215.62" r="14.73" fx="21.53" fy="215.62"/><radialGradient xlink:href="#Dégradé_sans_nom_13" id="Dégradé_sans_nom_13-11" cx="23.34" cy="192.92" r="16.06" fx="23.34" fy="192.92"/><radialGradient xlink:href="#Dégradé_sans_nom_56" id="Dégradé_sans_nom_56-6" cx="21.53" cy="215.62" r="14.73" fx="21.53" fy="215.62"/><radialGradient id="Dégradé_sans_nom_21" cx="56.92" cy="-8.87" r="23.7" fx="56.92" fy="-8.87" gradientUnits="userSpaceOnUse"><stop offset="0" stop-color="#00faeb"/><stop offset=".12" stop-color="#04f9ea"/><stop offset=".25" stop-color="#11f8ea"/><stop offset=".38" stop-color="#27f7e9"/><stop offset=".52" stop-color="#46f4e7"/><stop offset=".66" stop-color="#6ef1e5"/><stop offset=".8" stop-color="#9feee3"/><stop offset=".94" stop-color="#d7e9e0"/><stop offset="1" stop-color="#f2e8df"/></radialGradient><radialGradient xlink:href="#Dégradé_sans_nom_21" id="Dégradé_sans_nom_21-2" cy="-8.87" r="23.7" fy="-8.87"/><style>.cls-16{fill:#f2e8df}</style></defs><g id="jambes"><circle cx="91.23" cy="12.25" r="12.25" class="cls-16" transform="rotate(-51.18 91.232 12.246)"/><path d="M64.52 14.18a5.398 5.398 0 0 0 5.11 2.42c2.98-.32 5.13-3 4.8-5.97-.1-.96-.46-1.83-.98-2.57-2.46 2.72-5.51 4.84-8.94 6.12Z" class="cls-16"/><circle cx="13.97" cy="9.41" r="7.56" class="cls-16" transform="rotate(-40.46 13.965 9.4)"/><path d="M40.34 8.01c-2.65.94-4.67 3.31-5 6.29a7.562 7.562 0 0 0 15.03 1.67c.05-.48.06-.95.02-1.42-3.88-1.22-7.32-3.51-10.05-6.54Z" class="cls-16"/><circle cx="28.55" cy="10.57" r="3.78" class="cls-16" transform="rotate(-18.38 28.543 10.58)"/><path d="M71.5 34.78a7.56 7.56 0 1 0-1.631-15.031A7.56 7.56 0 0 0 71.5 34.78ZM73.67 52.65c4.14-.58 7.02-4.4 6.44-8.54s-4.4-7.02-8.54-6.44-7.02 4.4-6.44 8.54c.58 4.14 4.4 7.02 8.54 6.44ZM83.21 51.99a7.56 7.56 0 1 0 1.631 15.031A7.56 7.56 0 0 0 83.21 51.99ZM71.04 64.72a3.772 3.772 0 0 0 3.35-4.17 3.772 3.772 0 0 0-4.17-3.35 3.772 3.772 0 0 0-3.35 4.17 3.772 3.772 0 0 0 4.17 3.35ZM83.39 72.26c-1.47-2.68-4.47-4.32-7.68-3.87-4.14.58-7.02 4.4-6.44 8.54a7.55 7.55 0 0 0 5.09 6.11c2.46-5.25 5.53-9.01 9.03-10.79Z" class="cls-16"/><circle cx="92.28" cy="39" r="10.15" class="cls-16" transform="rotate(-71.89 92.277 38.995)"/><path d="M99.17 77.55a5.379 5.379 0 0 0 1.4-4.25c-.32-2.98-3-5.13-5.97-4.8-1.88.2-3.43 1.34-4.23 2.91 3.07.73 6.04 2.87 8.8 6.14ZM97.6 52.96a3.772 3.772 0 0 0-3.35 4.17 3.772 3.772 0 0 0 4.17 3.35 3.772 3.772 0 0 0 3.35-4.17 3.772 3.772 0 0 0-4.17-3.35ZM39.85 81.28c1.88-1.97 3.12-4.56 3.35-7.48.54-6.74-4.5-12.64-11.24-13.18s-12.64 4.5-13.18 11.24c-.12 1.55.06 3.05.48 4.46 2.68-2.45 5.57-3.79 8.57-3.72 4.49.09 8.6 3.28 12.03 8.69ZM19.22 27.08c-.33 4.16 2.78 7.81 6.94 8.14 4.16.33 7.81-2.78 8.14-6.94.33-4.16-2.78-7.81-6.94-8.14-4.16-.33-7.81 2.78-8.14 6.94Z" class="cls-16"/><circle cx="40.18" cy="28.75" r="3.78" class="cls-16" transform="rotate(-3.78 40.157 28.78)"/><circle cx="34.48" cy="43.84" r="7.56" class="cls-16" transform="rotate(-80.92 34.481 43.84)"/><circle cx="16.02" cy="42.37" r="5.42" class="cls-16" transform="rotate(-40.46 16.024 42.366)"/><path d="M13.81 63.32c2.94.53 5.77-1.42 6.3-4.36.53-2.94-1.42-5.77-4.36-6.3-2.94-.53-5.77 1.42-6.3 4.36-.53 2.94 1.42 5.77 4.36 6.3ZM12.41 29.06c2.08.17 3.9-1.39 4.07-3.47s-1.39-3.9-3.47-4.07c-2.08-.17-3.9 1.39-4.07 3.47-.17 2.08 1.39 3.9 3.47 4.07ZM37.21 57.25c-.17 2.08 1.39 3.9 3.47 4.07s3.9-1.39 4.07-3.47c.17-2.08-1.39-3.9-3.47-4.07-2.08-.17-3.9 1.39-4.07 3.47ZM12.42 77.66c-2.09 0-3.78 1.69-3.78 3.78s1.69 3.78 3.78 3.78c.13 0 .26-.03.38-.04.99-1.89 2.03-3.6 3.14-5.1a3.767 3.767 0 0 0-3.52-2.42ZM33.63 180.59c-.18-.28-.37-.56-.58-.81-.08.06-.16.12-.24.19.28.2.56.41.82.63ZM15.04 176.15c-.76-1-1.5-2.09-2.2-3.29a3.75 3.75 0 0 0 2.2 3.29ZM30.14 225.08c3.21.26 6.19-1.02 8.23-3.21-1.95 1.7-5.35 2.77-9.51 3.02.42.09.84.16 1.28.19ZM40.08 219.11c-.04.22-.12.43-.19.64.64-1.2 1.06-2.54 1.17-3.99.39-4.92-2.79-9.29-7.37-10.57a16.068 16.068 0 0 1-5.56 3.06c7.6 2.49 12.69 6.9 11.95 10.86ZM2.98 212.12c.52-2.78 3.83-4.72 8.51-5.47-.98-.6-2.11-.99-3.33-1.08-4.16-.33-7.81 2.78-8.14 6.94-.33 4.16 2.78 7.81 6.94 8.14.77.06 1.53 0 2.24-.16-4.27-2.43-6.77-5.51-6.23-8.36ZM87.02 202.87c-.83-.42-1.62-.91-2.36-1.47.57.76 1.4 1.29 2.36 1.47ZM102.32 202.69a3.781 3.781 0 0 0 3.22-2.72 16.111 16.111 0 0 1-3.67 2.72c.15 0 .3.01.45 0ZM79.31 217.61c-.58-4.12 5.08-8.44 13.2-10.51a10.02 10.02 0 0 0-6.61-1.57c-5.57.6-9.6 5.61-9 11.18.6 5.57 5.61 9.6 11.18 9 1.69-.18 3.24-.78 4.56-1.67-7.28-.22-12.81-2.69-13.34-6.43ZM109.5 205.57c-.83.09-1.62.32-2.34.65 5.33.83 9.1 3.03 9.53 6.09.42 2.97-2.41 6.05-7.06 8.31.49.04.99.04 1.5-.01a7.56 7.56 0 0 0-1.63-15.03ZM77.81 83.37c4.14-.58 7.02-4.4 6.44-8.54-.13-.93-.43-1.79-.86-2.57-3.5 1.77-6.57 5.53-9.03 10.79 1.08.36 2.25.49 3.45.33Z" class="cls-16"/><path d="M77.81 83.37c4.14-.58 7.02-4.4 6.44-8.54-.13-.93-.43-1.79-.86-2.57-3.5 1.77-6.57 5.53-9.03 10.79 1.08.36 2.25.49 3.45.33Z" style="fill:url(#Dégradé_sans_nom_8)"/><path d="M89.79 74.47c.32 2.98 3 5.13 5.97 4.8 1.36-.15 2.54-.79 3.4-1.72-2.76-3.27-5.74-5.41-8.8-6.14-.47.91-.69 1.97-.57 3.06Z" class="cls-16"/><path d="M89.79 74.47c.32 2.98 3 5.13 5.97 4.8 1.36-.15 2.54-.79 3.4-1.72-2.76-3.27-5.74-5.41-8.8-6.14-.47.91-.69 1.97-.57 3.06Z" style="fill:url(#Dégradé_sans_nom_8-2)"/><path d="M88.31 171.05a7.56 7.56 0 1 0-1.631-15.031 7.56 7.56 0 0 0 1.631 15.031Z" class="cls-16"/><path d="M88.31 171.05a7.56 7.56 0 1 0-1.631-15.031 7.56 7.56 0 0 0 1.631 15.031Z" style="fill:url(#Dégradé_sans_nom_8-3)"/><path d="M97.38 103.17a7.56 7.56 0 1 0-1.631-15.031 7.56 7.56 0 0 0 1.631 15.031Z" class="cls-16"/><path d="M97.38 103.17a7.56 7.56 0 1 0-1.631-15.031 7.56 7.56 0 0 0 1.631 15.031Z" style="fill:url(#Dégradé_sans_nom_8-4)"/><path d="M101.2 106.17c-2.98.32-5.13 3-4.8 5.97.32 2.98 3 5.13 5.97 4.8 2.98-.32 5.13-3 4.8-5.97s-3-5.13-5.97-4.8Z" class="cls-16"/><path d="M101.2 106.17c-2.98.32-5.13 3-4.8 5.97.32 2.98 3 5.13 5.97 4.8 2.98-.32 5.13-3 4.8-5.97s-3-5.13-5.97-4.8Z" style="fill:url(#Dégradé_sans_nom_8-5)"/><circle cx="95.38" cy="133.35" r="12.16" class="cls-16"/><circle cx="95.38" cy="133.35" r="12.16" style="fill:url(#Dégradé_sans_nom_8-6)"/><circle cx="80.39" cy="109.39" r="9.33" class="cls-16" transform="rotate(-11.54 80.417 109.45)"/><circle cx="80.39" cy="109.39" r="9.33" style="fill:url(#Dégradé_sans_nom_8-7)" transform="rotate(-11.54 80.417 109.45)"/><path d="M83.09 151.37a3.772 3.772 0 0 0 3.35-4.17 3.772 3.772 0 0 0-4.17-3.35 3.772 3.772 0 0 0-3.35 4.17 3.772 3.772 0 0 0 4.17 3.35Z" class="cls-16"/><path d="M83.09 151.37a3.772 3.772 0 0 0 3.35-4.17 3.772 3.772 0 0 0-4.17-3.35 3.772 3.772 0 0 0-3.35 4.17 3.772 3.772 0 0 0 4.17 3.35Z" style="fill:url(#Dégradé_sans_nom_8-8)"/><path d="M100.33 148.46c-2.98.32-5.13 3-4.8 5.97.32 2.98 3 5.13 5.97 4.8s5.13-3 4.8-5.97c-.32-2.98-3-5.13-5.97-4.8Z" class="cls-16"/><path d="M100.33 148.46c-2.98.32-5.13 3-4.8 5.97.32 2.98 3 5.13 5.97 4.8s5.13-3 4.8-5.97c-.32-2.98-3-5.13-5.97-4.8Z" style="fill:url(#Dégradé_sans_nom_8-9)"/><path d="M78.45 96.27a3.772 3.772 0 0 0 3.35-4.17 3.772 3.772 0 0 0-4.17-3.35 3.772 3.772 0 0 0-3.35 4.17 3.772 3.772 0 0 0 4.17 3.35Z" class="cls-16"/><path d="M78.45 96.27a3.772 3.772 0 0 0 3.35-4.17 3.772 3.772 0 0 0-4.17-3.35 3.772 3.772 0 0 0-3.35 4.17 3.772 3.772 0 0 0 4.17 3.35Z" style="fill:url(#Dégradé_sans_nom_8-10)"/><path d="M81.52 126.41a3.772 3.772 0 0 0-4.17-3.35 3.772 3.772 0 0 0-3.35 4.17 3.772 3.772 0 0 0 4.17 3.35 3.772 3.772 0 0 0 3.35-4.17Z" class="cls-16"/><path d="M81.52 126.41a3.772 3.772 0 0 0-4.17-3.35 3.772 3.772 0 0 0-3.35 4.17 3.772 3.772 0 0 0 4.17 3.35 3.772 3.772 0 0 0 3.35-4.17Z" style="fill:url(#Dégradé_sans_nom_8-11)"/><path d="M104.28 170.89a3.772 3.772 0 0 0-4.17-3.35 3.772 3.772 0 0 0-3.35 4.17c.04.37.15.71.28 1.04 1.88.33 3.64.98 5.23 1.9a3.79 3.79 0 0 0 2.01-3.75Z" class="cls-16"/><path d="M104.28 170.89a3.772 3.772 0 0 0-4.17-3.35 3.772 3.772 0 0 0-3.35 4.17c.04.37.15.71.28 1.04 1.88.33 3.64.98 5.23 1.9a3.79 3.79 0 0 0 2.01-3.75Z" style="fill:url(#Dégradé_sans_nom_8-12)"/><path d="M30.02 85.04c3.82.3 7.37-1.19 9.83-3.76-3.42-5.41-7.54-8.59-12.03-8.69-3-.06-5.89 1.27-8.57 3.72 1.4 4.71 5.57 8.31 10.76 8.72Z" class="cls-16"/><path d="M30.02 85.04c3.82.3 7.37-1.19 9.83-3.76-3.42-5.41-7.54-8.59-12.03-8.69-3-.06-5.89 1.27-8.57 3.72 1.4 4.71 5.57 8.31 10.76 8.72Z" style="fill:url(#Dégradé_sans_nom_8-13)"/><path d="M16.2 81.44c0-.48-.1-.93-.26-1.36-1.1 1.5-2.15 3.21-3.14 5.1 1.9-.2 3.4-1.79 3.4-3.74Z" class="cls-16"/><path d="M16.2 81.44c0-.48-.1-.93-.26-1.36-1.1 1.5-2.15 3.21-3.14 5.1 1.9-.2 3.4-1.79 3.4-3.74Z" style="fill:url(#Dégradé_sans_nom_8-14)"/><path d="M29.99 157.05c-4.16-.33-7.81 2.78-8.14 6.94-.33 4.16 2.78 7.81 6.94 8.14 4.16.33 7.81-2.78 8.14-6.94.33-4.16-2.78-7.81-6.94-8.14Z" class="cls-16"/><path d="M29.99 157.05c-4.16-.33-7.81 2.78-8.14 6.94-.33 4.16 2.78 7.81 6.94 8.14 4.16.33 7.81-2.78 8.14-6.94.33-4.16-2.78-7.81-6.94-8.14Z" style="fill:url(#Dégradé_sans_nom_8-15)"/><circle cx="18.39" cy="96.99" r="7.56" class="cls-16" transform="rotate(-40.46 18.393 96.99)"/><circle cx="18.39" cy="96.99" r="7.56" style="fill:url(#Dégradé_sans_nom_8-16)" transform="rotate(-40.46 18.393 96.99)"/><path d="M13.2 118.45c2.98.24 5.59-1.99 5.83-4.97.24-2.98-1.99-5.59-4.97-5.83-2.98-.24-5.59 1.99-5.83 4.97s1.99 5.59 4.97 5.83Z" class="cls-16"/><path d="M13.2 118.45c2.98.24 5.59-1.99 5.83-4.97.24-2.98-1.99-5.59-4.97-5.83-2.98-.24-5.59 1.99-5.83 4.97s1.99 5.59 4.97 5.83Z" style="fill:url(#Dégradé_sans_nom_8-17)"/><path d="M19.68 146.76c6.69.53 12.55-4.46 13.08-11.16.53-6.69-4.46-12.55-11.16-13.08s-12.55 4.46-13.08 11.16c-.53 6.69 4.46 12.55 11.16 13.08Z" class="cls-16"/><path d="M19.68 146.76c6.69.53 12.55-4.46 13.08-11.16.53-6.69-4.46-12.55-11.16-13.08s-12.55 4.46-13.08 11.16c-.53 6.69 4.46 12.55 11.16 13.08Z" style="fill:url(#Dégradé_sans_nom_8-18)"/><circle cx="34.95" cy="110.27" r="9.33" class="cls-16" transform="rotate(-40.46 34.94 110.254)"/><circle cx="34.95" cy="110.27" r="9.33" style="fill:url(#Dégradé_sans_nom_8-19)" transform="rotate(-40.46 34.94 110.254)"/><path d="M34.05 144.76c-2.08-.17-3.9 1.39-4.07 3.47-.17 2.08 1.39 3.9 3.47 4.07s3.9-1.39 4.07-3.47-1.39-3.9-3.47-4.07Z" class="cls-16"/><path d="M34.05 144.76c-2.08-.17-3.9 1.39-4.07 3.47-.17 2.08 1.39 3.9 3.47 4.07s3.9-1.39 4.07-3.47-1.39-3.9-3.47-4.07Z" style="fill:url(#Dégradé_sans_nom_8-20)"/><path d="M16.14 149.89c-2.98-.24-5.59 1.99-5.83 4.97-.24 2.98 1.99 5.59 4.97 5.83 2.98.24 5.59-1.99 5.83-4.97.24-2.98-1.99-5.59-4.97-5.83Z" class="cls-16"/><path d="M16.14 149.89c-2.98-.24-5.59 1.99-5.83 4.97-.24 2.98 1.99 5.59 4.97 5.83 2.98.24 5.59-1.99 5.83-4.97.24-2.98-1.99-5.59-4.97-5.83Z" style="fill:url(#Dégradé_sans_nom_8-21)"/><circle cx="36.81" cy="93.32" r="3.78" class="cls-16" transform="rotate(-3.78 36.815 93.288)"/><circle cx="36.81" cy="93.32" r="3.78" style="fill:url(#Dégradé_sans_nom_8-22)" transform="rotate(-3.78 36.815 93.288)"/><path d="M27.84 177.07c-.56-.04-1.12-.02-1.66.05 2.45.44 4.7 1.43 6.63 2.84.08-.06.16-.12.24-.19a7.529 7.529 0 0 0-5.22-2.71Z" class="cls-16"/><path d="M27.84 177.07c-.56-.04-1.12-.02-1.66.05 2.45.44 4.7 1.43 6.63 2.84.08-.06.16-.12.24-.19a7.529 7.529 0 0 0-5.22-2.71Z" style="fill:url(#Dégradé_sans_nom_8-23)"/><path d="M38.37 123.84c-2.08-.17-3.9 1.39-4.07 3.47-.17 2.08 1.39 3.9 3.47 4.07s3.9-1.39 4.07-3.47-1.39-3.9-3.47-4.07Z" class="cls-16"/><path d="M38.37 123.84c-2.08-.17-3.9 1.39-4.07 3.47-.17 2.08 1.39 3.9 3.47 4.07s3.9-1.39 4.07-3.47-1.39-3.9-3.47-4.07Z" style="fill:url(#Dégradé_sans_nom_8-24)"/><path d="M20.37 173.02c.17-2.08-1.39-3.9-3.47-4.07s-3.9 1.39-4.07 3.47c-.01.15 0 .29 0 .44.7 1.2 1.44 2.29 2.2 3.29.39.18.81.3 1.26.34 2.08.17 3.9-1.39 4.07-3.47Z" class="cls-16"/><path d="M20.37 173.02c.17-2.08-1.39-3.9-3.47-4.07s-3.9 1.39-4.07 3.47c-.01.15 0 .29 0 .44.7 1.2 1.44 2.29 2.2 3.29.39.18.81.3 1.26.34 2.08.17 3.9-1.39 4.07-3.47Z" style="fill:url(#Dégradé_sans_nom_8-25)"/><path d="M82.71 184.29a7.56 7.56 0 0 0 15.03-1.63c-.08-.77-.28-1.5-.57-2.18-.74.23-1.49.38-2.26.43-3.11.21-6.18-1.08-9.07-3.59a7.568 7.568 0 0 0-3.13 6.97Z" class="cls-16"/><path d="M82.71 184.29a7.56 7.56 0 0 0 15.03-1.63c-.08-.77-.28-1.5-.57-2.18-.74.23-1.49.38-2.26.43-3.11.21-6.18-1.08-9.07-3.59a7.568 7.568 0 0 0-3.13 6.97Z" style="fill:url(#Dégradé_sans_nom_13)"/><path d="M88.1 202.93a3.772 3.772 0 0 0 3.35-4.17 3.772 3.772 0 0 0-4.17-3.35 3.772 3.772 0 0 0-3.35 4.17c.07.69.34 1.31.73 1.83.74.55 1.53 1.04 2.36 1.47.35.06.71.1 1.08.06Z" class="cls-16"/><path d="M88.1 202.93a3.772 3.772 0 0 0 3.35-4.17 3.772 3.772 0 0 0-4.17-3.35 3.772 3.772 0 0 0-3.35 4.17c.07.69.34 1.31.73 1.83.74.55 1.53 1.04 2.36 1.47.35.06.71.1 1.08.06Z" style="fill:url(#Dégradé_sans_nom_13-2)"/><path d="M105.67 198.52a3.772 3.772 0 0 0-4.17-3.35 3.772 3.772 0 0 0-3.35 4.17c.21 1.92 1.83 3.33 3.72 3.36 1.35-.73 2.59-1.65 3.67-2.72.13-.46.18-.94.13-1.45Z" class="cls-16"/><path d="M105.67 198.52a3.772 3.772 0 0 0-4.17-3.35 3.772 3.772 0 0 0-3.35 4.17c.21 1.92 1.83 3.33 3.72 3.36 1.35-.73 2.59-1.65 3.67-2.72.13-.46.18-.94.13-1.45Z" style="fill:url(#Dégradé_sans_nom_13-3)"/><path d="M94.91 180.91c.77-.05 1.52-.2 2.26-.43a7.556 7.556 0 0 0-7.76-4.52c-1.34.14-2.55.63-3.58 1.37 2.89 2.51 5.96 3.8 9.07 3.59Z" class="cls-16"/><path d="M94.91 180.91c.77-.05 1.52-.2 2.26-.43a7.556 7.556 0 0 0-7.76-4.52c-1.34.14-2.55.63-3.58 1.37 2.89 2.51 5.96 3.8 9.07 3.59Z" style="fill:url(#Dégradé_sans_nom_8-26)"/><path d="M94.91 180.91c.77-.05 1.52-.2 2.26-.43a7.556 7.556 0 0 0-7.76-4.52c-1.34.14-2.55.63-3.58 1.37 2.89 2.51 5.96 3.8 9.07 3.59Z" style="fill:url(#Dégradé_sans_nom_13-4)"/><path d="M100.92 175.06c.49-.05.94-.2 1.35-.42-1.59-.92-3.35-1.57-5.23-1.9.63 1.51 2.18 2.5 3.88 2.32Z" class="cls-16"/><path d="M100.92 175.06c.49-.05.94-.2 1.35-.42-1.59-.92-3.35-1.57-5.23-1.9.63 1.51 2.18 2.5 3.88 2.32Z" style="fill:url(#Dégradé_sans_nom_8-27)"/><path d="M100.92 175.06c.49-.05.94-.2 1.35-.42-1.59-.92-3.35-1.57-5.23-1.9.63 1.51 2.18 2.5 3.88 2.32Z" style="fill:url(#Dégradé_sans_nom_13-5)"/><path d="M25.52 182.62c-1.73-.04-3.41-.55-5.02-1.46-.44.86-.73 1.82-.81 2.85-.33 4.16 2.78 7.81 6.94 8.14 4.16.33 7.81-2.78 8.14-6.94.13-1.69-.3-3.28-1.14-4.61-.26-.22-.54-.42-.82-.63-2.31 1.76-4.76 2.71-7.29 2.65Z" class="cls-16"/><path d="M25.52 182.62c-1.73-.04-3.41-.55-5.02-1.46-.44.86-.73 1.82-.81 2.85-.33 4.16 2.78 7.81 6.94 8.14 4.16.33 7.81-2.78 8.14-6.94.13-1.69-.3-3.28-1.14-4.61-.26-.22-.54-.42-.82-.63-2.31 1.76-4.76 2.71-7.29 2.65Z" style="fill:url(#Dégradé_sans_nom_13-6)"/><path d="M30.08 194.77c-2.08-.17-3.9 1.39-4.07 3.47s1.39 3.9 3.47 4.07c2.08.17 3.9-1.39 4.07-3.47.17-2.08-1.39-3.9-3.47-4.07Z" class="cls-16"/><path d="M30.08 194.77c-2.08-.17-3.9 1.39-4.07 3.47s1.39 3.9 3.47 4.07c2.08.17 3.9-1.39 4.07-3.47.17-2.08-1.39-3.9-3.47-4.07Z" style="fill:url(#Dégradé_sans_nom_13-7)"/><circle cx="15.56" cy="198.71" r="3.78" class="cls-16" transform="rotate(-3.78 15.587 198.768)"/><circle cx="15.56" cy="198.71" r="3.78" style="fill:url(#Dégradé_sans_nom_13-8)" transform="rotate(-3.78 15.587 198.768)"/><path d="M24.37 207.23c1.31.29 2.57.63 3.76 1.02 2.06-.64 3.94-1.7 5.56-3.06-.62-.17-1.27-.3-1.94-.35-2.79-.22-5.4.71-7.38 2.39Z" class="cls-16"/><path d="M24.37 207.23c1.31.29 2.57.63 3.76 1.02 2.06-.64 3.94-1.7 5.56-3.06-.62-.17-1.27-.3-1.94-.35-2.79-.22-5.4.71-7.38 2.39Z" style="fill:url(#Dégradé_sans_nom_13-9)"/><path d="M20.5 181.16c1.61.91 3.28 1.42 5.02 1.46 2.53.05 4.98-.89 7.29-2.65a15.89 15.89 0 0 0-6.63-2.84 7.539 7.539 0 0 0-5.67 4.04Z" class="cls-16"/><path d="M20.5 181.16c1.61.91 3.28 1.42 5.02 1.46 2.53.05 4.98-.89 7.29-2.65a15.89 15.89 0 0 0-6.63-2.84 7.539 7.539 0 0 0-5.67 4.04Z" style="fill:url(#Dégradé_sans_nom_8-28)"/><path d="M20.5 181.16c1.61.91 3.28 1.42 5.02 1.46 2.53.05 4.98-.89 7.29-2.65a15.89 15.89 0 0 0-6.63-2.84 7.539 7.539 0 0 0-5.67 4.04Z" style="fill:url(#Dégradé_sans_nom_13-10)"/><path d="M97.08 214.52a10.11 10.11 0 0 0-4.57-7.42c-8.12 2.07-13.79 6.39-13.2 10.51.53 3.74 6.05 6.2 13.34 6.43 3.03-2.04 4.86-5.64 4.44-9.52Z" class="cls-16"/><path d="M97.08 214.52a10.11 10.11 0 0 0-4.57-7.42c-8.12 2.07-13.79 6.39-13.2 10.51.53 3.74 6.05 6.2 13.34 6.43 3.03-2.04 4.86-5.64 4.44-9.52Z" style="fill:url(#Dégradé_sans_nom_56)"/><path d="M116.69 212.31c-.43-3.06-4.2-5.26-9.53-6.09-2.87 1.32-4.72 4.36-4.36 7.68.39 3.64 3.32 6.4 6.83 6.72 4.66-2.26 7.48-5.34 7.06-8.31Z" class="cls-16"/><path d="M116.69 212.31c-.43-3.06-4.2-5.26-9.53-6.09-2.87 1.32-4.72 4.36-4.36 7.68.39 3.64 3.32 6.4 6.83 6.72 4.66-2.26 7.48-5.34 7.06-8.31Z" style="fill:url(#Dégradé_sans_nom_56-2)"/><path d="M39.89 219.75c-.41.77-.93 1.48-1.52 2.12.71-.62 1.23-1.33 1.52-2.12Z" style="fill:url(#Dégradé_sans_nom_56-3)"/><path d="M28.13 208.25a16.1 16.1 0 0 1-4.79.73c-.19 0-.37-.02-.56-.03a9.999 9.999 0 0 0-1.95 5.21c-.41 5.15 3.1 9.7 8.03 10.73 4.16-.25 7.56-1.32 9.51-3.02.59-.63 1.1-1.34 1.52-2.12.08-.21.15-.42.19-.64.75-3.96-4.35-8.36-11.95-10.86Z" class="cls-16"/><path d="M28.13 208.25a16.1 16.1 0 0 1-4.79.73c-.19 0-.37-.02-.56-.03a9.999 9.999 0 0 0-1.95 5.21c-.41 5.15 3.1 9.7 8.03 10.73 4.16-.25 7.56-1.32 9.51-3.02.59-.63 1.1-1.34 1.52-2.12.08-.21.15-.42.19-.64.75-3.96-4.35-8.36-11.95-10.86Z" style="fill:url(#Dégradé_sans_nom_56-4)"/><path d="M15.1 213.7a7.545 7.545 0 0 0-3.61-7.05c-4.69.75-7.99 2.69-8.51 5.47-.54 2.85 1.96 5.93 6.23 8.36 3.16-.7 5.62-3.39 5.89-6.78Z" class="cls-16"/><path d="M15.1 213.7a7.545 7.545 0 0 0-3.61-7.05c-4.69.75-7.99 2.69-8.51 5.47-.54 2.85 1.96 5.93 6.23 8.36 3.16-.7 5.62-3.39 5.89-6.78Z" style="fill:url(#Dégradé_sans_nom_56-5)"/><path d="M22.78 208.95c.19 0 .37.03.56.03 1.67 0 3.28-.26 4.79-.73-1.2-.39-2.45-.73-3.76-1.02-.6.51-1.12 1.09-1.59 1.72Z" class="cls-16"/><path d="M22.78 208.95c.19 0 .37.03.56.03 1.67 0 3.28-.26 4.79-.73-1.2-.39-2.45-.73-3.76-1.02-.6.51-1.12 1.09-1.59 1.72Z" style="fill:url(#Dégradé_sans_nom_13-11)"/><path d="M22.78 208.95c.19 0 .37.03.56.03 1.67 0 3.28-.26 4.79-.73-1.2-.39-2.45-.73-3.76-1.02-.6.51-1.12 1.09-1.59 1.72Z" style="fill:url(#Dégradé_sans_nom_56-6)"/><path d="M68.47 5.82a5.408 5.408 0 0 0-3.94 8.35c3.42-1.28 6.47-3.39 8.94-6.12a5.41 5.41 0 0 0-4.99-2.24Z" style="fill:url(#Dégradé_sans_nom_21)"/><path d="M43.69 7.62c-1.17-.13-2.31.02-3.35.39 2.72 3.03 6.17 5.31 10.05 6.54a7.561 7.561 0 0 0-6.7-6.93Z" style="fill:url(#Dégradé_sans_nom_21-2)"/></g></svg>