<svg width="46" height="97" viewBox="0 0 46 97" fill="none" xmlns="http://www.w3.org/2000/svg">
<path d="M8.75244 14.4405C9.23262 10.0485 13.1822 6.87732 17.5742 7.3575L37.7891 9.56767C42.181 10.0479 45.3521 13.9975 44.8719 18.3896L37.1676 88.8589C36.6874 93.251 32.7378 96.4221 28.3458 95.9419L8.13094 93.7318C3.739 93.2516 0.567899 89.3019 1.04808 84.9099L8.75244 14.4405Z" fill="#BDD5DD" fill-opacity="0.1"/>
<path d="M22.7404 2.78277C22.8605 1.68476 23.8479 0.891973 24.9459 1.01202L32.7478 1.86503C33.8458 1.98508 34.6386 2.9725 34.5185 4.07051L34.135 7.57894L22.3569 6.2912L22.7404 2.78277Z" fill="#BDD5DD" fill-opacity="0.1"/>
<path d="M27.3204 16.3695L26.3761 25.007M22.4366 20.1003L31.0739 21.0446M15.3971 84.4884L24.0343 85.4328M8.13094 93.7318L28.3458 95.9419C32.7378 96.4221 36.6874 93.251 37.1676 88.8589L44.8719 18.3896C45.3521 13.9975 42.181 10.0479 37.7891 9.56767L17.5742 7.35751C13.1822 6.87732 9.23262 10.0485 8.75244 14.4405L1.04808 84.9099C0.567899 89.3019 3.739 93.2516 8.13094 93.7318ZM34.135 7.57894L34.5185 4.07051C34.6386 2.9725 33.8458 1.98508 32.7478 1.86503L24.9459 1.01202C23.8479 0.891973 22.8605 1.68476 22.7404 2.78277L22.3569 6.2912L34.135 7.57894Z" stroke="#00FAEB"/>
</svg>
