<svg width="38" height="96" viewBox="0 0 38 96" fill="none" xmlns="http://www.w3.org/2000/svg">
<path d="M1.00049 15.8045C1.00049 11.3863 4.58221 7.80456 9.00049 7.80456H29.3366C33.7549 7.80456 37.3366 11.3863 37.3366 15.8046V86.6953C37.3366 91.1136 33.7549 94.6953 29.3366 94.6953H9.00048C4.58221 94.6953 1.00049 91.1136 1.00049 86.6953L1.00049 15.8045Z" fill="#BDD5DD" fill-opacity="0.1"/>
<path d="M13.6391 2.69531C13.6391 1.59074 14.5346 0.695312 15.6391 0.695312H23.4879C24.5925 0.695312 25.4879 1.59074 25.4879 2.69531V6.22472H13.6391V2.69531Z" fill="#BDD5DD" fill-opacity="0.1"/>
<path d="M19.6688 15.7041V24.3932M15.2192 19.9436H23.9083M15.2192 84.7168H23.9083M1.00049 15.8045C1.00049 11.3863 4.58221 7.80456 9.00049 7.80456H29.3366C33.7549 7.80456 37.3366 11.3863 37.3366 15.8046V86.6953C37.3366 91.1136 33.7549 94.6953 29.3366 94.6953H9.00048C4.58221 94.6953 1.00049 91.1136 1.00049 86.6953L1.00049 15.8045ZM13.6391 2.69531C13.6391 1.59074 14.5346 0.695312 15.6391 0.695312H23.4879C24.5925 0.695312 25.4879 1.59074 25.4879 2.69531V6.22472H13.6391V2.69531Z" stroke="#00FAEB"/>
</svg>
