<svg width="18" height="148" viewBox="0 0 18 148" fill="none" xmlns="http://www.w3.org/2000/svg">
<path d="M14.9634 56.7924L15.0834 58.9558L15.0836 58.9598L15.5826 58.9281C15.0836 58.9598 15.0836 58.9599 15.0837 58.9601L15.0837 58.9608L15.0839 58.9641L15.0847 58.9773L15.088 59.0302L15.1007 59.2404C15.1117 59.4262 15.1277 59.7025 15.1475 60.0634C15.1871 60.7853 15.242 61.8462 15.303 63.2005C15.425 65.9091 15.5714 69.7914 15.669 74.484C15.8642 83.8702 15.8641 96.4935 15.0835 109.449C14.3017 122.425 13.5154 131.792 12.4431 137.911C11.9061 140.976 11.3038 143.185 10.6151 144.617C9.91687 146.068 9.21594 146.556 8.54681 146.556C7.86701 146.556 7.15896 146.081 6.45384 144.672C5.75539 143.277 5.13962 141.112 4.59343 138.077C3.50293 132.016 2.71649 122.65 2.01028 109.452C1.30499 96.271 1.30491 83.6461 1.4813 74.3153C1.56949 69.6502 1.70177 65.8096 1.81197 63.1357C1.86707 61.7987 1.91665 60.7535 1.95243 60.0428C1.97033 59.6875 1.98477 59.4158 1.99473 59.2331L2.00619 59.0265L2.00915 58.9744L2.0099 58.9615L2.01008 58.9583L2.01013 58.9575C2.01014 58.9574 2.01014 58.9573 1.51099 58.9281L2.01014 58.9573L2.01022 58.9558L2.13143 56.7711C5.98421 57.6826 10.9738 57.6883 14.9634 56.7924ZM0.92475 17.2988C1.19798 16.4234 1.71215 15.464 2.38683 14.3678C2.75151 13.7752 3.14386 13.1721 3.56082 12.5311C3.92838 11.9661 4.31506 11.3717 4.71876 10.7292C6.31485 8.18905 8.01655 5.14003 9.03777 1.36164C10.8188 2.65048 12.3849 4.92888 13.6647 7.3977C15.0676 10.1041 16.0832 12.953 16.6406 14.7475C17.1716 16.4568 17.3489 20.0554 16.2649 23.1592C15.7264 24.7014 14.8881 26.0877 13.6616 27.0639C12.4436 28.0333 10.8065 28.6276 8.60676 28.5319C5.12001 28.3804 2.94042 26.4768 1.7517 24.1495C0.547917 21.7926 0.382095 19.0373 0.92475 17.2988ZM2.77491 45.1721L3.54754 31.2451H3.6402C4.90131 32.4225 6.56869 33.2176 8.68156 33.3181C10.7116 33.4146 12.3266 32.8737 13.5837 31.9238L14.3347 45.4595C10.674 46.364 6.26758 46.2659 2.77491 45.1721ZM14.7783 53.4567C10.9345 54.584 6.07874 54.5365 2.32298 53.3182L2.58409 48.6116C6.17949 49.4327 10.7223 49.4768 14.5172 48.75L14.7783 53.4567Z" fill="#BDD5DD" fill-opacity="0.1" stroke="#00FAEB"/>
</svg>
