<svg width="80" height="126" viewBox="0 0 80 126" fill="none" xmlns="http://www.w3.org/2000/svg">
<path d="M54.0244 51.3724L52.9878 53.2751L52.9859 53.2786L53.4269 53.5143C52.9859 53.2786 52.9859 53.2787 52.9858 53.2788L52.9855 53.2795L52.9839 53.2824L52.9777 53.294L52.9526 53.3407L52.8528 53.5262C52.7643 53.69 52.6325 53.9333 52.4594 54.2506C52.1131 54.8853 51.6014 55.8162 50.9405 56.9998C49.6186 59.3671 47.6998 62.7453 45.313 66.7867C40.5388 74.8704 33.8949 85.6037 26.4126 96.2086C18.9182 106.83 13.3195 114.381 9.18717 119.02C7.11751 121.343 5.4427 122.905 4.10349 123.76C2.74601 124.626 1.89302 124.672 1.32407 124.32C0.746048 123.962 0.394199 123.186 0.535885 121.617C0.676233 120.063 1.2923 117.898 2.42556 115.029C4.68819 109.302 8.94876 100.925 15.2948 89.3307C21.6325 77.7518 28.2772 67.017 33.3382 59.176C35.8685 55.2558 38.0023 52.0597 39.5034 49.8441C40.2539 48.7363 40.8462 47.8737 41.2506 47.2883C41.4529 46.9955 41.6082 46.7721 41.7128 46.622L41.8313 46.4524L41.8612 46.4097L41.8686 46.3991L41.8705 46.3965L41.8709 46.3958C41.871 46.3957 41.871 46.3956 41.462 46.1081L41.871 46.3956L41.8719 46.3944L43.1248 44.6006C45.921 47.4034 50.1606 50.0344 54.0244 51.3724ZM62.8739 10.4027C63.5669 9.80216 64.509 9.25704 65.6597 8.67998C66.2817 8.36806 66.9327 8.06172 67.6246 7.73617C68.2345 7.44921 68.8762 7.14731 69.5575 6.81351C72.2516 5.49371 75.3033 3.79681 78.1603 1.12158C78.9963 3.15483 79.1288 5.91644 78.9176 8.6892C78.686 11.7288 78.0501 14.6857 77.5797 16.5049C77.1315 18.2378 75.3882 21.3909 72.8329 23.4596C71.5634 24.4874 70.1209 25.225 68.5642 25.4095C67.0183 25.5927 65.3137 25.2364 63.4935 23.9973C60.6086 22.0332 59.7572 19.2675 59.9714 16.663C60.1882 14.0254 61.4974 11.5953 62.8739 10.4027ZM49.7767 35.0768L57.7638 23.6414L57.8426 23.6902C58.2951 25.3551 59.2944 26.9087 61.0381 28.1062C62.7134 29.2567 64.3713 29.6468 65.9402 29.5008L59.4546 41.4052C55.8659 40.2477 52.1708 37.845 49.7767 35.0768ZM55.6228 48.4387C51.7611 47.3741 47.6573 44.778 45.105 41.7654L47.8042 37.9009C50.4292 40.4914 54.2686 42.9199 57.8779 44.2992L55.6228 48.4387Z" fill="#BDD5DD" fill-opacity="0.1" stroke="#00FAEB"/>
</svg>
