<svg width="51" height="109" viewBox="0 0 51 109" fill="none" xmlns="http://www.w3.org/2000/svg">
<path d="M50.4517 50.7705V108.271H1.45166V84.2705H26.4517H26.9517V83.7705V53.7705V53.2705H26.4517H1.45166V50.7705C1.45166 39.8661 9.89233 34.2048 14.1152 32.743L14.4517 32.6265V32.2705V20.2705C14.4517 19.4421 15.1232 18.7705 15.9517 18.7705H21.4517H21.9517V18.2705V6.77051V6.27051H21.4517H0.95166V2.77051C0.95166 1.94208 1.62323 1.27051 2.45166 1.27051H36.4517C37.2801 1.27051 37.9517 1.94208 37.9517 2.77051V6.27051H30.4517H29.9517V6.77051V18.2705V18.7705H30.4517H37.4517C38.2801 18.7705 38.9517 19.4421 38.9517 20.2705V32.2705V32.6002L39.2547 32.7301C40.8999 33.4352 43.7107 35.6159 46.1142 38.8205C48.5095 42.0143 50.4517 46.1613 50.4517 50.7705ZM0.95166 57.2705H22.9517V80.2705H0.95166V57.2705Z" fill="#BDD5DD" fill-opacity="0.1" stroke="#00FAEB"/>
</svg>
