<svg width="65" height="118" viewBox="0 0 65 118" fill="none" xmlns="http://www.w3.org/2000/svg">
<path d="M63.6245 61.4962L48.3328 116.926L1.09739 103.894L7.48 80.7587L31.5797 87.4072L32.0617 87.5402L32.1947 87.0582L40.1729 58.1385L40.3059 57.6565L39.8239 57.5235L15.7242 50.875L16.3891 48.465C19.289 37.9533 28.9313 34.7406 33.3909 34.4545L33.7462 34.4317L33.8408 34.0885L37.0321 22.5206C37.2525 21.722 38.0784 21.2532 38.877 21.4735L44.179 22.9362L44.661 23.0692L44.7939 22.5872L47.8523 11.5013L47.9852 11.0193L47.5033 10.8863L27.7415 5.43454L28.6723 2.06058C28.8926 1.26198 29.7186 0.793192 30.5172 1.01351L63.2928 10.0555C64.0914 10.2758 64.5602 11.1018 64.3399 11.9004L63.4091 15.2744L56.1792 13.2798L55.6972 13.1469L55.5642 13.6289L52.5059 24.7147L52.3729 25.1967L52.8549 25.3297L59.6028 27.1913C60.4014 27.4116 60.8702 28.2376 60.6499 29.0362L57.4586 40.604L57.3709 40.9219L57.6285 41.1277C59.027 42.2449 61.1565 45.0946 62.6212 48.823C64.0809 52.5388 64.8503 57.053 63.6245 61.4962ZM8.06177 76.7697L14.1784 54.598L35.3862 60.4487L29.2695 82.6204L8.06177 76.7697Z" fill="#BDD5DD" fill-opacity="0.1" stroke="#00FAEB"/>
</svg>
