<svg width="45" height="153" viewBox="0 0 45 153" fill="none" xmlns="http://www.w3.org/2000/svg">
<path d="M8.78874 151.693C-1.89935 149.718 9.41946 121.344 11.5443 113.523L35.2311 121.167C26.4465 143.684 21.6143 154.062 8.78874 151.693Z" fill="#BDD5DD" fill-opacity="0.1"/>
<path d="M37.8255 115.238L13.5562 107.398C13.7643 104.393 14.9112 102.89 15.5422 100.129C16.1732 97.3685 7.45913 91.0636 3.04112 82.1219C-2.14513 71.6253 3.25635 57.9863 7.66825 58.07C12.0802 58.1538 13.6086 68.8246 16.4883 79.3472C18.0041 84.8861 21.5385 86.6321 22.9231 85.0768C29.4157 73.6463 21.8735 47.8687 16.5828 41.7761C9.82299 33.9919 -1.91269 13.1882 7.47956 4.67771C25.9512 -12.0597 41.8987 37.9744 43.188 49.4294C43.9914 56.5683 45.1969 74.0716 43.7533 83.0077C42.2242 100.489 42.4449 102.637 37.8255 115.238Z" fill="#BDD5DD" fill-opacity="0.1"/>
<path d="M8.78874 151.693C-1.89935 149.718 9.41946 121.344 11.5443 113.523L35.2311 121.167C26.4465 143.684 21.6143 154.062 8.78874 151.693Z" stroke="#00FAEB"/>
<path d="M37.8255 115.238L13.5562 107.398C13.7643 104.393 14.9112 102.89 15.5422 100.129C16.1732 97.3685 7.45913 91.0636 3.04112 82.1219C-2.14513 71.6253 3.25635 57.9863 7.66825 58.07C12.0802 58.1538 13.6086 68.8246 16.4883 79.3472C18.0041 84.8861 21.5385 86.6321 22.9231 85.0768C29.4157 73.6463 21.8735 47.8687 16.5828 41.7761C9.82299 33.9919 -1.91269 13.1882 7.47956 4.67771C25.9512 -12.0597 41.8987 37.9744 43.188 49.4294C43.9914 56.5683 45.1969 74.0716 43.7533 83.0077C42.2242 100.489 42.4449 102.637 37.8255 115.238Z" stroke="#00FAEB"/>
</svg>
