<svg xmlns="http://www.w3.org/2000/svg" xmlns:xlink="http://www.w3.org/1999/xlink" id="Calque_2" viewBox="0 0 72.56 74.51"><defs><radialGradient id="Dégradé_sans_nom_30" cx="36.93" cy="36.33" r="37.62" fx="36.93" fy="36.33" gradientUnits="userSpaceOnUse"><stop offset=".3" stop-color="#020e12"/><stop offset=".45" stop-color="#041014"/><stop offset=".55" stop-color="#0d181b"/><stop offset=".63" stop-color="#1b2528"/><stop offset=".7" stop-color="#303839"/><stop offset=".76" stop-color="#4b5151"/><stop offset=".83" stop-color="#6d6f6d"/><stop offset=".88" stop-color="#94938f"/><stop offset=".94" stop-color="#c0bbb5"/><stop offset=".99" stop-color="#f2e8df"/></radialGradient><radialGradient xlink:href="#Dégradé_sans_nom_30" id="Dégradé_sans_nom_30-2" r="37.62"/><radialGradient xlink:href="#Dégradé_sans_nom_30" id="Dégradé_sans_nom_30-3" r="37.62"/><radialGradient xlink:href="#Dégradé_sans_nom_30" id="Dégradé_sans_nom_30-4" r="37.62"/><radialGradient xlink:href="#Dégradé_sans_nom_30" id="Dégradé_sans_nom_30-5" r="37.62"/><radialGradient xlink:href="#Dégradé_sans_nom_30" id="Dégradé_sans_nom_30-6" cx="36.93" cy="36.33" r="37.62" fx="36.93" fy="36.33"/><radialGradient xlink:href="#Dégradé_sans_nom_30" id="Dégradé_sans_nom_30-7" r="37.62"/><radialGradient xlink:href="#Dégradé_sans_nom_30" id="Dégradé_sans_nom_30-8" r="37.62"/><radialGradient xlink:href="#Dégradé_sans_nom_30" id="Dégradé_sans_nom_30-9" r="37.62"/><radialGradient xlink:href="#Dégradé_sans_nom_30" id="Dégradé_sans_nom_30-10" r="37.62"/><radialGradient xlink:href="#Dégradé_sans_nom_30" id="Dégradé_sans_nom_30-11" cy="36.33" r="37.62" fy="36.33"/><radialGradient xlink:href="#Dégradé_sans_nom_30" id="Dégradé_sans_nom_30-12" r="37.62"/><radialGradient xlink:href="#Dégradé_sans_nom_30" id="Dégradé_sans_nom_30-13" cy="36.33" r="37.62" fy="36.33"/><radialGradient xlink:href="#Dégradé_sans_nom_30" id="Dégradé_sans_nom_30-14" r="37.62"/><radialGradient xlink:href="#Dégradé_sans_nom_30" id="Dégradé_sans_nom_30-15" r="37.62"/><radialGradient xlink:href="#Dégradé_sans_nom_30" id="Dégradé_sans_nom_30-16" r="37.62"/><radialGradient xlink:href="#Dégradé_sans_nom_30" id="Dégradé_sans_nom_30-17" r="37.62"/><radialGradient id="Dégradé_sans_nom_34" cx="47.46" cy="28.89" r="7.39" fx="47.46" fy="28.89" gradientUnits="userSpaceOnUse"><stop offset="0" stop-color="#03b6ac"/><stop offset=".21" stop-color="#05b6ac"/><stop offset=".34" stop-color="#0eb8ae"/><stop offset=".46" stop-color="#1dbbb1"/><stop offset=".57" stop-color="#33c0b6"/><stop offset=".67" stop-color="#4fc5bc"/><stop offset=".76" stop-color="#71cdc3"/><stop offset=".85" stop-color="#99d5cc"/><stop offset=".93" stop-color="#c7dfd5"/><stop offset="1" stop-color="#f2e8df"/></radialGradient><radialGradient xlink:href="#Dégradé_sans_nom_34" id="Dégradé_sans_nom_34-2" r="7.39"/><radialGradient xlink:href="#Dégradé_sans_nom_34" id="Dégradé_sans_nom_34-3" r="7.39"/><radialGradient xlink:href="#Dégradé_sans_nom_34" id="Dégradé_sans_nom_34-4" r="7.39"/><radialGradient xlink:href="#Dégradé_sans_nom_34" id="Dégradé_sans_nom_34-5" cx="25.4" cy="29" r="7.39" fx="25.4" fy="29"/><radialGradient xlink:href="#Dégradé_sans_nom_34" id="Dégradé_sans_nom_34-6" cx="25.4" cy="29" r="7.39" fx="25.4" fy="29"/><radialGradient xlink:href="#Dégradé_sans_nom_34" id="Dégradé_sans_nom_34-7" cx="25.4" cy="29" r="7.39" fx="25.4" fy="29"/><radialGradient id="Dégradé_sans_nom_36" cx="36.79" cy="53.18" r="11.68" fx="36.79" fy="53.18" gradientUnits="userSpaceOnUse"><stop offset="0" stop-color="#03b6ac"/><stop offset=".12" stop-color="#07b6ac"/><stop offset=".25" stop-color="#14b9af"/><stop offset=".38" stop-color="#2abeb4"/><stop offset=".52" stop-color="#49c4bb"/><stop offset=".66" stop-color="#71cdc3"/><stop offset=".8" stop-color="#a2d7cd"/><stop offset=".95" stop-color="#dae3d9"/><stop offset="1" stop-color="#f2e8df"/></radialGradient><radialGradient xlink:href="#Dégradé_sans_nom_36" id="Dégradé_sans_nom_36-2" r="11.68"/><radialGradient xlink:href="#Dégradé_sans_nom_36" id="Dégradé_sans_nom_36-3" r="11.68"/><radialGradient xlink:href="#Dégradé_sans_nom_36" id="Dégradé_sans_nom_36-4" r="11.68"/><radialGradient id="Dégradé_sans_nom_41" cx="7.06" cy="44.62" r="10.47" fx="7.06" fy="44.62" gradientUnits="userSpaceOnUse"><stop offset="0" stop-color="#020e12"/><stop offset=".12" stop-color="#011216"/><stop offset=".25" stop-color="#011f22"/><stop offset=".38" stop-color="#013536"/><stop offset=".52" stop-color="#015452"/><stop offset=".66" stop-color="#017c77"/><stop offset=".81" stop-color="#00ada4"/><stop offset=".95" stop-color="#00e5d8"/><stop offset="1" stop-color="#00faeb"/></radialGradient><radialGradient xlink:href="#Dégradé_sans_nom_30" id="Dégradé_sans_nom_30-18" cx="36.93" r="37.62" fx="36.93"/><radialGradient id="Dégradé_sans_nom_39" cx="66.79" cy="42.34" r="10.47" fx="66.79" fy="42.34" gradientUnits="userSpaceOnUse"><stop offset="0" stop-color="#020e12"/><stop offset=".14" stop-color="#021216"/><stop offset=".3" stop-color="#021f22"/><stop offset=".46" stop-color="#023536"/><stop offset=".63" stop-color="#025452"/><stop offset=".8" stop-color="#027c77"/><stop offset=".97" stop-color="#02aca2"/><stop offset="1" stop-color="#03b6ac"/></radialGradient><radialGradient xlink:href="#Dégradé_sans_nom_39" id="Dégradé_sans_nom_39-2" cx="66.79" r="10.47" fx="66.79"/><radialGradient xlink:href="#Dégradé_sans_nom_39" id="Dégradé_sans_nom_39-3" cy="42.34" r="10.47" fy="42.34"/><radialGradient xlink:href="#Dégradé_sans_nom_39" id="Dégradé_sans_nom_39-4" cx="66.79" r="10.47" fx="66.79"/><radialGradient xlink:href="#Dégradé_sans_nom_39" id="Dégradé_sans_nom_39-5" cx="66.79" cy="42.34" r="10.47" fx="66.79" fy="42.34"/><radialGradient xlink:href="#Dégradé_sans_nom_39" id="Dégradé_sans_nom_39-6" cy="42.34" r="10.47" fy="42.34"/><radialGradient xlink:href="#Dégradé_sans_nom_39" id="Dégradé_sans_nom_39-7" r="10.47"/><radialGradient xlink:href="#Dégradé_sans_nom_39" id="Dégradé_sans_nom_39-8" r="10.47"/><radialGradient xlink:href="#Dégradé_sans_nom_39" id="Dégradé_sans_nom_39-9" r="10.47"/><radialGradient xlink:href="#Dégradé_sans_nom_41" id="Dégradé_sans_nom_41-2" cx="7.06" r="10.47" fx="7.06"/><radialGradient xlink:href="#Dégradé_sans_nom_41" id="Dégradé_sans_nom_41-3" cy="44.62" r="10.47" fy="44.62"/><radialGradient xlink:href="#Dégradé_sans_nom_41" id="Dégradé_sans_nom_41-4" r="10.47"/><radialGradient xlink:href="#Dégradé_sans_nom_41" id="Dégradé_sans_nom_41-5" cx="7.06" cy="44.62" r="10.47" fx="7.06" fy="44.62"/><radialGradient xlink:href="#Dégradé_sans_nom_41" id="Dégradé_sans_nom_41-6" cy="44.62" r="10.47" fy="44.62"/><radialGradient xlink:href="#Dégradé_sans_nom_41" id="Dégradé_sans_nom_41-7" cy="44.62" r="10.47" fy="44.62"/><radialGradient xlink:href="#Dégradé_sans_nom_41" id="Dégradé_sans_nom_41-8" cx="7.06" r="10.47" fx="7.06"/><radialGradient xlink:href="#Dégradé_sans_nom_41" id="Dégradé_sans_nom_41-9" cx="7.06" r="10.47" fx="7.06"/><style>.cls-14{fill:#f2e8df}</style></defs><g id="tete"><path d="M25.56 69.69c.49 0 .96-.1 1.39-.27-1.83-.93-3.57-2.11-5.18-3.51 0 2.09 1.7 3.78 3.79 3.78ZM11.65 19.82c0 .52.21 1 .55 1.35.41-1.13.86-2.23 1.36-3.28-1.06.02-1.91.88-1.91 1.94ZM40.14 1.04C38.69.34 37.06-.04 35.35 0c-2.37.06-4.52.91-6.24 2.27 2.48-.96 5.1-1.48 7.82-1.48 1.09 0 2.15.09 3.21.25ZM61.52 17.71a7.134 7.134 0 0 0-5.46-6.76c2.06 2.62 3.8 5.67 5.14 9.03.22-.72.33-1.48.31-2.27ZM21.03 7.43a3.87 3.87 0 0 0-1.66-.36 3.778 3.778 0 0 0-3.69 3.87c.02.75.26 1.45.66 2.03 1.39-2.07 2.97-3.94 4.69-5.54ZM50.95 66.84c.13 0 .25.01.38 0a5.426 5.426 0 0 0 5.29-5.55c0-.1-.01-.2-.02-.3-1.67 2.25-3.57 4.22-5.64 5.84ZM32.36 71.36c.88 1.9 2.82 3.2 5.05 3.15 2.2-.05 4.06-1.42 4.86-3.33-1.73.45-3.51.68-5.34.68-1.56 0-3.09-.18-4.57-.5ZM14.04 55.93a5.435 5.435 0 0 0 2.94 4.69c-1.08-1.5-2.07-3.13-2.94-4.86v.17ZM53.75 8.32c.21-.42.34-.89.33-1.39A2.905 2.905 0 0 0 51.1 4.1c-.64.02-1.23.24-1.7.61 1.54 1.03 2.99 2.24 4.34 3.61Z" class="cls-14"/><path d="M51.86 52.59c3.3-.82 5.74-3.78 5.74-7.33 0-4.18-3.39-7.56-7.56-7.56s-7.56 3.39-7.56 7.56c0 .63.08 1.23.23 1.81 5.03.94 8.66 3.03 9.15 5.52Z" style="fill:url(#Dégradé_sans_nom_30)"/><path d="M36.85 46.55a5.416 5.416 0 0 0-5.28-4.21c-2.99 0-5.42 2.43-5.42 5.42 0 .23.02.46.05.69 2.73-1.17 6.47-1.9 10.59-1.9h.06Z" style="fill:url(#Dégradé_sans_nom_30-2)"/><path d="M26.7 22.67c.28-.53.46-1.13.46-1.77 0-2.09-1.69-3.78-3.78-3.78s-3.78 1.69-3.78 3.78c0 1.1.47 2.07 1.22 2.76 1.31-.68 2.89-1.08 4.59-1.08.44 0 .87.03 1.3.09Z" style="fill:url(#Dégradé_sans_nom_30-3)"/><path d="M29.36 65.89c0-2.1-1.7-3.79-3.79-3.79s-3.79 1.7-3.79 3.79v.01c1.61 1.4 3.35 2.58 5.18 3.51 1.41-.56 2.41-1.92 2.41-3.52Z" style="fill:url(#Dégradé_sans_nom_30-4)"/><path d="M13.59 21.76c1.07 0 1.94-.87 1.94-1.94s-.87-1.94-1.94-1.94h-.03c-.5 1.06-.95 2.16-1.36 3.28.35.36.84.59 1.39.59Z" style="fill:url(#Dégradé_sans_nom_30-5)"/><path d="M57.19 36.32a3.4 3.4 0 0 0 3.67-3.12 3.4 3.4 0 0 0-3.12-3.67c-.81-.07-1.57.17-2.19.6-.24.96-.76 1.84-1.48 2.59a3.402 3.402 0 0 0 3.12 3.6Z" style="fill:url(#Dégradé_sans_nom_30-6)"/><path d="M18.04 47.72c2.99 0 5.42-2.43 5.42-5.42s-2.43-5.42-5.42-5.42c-2.74 0-4.99 2.03-5.36 4.67.14.81.26 1.65.34 2.51.01.12.02.23.02.35a5.41 5.41 0 0 0 4.99 3.31Z" style="fill:url(#Dégradé_sans_nom_30-7)"/><path d="M39.82 26.46c-1.43-1.99-3.75-3.29-6.39-3.29-1.12 0-2.19.24-3.16.66 2.05 1.17 3.38 3.04 3.38 5.17 0 3.16-2.95 5.79-6.83 6.31 1.4 2.16 3.83 3.6 6.6 3.6 3.69 0 6.77-2.54 7.63-5.96-1.16-1.1-1.86-2.52-1.86-4.05 0-.86.22-1.69.62-2.44Z" style="fill:url(#Dégradé_sans_nom_30-8)"/><path d="M36.26 59.8a3.75 3.75 0 0 0 4.61-.24c-1.3.16-2.66.25-4.07.25-.18 0-.35 0-.53-.01Z" style="fill:url(#Dégradé_sans_nom_30-9)"/><path d="M25.15 10.7c.14 5.77 4.93 10.33 10.7 10.19 5.77-.14 10.33-4.93 10.19-10.7-.1-4.05-2.5-7.5-5.91-9.15-1.05-.16-2.12-.25-3.21-.25-2.72 0-5.34.52-7.82 1.48-2.47 1.97-4.04 5.02-3.96 8.43Z" style="fill:url(#Dégradé_sans_nom_30-10)"/><path d="M47.23 18.06A7.16 7.16 0 0 0 49 22.6c2.04.3 3.8 1.18 5.01 2.42.18 0 .35.02.53.01a7.142 7.142 0 0 0 6.65-5.05c-1.34-3.36-3.08-6.4-5.14-9.03-.6-.14-1.22-.22-1.86-.21-3.94.1-7.06 3.37-6.97 7.32Z" style="fill:url(#Dégradé_sans_nom_30-11)"/><path d="M19.55 14.63a3.778 3.778 0 0 0 3.69-3.87 3.77 3.77 0 0 0-2.21-3.33c-1.73 1.61-3.3 3.47-4.69 5.54.7 1.03 1.88 1.69 3.22 1.66Z" style="fill:url(#Dégradé_sans_nom_30-12)"/><path d="M51.07 56.02c-.23 0-.46.03-.69.07-.85.76-2.02 1.44-3.45 2.01-.75.96-1.19 2.17-1.15 3.48a5.424 5.424 0 0 0 5.17 5.28c2.08-1.62 3.97-3.58 5.64-5.84a5.41 5.41 0 0 0-5.53-4.99Z" style="fill:url(#Dégradé_sans_nom_30-13)"/><path d="M37.15 63.68a5.426 5.426 0 0 0-5.29 5.55c.02.76.2 1.49.5 2.14 1.49.33 3.01.5 4.57.5 1.83 0 3.61-.24 5.34-.68.29-.68.44-1.43.42-2.22a5.426 5.426 0 0 0-5.55-5.29Z" style="fill:url(#Dégradé_sans_nom_30-14)"/><path d="M24.7 57.15c-1.9-1.11-3.04-2.48-3.04-3.97 0-.68.24-1.34.68-1.97-.87-.55-1.91-.86-3.02-.83-2.94.07-5.26 2.47-5.28 5.38.87 1.73 1.85 3.35 2.94 4.86.78.4 1.67.62 2.61.6a5.416 5.416 0 0 0 5.11-4.07Z" style="fill:url(#Dégradé_sans_nom_30-15)"/><path d="M15.81 34.42c1.27-.03 2.42-.5 3.33-1.25-1.24-1.12-1.99-2.57-1.99-4.17s.75-3.04 1.99-4.17a5.398 5.398 0 0 0-3.59-1.25 5.401 5.401 0 0 0-5.18 4.38l-.03.16a5.426 5.426 0 0 0 5.48 6.3Z" style="fill:url(#Dégradé_sans_nom_30-16)"/><path d="M48.27 7.08c.04 1.6 1.37 2.87 2.98 2.83 1.1-.03 2.04-.67 2.51-1.59a28.281 28.281 0 0 0-4.34-3.61c-.71.55-1.16 1.4-1.14 2.37Z" style="fill:url(#Dégradé_sans_nom_30-17)"/><path d="M54.07 32.65v.07c.72-.75 1.24-1.63 1.48-2.59-.82.56-1.4 1.46-1.48 2.53Z" style="fill:url(#Dégradé_sans_nom_34)"/><circle cx="48.45" cy="30.35" r="4.49" style="fill:url(#Dégradé_sans_nom_34-2)"/><path d="M39.82 26.46c-.4.75-.62 1.57-.62 2.44 0 1.54.7 2.95 1.86 4.05a7.803 7.803 0 0 0-1.24-6.49Z" style="fill:url(#Dégradé_sans_nom_34-3)"/><path d="M49.01 22.6a7.134 7.134 0 0 0 5.01 2.42c-1.21-1.23-2.97-2.12-5.01-2.42Z" style="fill:url(#Dégradé_sans_nom_34-4)"/><path d="M26.7 22.67c-.42-.05-.86-.09-1.3-.09-1.7 0-3.27.4-4.59 1.08.67.63 1.57 1.02 2.56 1.02 1.44 0 2.69-.82 3.32-2.01Z" style="fill:url(#Dégradé_sans_nom_34-5)"/><path d="M33.66 29c0-2.12-1.33-4-3.38-5.17a7.872 7.872 0 0 0-4.71 7.21c0 1.58.47 3.04 1.27 4.27 3.88-.53 6.83-3.15 6.83-6.31Z" style="fill:url(#Dégradé_sans_nom_34-6)"/><path d="M21.09 28.87a5.39 5.39 0 0 0-1.96-4.03c-1.23 1.12-1.99 2.57-1.99 4.17s.75 3.05 1.99 4.17c1.23-1.02 2-2.57 1.96-4.3Z" style="fill:url(#Dégradé_sans_nom_34-7)"/><path d="M50.04 52.82c.63 0 1.24-.09 1.82-.23-.5-2.49-4.12-4.58-9.15-5.52.81 3.3 3.78 5.75 7.33 5.75Z" style="fill:url(#Dégradé_sans_nom_36)"/><path d="M31.57 53.18c2.99 0 5.42-2.43 5.42-5.42 0-.42-.05-.82-.14-1.21h-.06c-4.13 0-7.86.73-10.59 1.9a5.413 5.413 0 0 0 5.37 4.73Z" style="fill:url(#Dégradé_sans_nom_36-2)"/><path d="M42.2 56.7c0-2.09-1.69-3.78-3.78-3.78a3.777 3.777 0 0 0-2.16 6.88c.18 0 .35.01.53.01 1.41 0 2.77-.09 4.07-.25.81-.69 1.34-1.71 1.34-2.86Z" style="fill:url(#Dégradé_sans_nom_36-3)"/><path d="M46.94 58.09c1.42-.56 2.59-1.24 3.45-2.01-1.4.21-2.62.95-3.45 2.01Z" style="fill:url(#Dégradé_sans_nom_36-4)"/><path d="M12.67 41.55c-.03.25-.06.5-.06.75 0 .75.15 1.46.43 2.11 0-.12-.01-.23-.02-.35-.08-.86-.2-1.7-.34-2.51Z" style="fill:url(#Dégradé_sans_nom_41)"/><path d="M1.11 45.27s0-.06-.01-.1C.98 43.9.95 42.66.99 41.48.38 41.9-.02 42.6 0 43.39c.02.81.46 1.5 1.11 1.87ZM1.54 48.85c.01.49.18.94.46 1.3-.16-.57-.3-1.16-.42-1.77-.03.15-.04.31-.04.47ZM65.22 30.98c-.44.17-.84.41-1.19.72.03.26.05.52.08.78.36-.56.73-1.06 1.11-1.5Z" class="cls-14"/><path d="M62.76 34.43c0 .18.02.34.04.51.4-.91.84-1.73 1.31-2.46-.02-.26-.05-.52-.08-.78-.75.67-1.24 1.63-1.27 2.72Z" style="fill:url(#Dégradé_sans_nom_30-18)"/><path d="M64.27 36.33c0 .4-.01.79-.02 1.18.61.47 1.37.77 2.2.79 2.09.05 3.82-1.6 3.87-3.69.05-2.09-1.6-3.82-3.69-3.87-.5-.01-.97.08-1.41.24-.38.44-.75.94-1.11 1.5.1 1.27.16 2.55.16 3.85Z" style="fill:url(#Dégradé_sans_nom_39)"/><path d="M64.48 48.53a2.246 2.246 0 1 0-.11 4.49 2.246 2.246 0 0 0 .11-4.49Z" style="fill:url(#Dégradé_sans_nom_39-2)"/><path d="M63.39 47.76c.85.02 1.55-.65 1.57-1.49.02-.83-.63-1.53-1.46-1.56-.19 1-.4 1.98-.65 2.94.17.07.35.11.54.12Z" style="fill:url(#Dégradé_sans_nom_39-3)"/><path d="M68.08 41.34a2.246 2.246 0 1 0 4.49.11 2.246 2.246 0 0 0-4.49-.11Z" style="fill:url(#Dégradé_sans_nom_39-4)"/><path d="M64.37 43.77a2.246 2.246 0 1 0 .11-4.49c-.11 0-.21.01-.31.02-.09 1.47-.25 2.91-.48 4.32.22.08.44.13.68.14Z" style="fill:url(#Dégradé_sans_nom_39-5)"/><path d="M68.84 44.62a2.246 2.246 0 1 0-.11 4.49 2.246 2.246 0 0 0 .11-4.49Z" style="fill:url(#Dégradé_sans_nom_39-6)"/><path d="M64.25 37.51c0-.39.02-.78.02-1.18 0-1.3-.06-2.59-.16-3.85-.47.73-.91 1.55-1.31 2.46.12 1.04.65 1.96 1.45 2.57Z" style="fill:url(#Dégradé_sans_nom_39-7)"/><path d="M61.9 46.19c-.02.65.38 1.22.95 1.45.25-.96.47-1.94.65-2.94h-.03a1.53 1.53 0 0 0-1.57 1.49Z" style="fill:url(#Dégradé_sans_nom_39-8)"/><path d="M62.19 41.47c-.02 1 .61 1.85 1.5 2.16.23-1.41.38-2.86.48-4.32a2.237 2.237 0 0 0-1.98 2.16Z" style="fill:url(#Dégradé_sans_nom_39-9)"/><path d="M9.61 35.32c-.5-1.56-1.96-2.68-3.68-2.64a3.778 3.778 0 0 0-3.69 3.87 3.778 3.778 0 0 0 3.87 3.69 3.765 3.765 0 0 0 3.5-2.65c-.01-.42-.02-.83-.02-1.25 0-.34.01-.68.02-1.01Z" style="fill:url(#Dégradé_sans_nom_41-2)"/><path d="M8.19 54.95a2.246 2.246 0 1 0-.11-4.49 2.246 2.246 0 0 0 .11 4.49Z" style="fill:url(#Dégradé_sans_nom_41-3)"/><path d="M9.17 49.7c.85-.02 1.52-.72 1.49-1.57-.02-.85-.72-1.52-1.57-1.49-.85.02-1.52.72-1.49 1.57s.72 1.52 1.57 1.49Z" style="fill:url(#Dégradé_sans_nom_41-4)"/><path d="M1.1 45.17s0 .06.01.1c.35.2.75.32 1.18.31a2.246 2.246 0 1 0-.11-4.49c-.45.01-.86.15-1.2.39-.04 1.18 0 2.41.11 3.69Z" style="fill:url(#Dégradé_sans_nom_41-5)"/><path d="M8.08 41.23a2.246 2.246 0 1 0 .11 4.49c.98-.02 1.79-.68 2.07-1.56-.11-.65-.21-1.31-.3-1.98-.42-.59-1.11-.96-1.88-.94Z" style="fill:url(#Dégradé_sans_nom_41-6)"/><path d="M3.84 51.04a2.246 2.246 0 1 0-.11-4.49c-1.08.03-1.95.81-2.15 1.82.12.61.26 1.2.42 1.77.42.55 1.09.91 1.84.89Z" style="fill:url(#Dégradé_sans_nom_41-7)"/><path d="M9.61 35.32c0 .34-.02.67-.02 1.01 0 .42.01.84.02 1.25.12-.39.2-.79.19-1.22 0-.37-.09-.71-.19-1.05Z" style="fill:url(#Dégradé_sans_nom_41-8)"/><path d="M9.96 42.17c.08.67.19 1.32.3 1.98.07-.23.12-.48.11-.73-.01-.46-.16-.89-.41-1.24Z" style="fill:url(#Dégradé_sans_nom_41-9)"/></g></svg>