<svg xmlns="http://www.w3.org/2000/svg" id="Calque_2" viewBox="0 0 99.51 146"><defs><style>.cls-1{fill:#f2e8df}</style></defs><g id="Torse"><path d="M91.68 30.3c0 2.16 1.75 3.92 3.92 3.92s3.92-1.75 3.92-3.92-1.75-3.92-3.92-3.92-3.92 1.75-3.92 3.92ZM92.61 15.29c1.07 0 1.94-.87 1.94-1.94s-.87-1.94-1.94-1.94-1.94.87-1.94 1.94.87 1.94 1.94 1.94ZM92.61 23.93c1.45 0 2.63-1.18 2.63-2.63s-1.18-2.63-2.63-2.63-2.63 1.18-2.63 2.63 1.18 2.63 2.63 2.63Z" class="cls-1"/><circle cx="5.44" cy="21.34" r="5.44" class="cls-1"/><path d="M7.58 14.57c1.07 0 1.95-.87 1.95-1.95s-.87-1.95-1.95-1.95-1.95.87-1.95 1.95.87 1.95 1.95 1.95Z" class="cls-1"/><circle cx="78.57" cy="24.45" r="9.33" class="cls-1" transform="rotate(-45 78.57 24.455)"/><circle cx="19.89" cy="15.12" r="7.56" class="cls-1" transform="rotate(-13.28 19.877 15.113)"/><circle cx="86.92" cy="43.11" r="7.56" class="cls-1" transform="rotate(-45 86.92 43.117)"/><path d="M29.27 1.43c-2.09 0-3.78 1.69-3.78 3.78s1.69 3.78 3.78 3.78 3.78-1.69 3.78-3.78-1.69-3.78-3.78-3.78Z" class="cls-1"/><circle cx="61.21" cy="7.56" r="7.56" class="cls-1"/><path d="M71.8 35.96c-2.09 0-3.78 1.69-3.78 3.78s1.69 3.78 3.78 3.78 3.78-1.69 3.78-3.78-1.69-3.78-3.78-3.78Z" class="cls-1"/><circle cx="43.35" cy="8.28" r="6.85" class="cls-1"/><circle cx="11.51" cy="35.06" r="6.05" class="cls-1" transform="rotate(-45 11.513 35.061)"/><path d="M75.22 13.35c2.09 0 3.78-1.69 3.78-3.78s-1.69-3.78-3.78-3.78-3.78 1.69-3.78 3.78 1.69 3.78 3.78 3.78Z" class="cls-1"/><circle cx="48.04" cy="22.94" r="5.42" class="cls-1"/><path d="M31.1 19.16c0 2.09 1.69 3.78 3.78 3.78s3.78-1.69 3.78-3.78-1.69-3.78-3.78-3.78-3.78 1.69-3.78 3.78Z" class="cls-1"/><circle cx="61.21" cy="22.94" r="3.78" class="cls-1"/><circle cx="17.11" cy="80.84" r="12.16" class="cls-1" transform="rotate(-9.22 17.074 80.827)"/><circle cx="71.8" cy="53.27" r="7.56" class="cls-1" transform="rotate(-13.28 71.808 53.286)"/><circle cx="17.8" cy="104.78" r="7.56" class="cls-1" transform="rotate(-45 17.804 104.786)"/><circle cx="17.8" cy="123.82" r="7.56" class="cls-1"/><circle cx="54.25" cy="87.37" r="7.56" class="cls-1" transform="rotate(-13.28 54.258 87.375)"/><circle cx="34.88" cy="63.01" r="7.56" class="cls-1" transform="rotate(-13.28 34.893 63.006)"/><circle cx="29.27" cy="94.55" r="3.78" class="cls-1"/><circle cx="42.58" cy="103.51" r="7.56" class="cls-1" transform="rotate(-67.5 42.572 103.51)"/><circle cx="53.65" cy="57.58" r="7.56" class="cls-1" transform="rotate(-13.28 53.678 57.574)"/><circle cx="56.61" cy="37.86" r="7.56" class="cls-1" transform="rotate(-45 56.612 37.86)"/><circle cx="83.22" cy="70.51" r="9.39" class="cls-1"/><circle cx="32.56" cy="129.09" r="3.78" class="cls-1"/><path d="M17.56 137.2c0-2.09-1.69-3.78-3.78-3.78S10 135.11 10 137.2s1.69 3.78 3.78 3.78 3.78-1.69 3.78-3.78Z" class="cls-1"/><circle cx="66.48" cy="107.71" r="10.15" class="cls-1" transform="rotate(-45 66.473 107.706)"/><circle cx="48.7" cy="123.67" r="7.56" class="cls-1"/><circle cx="16.11" cy="55" r="7.56" class="cls-1" transform="rotate(-45 16.105 55.009)"/><circle cx="73.71" cy="87.25" r="7.56" class="cls-1" transform="rotate(-67.5 73.713 87.245)"/><circle cx="63.82" cy="129.09" r="3.78" class="cls-1"/><circle cx="79.44" cy="123.67" r="5.42" class="cls-1" transform="rotate(-45 79.447 123.672)"/><circle cx="31.23" cy="115.1" r="5.42" class="cls-1" transform="rotate(-67.5 31.233 115.102)"/><circle cx="37.98" cy="80.45" r="5.42" class="cls-1"/><circle cx="50.14" cy="140.58" r="5.42" class="cls-1"/><circle cx="63.82" cy="70.51" r="5.42" class="cls-1"/><path d="M88.64 99.37c0-2.09-1.69-3.78-3.78-3.78s-3.78 1.69-3.78 3.78 1.69 3.78 3.78 3.78 3.78-1.69 3.78-3.78ZM50.14 69.02c-2.09 0-3.78 1.69-3.78 3.78s1.69 3.78 3.78 3.78 3.78-1.69 3.78-3.78-1.69-3.78-3.78-3.78ZM87.47 111.07c0-2.09-1.69-3.78-3.78-3.78s-3.78 1.69-3.78 3.78 1.69 3.78 3.78 3.78 3.78-1.69 3.78-3.78ZM91.25 87.74c0-2.09-1.69-3.78-3.78-3.78s-3.78 1.69-3.78 3.78 1.69 3.78 3.78 3.78 3.78-1.69 3.78-3.78Z" class="cls-1"/><circle cx="33.05" cy="39.06" r="12.16" class="cls-1" transform="rotate(-67.5 33.05 39.066)"/></g></svg>