<svg width="75" height="111" viewBox="0 0 75 111" fill="none" xmlns="http://www.w3.org/2000/svg">
<path d="M66.6429 92.6173L39.7704 102.407C39.7423 101.927 39.6642 101.452 39.5322 100.985L39.5272 100.967L39.5209 100.95C38.7423 98.8127 37.7601 97.2674 36.2237 95.8595C34.705 94.4678 32.6587 93.2243 29.7908 91.6624C28.6971 91.0668 27.5725 90.6014 26.3612 90.1002L26.3477 90.0946L26.3457 90.0938C23.733 89.0127 20.6059 87.7187 16.1107 84.4784C11.6422 81.2573 6.11024 74.4868 3.53028 66.7051C0.958591 58.9483 1.33406 50.2537 8.54495 43.0353C10.4875 41.0908 12.083 39.008 13.2668 36.8977L44.7987 25.4108C47.0625 26.2652 49.6238 26.8336 52.3619 27.073C62.5262 27.9617 68.4063 34.3774 71.4266 41.9707C74.4566 49.5885 74.5759 58.3309 73.2264 63.6714C71.8688 69.0439 70.3067 72.0461 69.0016 74.5545L69.0007 74.5563L68.9942 74.5688C68.389 75.7319 67.8272 76.8117 67.3728 77.9714C66.1816 81.012 65.4147 83.2804 65.147 85.3228C64.8762 87.3891 65.1181 89.2041 65.8967 91.3412L65.903 91.3585L65.9105 91.3753C66.1098 91.8177 66.3555 92.2317 66.6429 92.6173ZM36.0892 18.0729C36.9916 20.1644 38.6272 21.9534 40.7679 23.376L15.0442 32.747C15.7682 30.2808 15.8699 27.859 15.2155 25.6771C14.4705 23.1929 12.7598 21.0698 9.98373 19.5751C8.01543 18.5154 5.06109 17.1698 1.59976 15.9764C1.10413 15.8055 1.12843 15.107 1.56714 14.9472L39.6376 1.07831C40.0763 0.918489 40.5442 1.43762 40.2746 1.88727C38.392 5.02748 36.9955 7.95805 36.1701 10.0356C35.006 12.9656 35.0618 15.6916 36.0892 18.0729ZM39.7785 108.226C39.4004 107.188 39.9352 106.04 40.9731 105.662L67.8547 95.8694C68.8926 95.4913 70.0404 96.0262 70.4185 97.064C70.7966 98.1019 70.2617 99.2497 69.2239 99.6278L42.3423 109.421C41.3044 109.799 40.1566 109.264 39.7785 108.226Z" fill="#BDD5DD" fill-opacity="0.1" stroke="#00FAEB"/>
</svg>
