<svg width="74" height="105" viewBox="0 0 74 105" fill="none" xmlns="http://www.w3.org/2000/svg">
<path d="M51.4828 96.1633H22.8826C23.0206 95.7026 23.1098 95.2296 23.1456 94.7457L23.147 94.7273V94.7088C23.147 92.4344 22.753 90.6462 21.7913 88.7974C20.8407 86.97 19.3437 85.1012 17.1836 82.6519C16.3598 81.7179 15.4624 80.8957 14.4958 80.0101L14.4851 80.0003L14.4836 79.9989C12.3987 78.0888 9.90345 75.8026 6.78888 71.2193C3.69288 66.6634 0.812552 58.4082 1.05204 50.2135C1.29076 42.045 4.61962 34.0042 13.8657 29.69C16.3565 28.5278 18.5686 27.117 20.4032 25.5394H53.9622C55.7968 27.117 58.0089 28.5278 60.4997 29.69C69.7458 34.0042 73.0746 42.045 73.3133 50.2135C73.5528 58.4082 70.6725 66.6634 67.5765 71.2193C64.4619 75.8026 61.9667 78.0888 59.8818 79.9989L59.8802 80.0003L59.8697 80.01C58.903 80.8957 58.0056 81.7179 57.1818 82.6519C55.0217 85.1012 53.5247 86.97 52.5741 88.7974C51.6124 90.6462 51.2184 92.4344 51.2184 94.7088V94.7273L51.2198 94.7457C51.2556 95.2296 51.3448 95.7026 51.4828 96.1633ZM20.8984 101.634C20.8984 100.529 21.7939 99.6338 22.8984 99.6338H51.5082C52.6128 99.6338 53.5082 100.529 53.5082 101.634C53.5082 102.738 52.6128 103.634 51.5082 103.634H22.8984C21.7939 103.634 20.8984 102.738 20.8984 101.634ZM51.1176 8.13943C49.0209 10.494 48.1403 13.0745 48.2905 15.6636C48.4225 17.9376 49.347 20.1784 50.8714 22.2478H23.494C25.0184 20.1784 25.9429 17.9376 26.0749 15.6636C26.2251 13.0745 25.3445 10.494 23.2478 8.13943C21.7611 6.46993 19.4458 4.19441 16.6021 1.88828C16.1949 1.55807 16.4568 0.910156 16.9237 0.910156H57.4417C57.9086 0.910156 58.1705 1.55807 57.7633 1.88828C54.9196 4.19441 52.6043 6.46993 51.1176 8.13943Z" fill="#BDD5DD" fill-opacity="0.1" stroke="#00FAEB"/>
</svg>
