<svg width="67" height="81" viewBox="0 0 67 81" fill="none" xmlns="http://www.w3.org/2000/svg">
<mask id="path-1-inside-1_435_6523" fill="white">
<path d="M37.2539 0L55.9031 5.72485L59.1424 13.1388L43.0512 26.0311L36.4988 24.0196L30.4127 4.3194L37.2539 0Z"/>
<path d="M28.6695 14.5502C16.2556 15.9706 5.42038 24.3005 1.47303 37.1593C-3.91679 54.717 5.94725 73.3197 23.505 78.7095C41.0627 84.0993 59.6654 74.2353 65.0552 56.6776C68.9831 43.8821 64.6125 30.9299 55.1569 22.759L47.461 28.7481C55.1757 34.4213 58.9741 44.1564 55.9851 53.8933C52.133 66.4417 38.8377 73.4915 26.2893 69.6395C13.7408 65.7874 6.69102 52.4921 10.5431 39.9436C13.5531 30.1384 22.1021 24.1484 31.6828 23.8357L28.6695 14.5502Z"/>
</mask>
<path d="M37.2539 0L55.9031 5.72485L59.1424 13.1388L43.0512 26.0311L36.4988 24.0196L30.4127 4.3194L37.2539 0Z" fill="#BDD5DD" fill-opacity="0.1"/>
<path d="M28.6695 14.5502C16.2556 15.9706 5.42038 24.3005 1.47303 37.1593C-3.91679 54.717 5.94725 73.3197 23.505 78.7095C41.0627 84.0993 59.6654 74.2353 65.0552 56.6776C68.9831 43.8821 64.6125 30.9299 55.1569 22.759L47.461 28.7481C55.1757 34.4213 58.9741 44.1564 55.9851 53.8933C52.133 66.4417 38.8377 73.4915 26.2893 69.6395C13.7408 65.7874 6.69102 52.4921 10.5431 39.9436C13.5531 30.1384 22.1021 24.1484 31.6828 23.8357L28.6695 14.5502Z" fill="#BDD5DD" fill-opacity="0.1"/>
<path d="M55.9031 5.72485L56.8194 5.32447L56.6355 4.90364L56.1965 4.76888L55.9031 5.72485ZM37.2539 0L37.5474 -0.955971L37.1084 -1.09074L36.7201 -0.845566L37.2539 0ZM30.4127 4.3194L29.8788 3.47383L29.2312 3.88275L29.4573 4.61457L30.4127 4.3194ZM36.4988 24.0196L35.5434 24.3148L35.6995 24.8203L36.2053 24.9756L36.4988 24.0196ZM43.0512 26.0311L42.7577 26.987L43.2635 27.1423L43.6765 26.8115L43.0512 26.0311ZM59.1424 13.1388L59.7677 13.9192L60.3654 13.4403L60.0588 12.7384L59.1424 13.1388ZM1.47303 37.1593L0.517056 36.8659L1.47303 37.1593ZM28.6695 14.5502L29.6207 14.2415C29.4738 13.789 29.0285 13.5026 28.5558 13.5567L28.6695 14.5502ZM65.0552 56.6776L66.0111 56.971L65.0552 56.6776ZM55.1569 22.759L55.8108 22.0023C55.45 21.6905 54.9191 21.6769 54.5428 21.9698L55.1569 22.759ZM47.461 28.7481L46.8469 27.9589C46.5996 28.1513 46.4569 28.4484 46.4611 28.7617C46.4654 29.0749 46.6162 29.3681 46.8686 29.5537L47.461 28.7481ZM55.9851 53.8933L56.9411 54.1867L55.9851 53.8933ZM26.2893 69.6395L26.5827 68.6835L26.2893 69.6395ZM10.5431 39.9436L9.58714 39.6502L10.5431 39.9436ZM31.6828 23.8357L31.7154 24.8352C32.0295 24.825 32.3205 24.6676 32.5012 24.4104C32.6818 24.1532 32.731 23.826 32.6339 23.5271L31.6828 23.8357ZM56.1965 4.76888L37.5474 -0.955971L36.9605 0.955971L55.6096 6.68082L56.1965 4.76888ZM36.7201 -0.845566L29.8788 3.47383L30.9466 5.16497L37.7878 0.845566L36.7201 -0.845566ZM29.4573 4.61457L35.5434 24.3148L37.4542 23.7245L31.3682 4.02423L29.4573 4.61457ZM36.2053 24.9756L42.7577 26.987L43.3447 25.0751L36.7923 23.0637L36.2053 24.9756ZM43.6765 26.8115L59.7677 13.9192L58.5172 12.3583L42.4259 25.2506L43.6765 26.8115ZM60.0588 12.7384L56.8194 5.32447L54.9867 6.12523L58.2261 13.5391L60.0588 12.7384ZM2.429 37.4528C6.25482 24.9899 16.7474 16.9208 28.7832 15.5437L28.5558 13.5567C15.7637 15.0203 4.58595 23.6111 0.517056 36.8659L2.429 37.4528ZM23.7984 77.7536C6.76868 72.5258 -2.79874 54.4825 2.429 37.4528L0.517056 36.8659C-5.03483 54.9516 5.12582 74.1136 23.2115 79.6655L23.7984 77.7536ZM64.0992 56.3841C58.8715 73.4139 40.8282 82.9813 23.7984 77.7536L23.2115 79.6655C41.2972 85.2174 60.4593 75.0567 66.0111 56.971L64.0992 56.3841ZM54.5031 23.5156C63.6774 31.4435 67.9037 43.9907 64.0992 56.3841L66.0111 56.971C70.0625 43.7735 65.5476 30.4163 55.8108 22.0023L54.5031 23.5156ZM54.5428 21.9698L46.8469 27.9589L48.0752 29.5373L55.7711 23.5482L54.5428 21.9698ZM56.9411 54.1867C60.0644 44.0124 56.0837 33.8477 48.0535 27.9425L46.8686 29.5537C54.2677 34.9949 57.8839 44.3004 55.0291 53.5998L56.9411 54.1867ZM25.9958 70.5954C39.0723 74.6096 52.9269 67.2632 56.9411 54.1867L55.0291 53.5998C51.3391 65.6203 38.6032 72.3735 26.5827 68.6835L25.9958 70.5954ZM9.58714 39.6502C5.57297 52.7266 12.9194 66.5813 25.9958 70.5954L26.5827 68.6835C14.5623 64.9935 7.80906 52.2576 11.4991 40.2371L9.58714 39.6502ZM31.6502 22.8363C21.6638 23.1621 12.7286 29.4165 9.58714 39.6502L11.4991 40.2371C14.3775 30.8604 22.5403 25.1346 31.7154 24.8352L31.6502 22.8363ZM32.6339 23.5271L29.6207 14.2415L27.7184 14.8589L30.7316 24.1444L32.6339 23.5271Z" fill="#00FAEB" mask="url(#path-1-inside-1_435_6523)"/>
</svg>
