<svg width="35" height="75" viewBox="0 0 35 75" fill="none" xmlns="http://www.w3.org/2000/svg">
<path d="M18.1298 22.782C18.8834 20.7727 21.1235 19.7548 23.133 20.5084L25.6983 21.4703C27.7078 22.2239 28.7259 24.4636 27.9722 26.4729L11.091 71.4778C10.3373 73.4871 8.0973 74.5051 6.08775 73.7515L3.5225 72.7895C1.51295 72.036 0.494865 69.7962 1.24854 67.7869L18.1298 22.782Z" fill="#BDD5DD" fill-opacity="0.1"/>
<path d="M25.5772 7.13427C24.3512 8.03831 23.3072 8.80812 22.6752 9.62007C21.3564 11.3143 20.6797 15.1441 22.8429 17.6198C22.9386 17.2512 23.0916 16.9272 23.2722 16.6952C23.5478 16.3411 24.0031 16.0054 24.5377 15.6112C25.3972 14.9774 26.4619 14.1923 27.3152 12.9363C28.247 14.0878 28.2518 16.5997 28.1868 17.7271C28.1601 18.1901 27.9266 18.9829 27.4852 19.6817C31.6739 19.5891 33.819 14.1779 33.9454 11.9865C34.0945 9.40123 34.0835 3.64075 31.9468 1C29.99 3.88041 27.5483 5.68083 25.5772 7.13427Z" fill="#BDD5DD" fill-opacity="0.1"/>
<path d="M3.5225 72.7895L3.69806 72.3214H3.69806L3.5225 72.7895ZM1.24854 67.7869L1.71669 67.9625L1.24854 67.7869ZM11.091 71.4778L11.5592 71.6534L11.091 71.4778ZM6.08775 73.7515L5.91219 74.2197H5.91219L6.08775 73.7515ZM25.6983 21.4703L25.5227 21.9385L25.6983 21.4703ZM27.9722 26.4729L27.5041 26.2973L27.9722 26.4729ZM23.133 20.5084L23.3086 20.0402L23.133 20.5084ZM18.1298 22.782L17.6616 22.6064L18.1298 22.782ZM22.6752 9.62007L22.2806 9.31295L22.6752 9.62007ZM25.5772 7.13427L25.8739 7.5367L25.5772 7.13427ZM22.8429 17.6198L22.4664 17.9488L23.0891 18.6615L23.3269 17.7454L22.8429 17.6198ZM23.2722 16.6952L22.8777 16.388L23.2722 16.6952ZM24.5377 15.6112L24.8344 16.0136L24.5377 15.6112ZM27.3152 12.9363L27.7039 12.6217L27.2802 12.098L26.9017 12.6553L27.3152 12.9363ZM28.1868 17.7271L27.6876 17.6983L28.1868 17.7271ZM27.4852 19.6817L27.0625 19.4147L26.5651 20.2022L27.4963 20.1816L27.4852 19.6817ZM33.9454 11.9865L33.4463 11.9577L33.9454 11.9865ZM31.9468 1L32.3355 0.685497L31.9118 0.161796L31.5332 0.719029L31.9468 1ZM23.9442 20.8999L23.626 21.2856L24.3973 21.922L24.7155 21.5364L23.9442 20.8999ZM26.217 17.1764C26.0984 16.927 25.8002 16.8209 25.5508 16.9395C25.3014 17.058 25.1953 17.3563 25.3138 17.6057L26.217 17.1764ZM22.9575 20.9765L25.5227 21.9385L25.8738 21.0022L23.3086 20.0402L22.9575 20.9765ZM27.5041 26.2973L10.6229 71.3022L11.5592 71.6534L28.4404 26.6485L27.5041 26.2973ZM6.26331 73.2833L3.69806 72.3214L3.34694 73.2577L5.91219 74.2197L6.26331 73.2833ZM1.71669 67.9625L18.5979 22.9576L17.6616 22.6064L0.780391 67.6113L1.71669 67.9625ZM3.69806 72.3214C1.94705 71.6647 1.06002 69.7132 1.71669 67.9625L0.780391 67.6113C-0.07029 69.8792 1.07886 72.4072 3.34694 73.2577L3.69806 72.3214ZM10.6229 71.3022C9.96618 73.0529 8.01436 73.94 6.26331 73.2833L5.91219 74.2197C8.18024 75.0702 10.7085 73.9213 11.5592 71.6534L10.6229 71.3022ZM25.5227 21.9385C27.2737 22.5951 28.1608 24.5467 27.5041 26.2973L28.4404 26.6485C29.2911 24.3806 28.1419 21.8527 25.8738 21.0022L25.5227 21.9385ZM23.3086 20.0402C21.0405 19.1897 18.5123 20.3386 17.6616 22.6064L18.5979 22.9576C19.2546 21.2069 21.2064 20.3199 22.9575 20.9765L23.3086 20.0402ZM23.0697 9.92719C23.6498 9.182 24.6267 8.45639 25.8739 7.5367L25.2805 6.73185C24.0756 7.62023 22.9646 8.43423 22.2806 9.31295L23.0697 9.92719ZM23.2194 17.2908C22.2428 16.1731 21.8932 14.7337 21.9528 13.3484C22.0128 11.9545 22.4849 10.6785 23.0697 9.92719L22.2806 9.31295C21.5466 10.2559 21.021 11.7419 20.9538 13.3054C20.8861 14.8775 21.2798 16.5908 22.4664 17.9488L23.2194 17.2908ZM23.3269 17.7454C23.4092 17.428 23.5364 17.1697 23.6668 17.0023L22.8777 16.388C22.6467 16.6847 22.4679 17.0743 22.3589 17.4942L23.3269 17.7454ZM23.6668 17.0023C23.8904 16.715 24.2786 16.4235 24.8344 16.0136L24.2409 15.2088C23.7275 15.5873 23.2052 15.9672 22.8777 16.388L23.6668 17.0023ZM24.8344 16.0136C25.6924 15.381 26.8222 14.5517 27.7288 13.2172L26.9017 12.6553C26.1017 13.8329 25.1021 14.5738 24.2409 15.2088L24.8344 16.0136ZM26.9265 13.2508C27.2986 13.7106 27.5208 14.5045 27.6283 15.4003C27.7332 16.2738 27.7191 17.1519 27.6876 17.6983L28.6859 17.7558C28.7195 17.1749 28.7355 16.2334 28.6212 15.2812C28.5096 14.3513 28.2636 13.3135 27.7039 12.6217L26.9265 13.2508ZM27.6876 17.6983C27.6665 18.0651 27.4653 18.777 27.0625 19.4147L27.908 19.9487C28.388 19.1888 28.6537 18.3152 28.6859 17.7558L27.6876 17.6983ZM33.4463 11.9577C33.3887 12.9553 32.8543 14.7724 31.8207 16.3467C30.7878 17.92 29.3331 19.1407 27.4742 19.1819L27.4963 20.1816C29.826 20.1301 31.5383 18.5989 32.6567 16.8956C33.7744 15.1932 34.3758 13.209 34.4446 12.0152L33.4463 11.9577ZM31.5581 1.3145C32.5326 2.51891 33.0577 4.49728 33.3068 6.57362C33.5533 8.62764 33.5198 10.6823 33.4463 11.9577L34.4446 12.0152C34.5201 10.7053 34.5556 8.58719 34.2997 6.45447C34.0464 4.34409 33.4977 2.12184 32.3355 0.685497L31.5581 1.3145ZM25.8739 7.5367C27.8435 6.08441 30.3503 4.23983 32.3604 1.28097L31.5332 0.719029C29.6297 3.52099 27.2531 5.27724 25.2805 6.73185L25.8739 7.5367ZM24.7155 21.5364C25.3647 20.7497 25.8515 19.9455 26.1261 19.2134C26.3921 18.5042 26.4954 17.7621 26.217 17.1764L25.3138 17.6057C25.4156 17.8198 25.4248 18.2357 25.1898 18.8622C24.9633 19.4659 24.5422 20.1753 23.9442 20.8999L24.7155 21.5364Z" fill="#00FAEB"/>
</svg>
