<svg width="46" height="97" viewBox="0 0 46 97" fill="none" xmlns="http://www.w3.org/2000/svg">
<path d="M19.3398 96.3974L19.2902 96.4127L19.2448 96.4379C19.134 96.4992 18.9137 96.5489 18.6613 96.4147C18.4039 96.2777 18.0272 95.9023 17.7336 94.9322L14.4202 83.9854L34.3217 77.8442L34.7969 77.6976L34.6528 77.2216L25.7833 47.9189L25.6377 47.4378L25.1573 47.586L5.26103 53.7256L5.04635 53.0164C4.24284 50.3618 4.33621 46.0682 4.79964 41.8848C5.26084 37.7216 6.07579 33.7694 6.65361 31.848C7.28122 29.7609 7.10727 27.2131 6.30425 23.5798C5.5007 19.9442 4.04562 15.1369 2.03595 8.49746L2.0283 8.47218L1.88267 7.99103L1.49089 8.11193C1.44938 8.06305 1.39194 7.97614 1.32411 7.83711C1.15525 7.49103 1.00731 7.00693 0.862108 6.52721C0.716961 6.04768 0.570854 5.5604 0.518612 5.17566C0.497059 5.01693 0.496804 4.90935 0.504903 4.8441L0.893814 4.72409L0.749741 4.24811C0.681089 4.0213 0.574535 3.66356 0.546965 3.34932C0.534024 3.20182 0.542866 3.10472 0.557151 3.05155L8.64037 0.557213C8.66991 0.612258 8.7032 0.681835 8.73908 0.765841C8.87146 1.07584 8.987 1.45587 9.05475 1.67969L9.20038 2.16084L9.68073 2.01261C9.68127 2.01244 9.68179 2.01228 9.6823 2.01213C9.70446 2.03178 9.75049 2.08247 9.81315 2.1976C9.9728 2.49094 10.1174 2.95998 10.3127 3.60527C10.5081 4.25066 10.6472 4.71891 10.6766 5.05013C10.6886 5.18445 10.6773 5.25221 10.6695 5.27948C10.668 5.28 10.6663 5.28056 10.6644 5.28113L10.2029 5.42354L10.3293 5.88969C11.2941 9.44996 12.7439 14.2966 14.3519 18.5632C15.1557 20.6957 16.0028 22.6938 16.8528 24.3174C17.6927 25.9216 18.5694 27.2284 19.4546 27.9085C21.4014 29.4043 24.2115 32.0557 26.7662 35.1011C29.3278 38.1547 31.5885 41.5526 32.4931 44.5412L45.1803 86.4569C45.28 86.7862 45.3665 87.073 45.4256 87.3326C45.4849 87.5936 45.5082 87.7942 45.4975 87.9498C45.4873 88.0961 45.4487 88.1853 45.3924 88.2518C45.3322 88.323 45.2132 88.4133 44.965 88.4899L19.3398 96.3974ZM8.55776 0.42841C8.55776 0.428394 8.55812 0.428737 8.55881 0.429489C8.5581 0.428802 8.55776 0.428426 8.55776 0.42841ZM6.30558 57.1766L23.2568 51.9458L30.3269 75.3036L13.3756 80.5345L6.30558 57.1766Z" fill="#BDD5DD" fill-opacity="0.1" stroke="#00FAEB"/>
</svg>
