<svg width="55" height="91" viewBox="0 0 55 91" fill="none" xmlns="http://www.w3.org/2000/svg">
<path d="M32.8372 48.3583L26.5572 51.9472C26.8548 61.3262 40.8926 78.3927 41.5454 79.052C42.0676 79.5795 41.4437 81.691 41.0665 82.6808C40.8475 83.4942 40.8376 85.1344 42.5501 85.188C49.6481 92.7453 56.1385 90.6241 53.3303 84.1889C50.8064 78.405 40.0269 60.5087 32.8372 48.3583Z" fill="#BDD5DD" fill-opacity="0.1"/>
<path d="M31.7896 46.3763C23.0022 31.5258 7.5638 4.99136 1 1C1.21129 13.7834 12.4367 38.08 18.5993 48.4946C18.5993 48.4946 21.397 46.1216 25.5096 49.9652L31.7896 46.3763Z" fill="#BDD5DD" fill-opacity="0.1"/>
<path d="M32.8372 48.3583L26.5572 51.9472C26.8548 61.3262 40.8926 78.3927 41.5454 79.052C42.0676 79.5795 41.4437 81.691 41.0665 82.6808C40.8475 83.4942 40.8376 85.1344 42.5501 85.188C49.6481 92.7453 56.1385 90.6241 53.3303 84.1889C50.8064 78.405 40.0269 60.5087 32.8372 48.3583Z" stroke="#00FAEB"/>
<path d="M31.7896 46.3763C23.0022 31.5258 7.5638 4.99136 1 1C1.21129 13.7834 12.4367 38.08 18.5993 48.4946C18.5993 48.4946 21.397 46.1216 25.5096 49.9652L31.7896 46.3763Z" stroke="#00FAEB"/>
</svg>
