<svg width="40" height="63" viewBox="0 0 40 63" fill="none" xmlns="http://www.w3.org/2000/svg">
<path d="M26.4041 0.929931C26.6145 0.534779 27.1054 0.384948 27.5007 0.595345L39.07 6.75413C39.4653 6.96452 39.615 7.45538 39.4047 7.85051L35.827 14.57L22.8265 7.64939L26.4041 0.929931ZM2.29909 46.204L20.9337 11.2044L33.9342 18.125L15.2996 53.1246C15.0893 53.5197 14.5983 53.6695 14.2031 53.4591L2.6337 47.3004C2.23849 47.09 2.08871 46.5991 2.29909 46.204ZM1.70048 62.4831C1.60221 62.532 1.48574 62.4663 1.47652 62.3571L1.17548 58.792L5.01445 60.8357L1.70048 62.4831ZM0.944048 56.0513L0.500687 50.8007C0.490344 50.6782 0.619802 50.5927 0.728489 50.6506L12.4255 56.8773C12.537 56.9367 12.5348 57.0972 12.4216 57.1534L7.55714 59.5716L0.944048 56.0513Z" fill="#BDD5DD" fill-opacity="0.1" stroke="#00FAEB"/>
</svg>
