<svg width="34" height="71" viewBox="0 0 34 71" fill="none" xmlns="http://www.w3.org/2000/svg">
<path d="M6.64841 11.5225C6.99827 8.37309 9.87595 6.09912 13.0759 6.44345L27.8044 8.02831C31.0044 8.37264 33.3148 11.2049 32.965 14.3543L27.3516 64.8865C27.0017 68.0359 24.124 70.3099 20.9241 69.9655L6.19558 68.3807C2.99563 68.0363 0.685173 65.2041 1.03503 62.0547L6.64841 11.5225Z" fill="#BDD5DD" fill-opacity="0.1"/>
<path d="M16.84 2.27838C16.9275 1.49103 17.6469 0.922536 18.4469 1.00862L24.1314 1.6203C24.9314 1.70638 25.509 2.41444 25.4215 3.2018L25.142 5.71762L16.5606 4.79421L16.84 2.27838Z" fill="#BDD5DD" fill-opacity="0.1"/>
<path d="M20.177 12.9058L19.4889 19.0995M16.6186 15.581L22.9117 16.2582M11.4897 61.7525L17.7828 62.4296M6.19558 68.3807L20.9241 69.9655C24.124 70.3099 27.0017 68.0359 27.3516 64.8865L32.965 14.3543C33.3148 11.2049 31.0044 8.37264 27.8044 8.02831L13.0759 6.44345C9.87595 6.09912 6.99827 8.37309 6.64841 11.5225L1.03503 62.0547C0.685173 65.2041 2.99563 68.0363 6.19558 68.3807ZM25.142 5.71762L25.4215 3.2018C25.509 2.41444 24.9314 1.70638 24.1314 1.6203L18.4469 1.00862C17.6469 0.922536 16.9275 1.49103 16.84 2.27838L16.5606 4.79421L25.142 5.71762Z" stroke="#00FAEB"/>
</svg>
