<svg width="51" height="81" viewBox="0 0 51 81" fill="none" xmlns="http://www.w3.org/2000/svg">
<path d="M34.3993 33.2719L33.8297 34.3299L33.8279 34.3335L34.27 34.5669C33.8279 34.3335 33.8279 34.3335 33.8278 34.3336L33.8276 34.334L33.8266 34.3358L33.8227 34.3433L33.8067 34.3735L33.7428 34.4936C33.6862 34.5997 33.6018 34.7574 33.4908 34.9633C33.2689 35.3749 32.941 35.9788 32.5173 36.7468C31.6699 38.2829 30.4396 40.4751 28.9093 43.0978C25.8481 48.3441 21.5886 55.3089 16.7923 62.1894C11.9841 69.0871 8.39789 73.9819 5.75457 76.9852C4.42934 78.491 3.36811 79.4895 2.53048 80.0307C1.67424 80.5839 1.21346 80.5629 0.942901 80.3933C0.659587 80.2158 0.429944 79.8013 0.519209 78.801C0.607021 77.817 0.994886 76.4296 1.72032 74.571C3.16742 70.8635 5.8957 65.4328 9.96687 57.9044C14.0299 50.3911 18.2901 43.4248 21.5353 38.3358C23.1577 35.7917 24.5258 33.7176 25.4881 32.2799C25.9693 31.5611 26.3489 31.0014 26.6081 30.6217C26.7377 30.4319 26.8371 30.287 26.9041 30.1897L26.9799 30.0799L26.999 30.0523L27.0038 30.0455L27.0049 30.0438L27.0052 30.0434C27.0052 30.0433 27.0053 30.0433 26.5946 29.7581L27.0053 30.0433L27.0061 30.0421L27.687 29.0554C29.4515 30.7897 32.019 32.4007 34.3993 33.2719ZM40.4499 6.70522C40.8768 6.33078 41.4644 5.98511 42.1998 5.61178C42.6002 5.40854 43.0125 5.21228 43.4525 5.0028C43.8424 4.81714 44.2542 4.62111 44.6988 4.40064C46.3719 3.57104 48.269 2.50814 50.0627 0.859619C50.5003 2.1143 50.5702 3.76566 50.4434 5.44924C50.2959 7.40944 49.8903 9.31888 49.59 10.4943C49.3115 11.5845 48.2132 13.5993 46.6038 14.9181C45.8071 15.571 44.913 16.03 43.9588 16.1445C43.0156 16.2576 41.966 16.0404 40.8309 15.2582C39.0414 14.0251 38.5136 12.2947 38.647 10.6533C38.7829 8.98002 39.6052 7.44601 40.4499 6.70522ZM32.153 22.5835L37.0159 15.5364C37.3488 16.5448 37.9943 17.4795 39.0488 18.2125C40.0447 18.9047 41.0382 19.189 41.9906 19.1683L38.0496 26.4902C35.8665 25.7461 33.6359 24.2757 32.153 22.5835ZM35.5883 31.0628C33.2296 30.3704 30.7432 28.7767 29.1553 26.9276L30.6897 24.704C32.3398 26.3022 34.6616 27.7867 36.8743 28.6737L35.5883 31.0628Z" fill="#BDD5DD" fill-opacity="0.1" stroke="#00FAEB"/>
</svg>
