<svg width="42" height="76" viewBox="0 0 42 76" fill="none" xmlns="http://www.w3.org/2000/svg">
<path d="M25.6984 36.8725L10.1531 32.6032L10.5395 31.2089C12.4026 24.4861 18.6004 22.4255 21.469 22.2423L21.824 22.2196L21.919 21.8768L23.9999 14.3679C24.1173 13.9441 24.5594 13.6921 24.9896 13.8102L28.4467 14.7597L28.9278 14.8918L29.061 14.4111L31.0552 7.21502L31.189 6.73206L30.7058 6.59934L17.989 3.10686L18.5488 1.08684C18.6663 0.66309 19.1083 0.411076 19.5385 0.529226L40.91 6.39859C41.3393 6.51651 41.5881 6.9568 41.4709 7.37966L41.9527 7.51319L41.4709 7.37966L40.9105 9.40191L36.3629 8.153L35.8819 8.02089L35.7487 8.50161L33.7545 15.6977L33.6206 16.1806L34.1039 16.3134L38.5039 17.5218C38.9332 17.6397 39.182 18.08 39.0648 18.5028L36.9839 26.0118L36.8955 26.3306L37.1545 26.5366C38.0353 27.2371 39.4085 29.0575 40.3561 31.4589C41.2988 33.8478 41.7903 36.7373 41.0044 39.5733L31.08 75.3857L0.615678 67.0191L4.68383 52.3392L20.2314 56.6091L20.7124 56.7412L20.8456 56.2605L26.0479 37.4882L26.1817 37.0052L25.6984 36.8725ZM5.15682 49.412L9.05156 35.3578L22.5444 39.0634L18.6497 53.1176L5.15682 49.412Z" fill="#BDD5DD" fill-opacity="0.1" stroke="#00FAEB"/>
</svg>
