<svg width="56" height="91" viewBox="0 0 56 91" fill="none" xmlns="http://www.w3.org/2000/svg">
<path d="M2.28652 87.9314C-3.41055 83.6798 11.452 70.33 14.9651 66.362L26.6438 77.6993C14.9651 88.3509 9.12292 93.0333 2.28652 87.9314Z" fill="#BDD5DD" fill-opacity="0.1"/>
<path d="M29.8838 74.9763L17.9203 63.3555C18.9132 61.6549 20.0216 61.1059 21.1919 59.6708C22.3621 58.2358 19.078 52.0181 19.078 45.4991C19.078 37.8466 26.1991 31.4181 28.7627 32.7446C31.3263 34.0711 29.1303 40.7667 27.7698 47.7666C27.0537 51.4513 28.6208 53.4977 29.8838 52.9872C37.0049 48.1688 40.0516 30.8796 38.714 25.7775C37.0049 19.2588 36.1504 3.67008 44.1261 1.40235C59.8118 -3.05755 54.6654 30.8795 52.1018 37.9653C50.5041 42.3814 46.1384 52.9872 42.7018 57.8057C36.7385 67.607 36.2454 68.9297 29.8838 74.9763Z" fill="#BDD5DD" fill-opacity="0.1"/>
<path d="M2.28652 87.9314C-3.41055 83.6798 11.452 70.33 14.9651 66.362L26.6438 77.6993C14.9651 88.3509 9.12292 93.0333 2.28652 87.9314Z" stroke="#00FAEB"/>
<path d="M29.8838 74.9763L17.9203 63.3555C18.9132 61.6549 20.0216 61.1059 21.1919 59.6708C22.3621 58.2358 19.078 52.0181 19.078 45.4991C19.078 37.8466 26.1991 31.4181 28.7627 32.7446C31.3263 34.0711 29.1303 40.7667 27.7698 47.7666C27.0537 51.4513 28.6208 53.4977 29.8838 52.9872C37.0049 48.1688 40.0516 30.8796 38.714 25.7775C37.0049 19.2588 36.1504 3.67008 44.1261 1.40235C59.8118 -3.05755 54.6654 30.8795 52.1018 37.9653C50.5041 42.3814 46.1384 52.9872 42.7018 57.8057C36.7385 67.607 36.2454 68.9297 29.8838 74.9763Z" stroke="#00FAEB"/>
</svg>
