<svg width="48" height="72" viewBox="0 0 48 72" fill="none" xmlns="http://www.w3.org/2000/svg">
<path d="M42.5882 60.4589L25.5401 66.7392C25.5133 66.4901 25.4665 66.2431 25.3983 65.9992L25.3933 65.9816L25.3871 65.9643C24.8731 64.5376 24.2206 63.497 23.1984 62.5498C22.1936 61.6187 20.846 60.7922 18.9808 59.7651C18.2613 59.3689 17.5226 59.0597 16.738 58.7314L16.7249 58.726L16.7229 58.7251C15.0291 58.0164 13.0104 57.1717 10.1039 55.0531C7.2276 52.9565 3.65205 48.5342 1.98552 43.4512C0.326864 38.3923 0.573784 32.747 5.20554 28.0584C6.46158 26.787 7.49791 25.4248 8.27263 24.0414L28.6533 16.5336C30.1267 17.0886 31.7865 17.4573 33.5565 17.6138C40.08 18.1906 43.858 22.3484 45.806 27.3009C47.7632 32.2767 47.8389 37.9896 46.9697 41.468C46.0916 44.9819 45.0828 46.9425 44.2366 48.5872L44.2356 48.5891L44.2294 48.6012C43.8373 49.3633 43.4684 50.0801 43.1697 50.8511C42.395 52.8506 41.8893 54.359 41.7124 55.7242C41.5324 57.1128 41.6944 58.3332 42.2084 59.76L42.2146 59.7773L42.2221 59.794C42.326 60.0273 42.4486 60.249 42.5882 60.4589ZM25.5547 70.7489C25.3391 70.1506 25.646 69.4947 26.2281 69.2803L43.7081 62.8409C44.2875 62.6275 44.9341 62.9273 45.1488 63.5231C45.3643 64.1214 45.0574 64.7773 44.4753 64.9917L26.9953 71.4311C26.416 71.6445 25.7693 71.3447 25.5547 70.7489ZM22.8801 6.17884C22.1085 8.14279 22.1424 9.98111 22.8294 11.5912C23.3927 12.9115 24.3812 14.0468 25.6634 14.9656L9.56322 20.8966C9.959 19.3623 9.99326 17.8529 9.58537 16.4777C9.0872 14.7981 7.94311 13.3667 6.10039 12.3634C4.81172 11.6618 2.88179 10.7732 0.62231 9.98537C0.551326 9.96062 0.502234 9.89706 0.500063 9.80178C0.49901 9.75554 0.510985 9.71655 0.527654 9.68965C0.542138 9.66628 0.5639 9.64501 0.604015 9.63023L25.3597 0.51067C25.3997 0.495935 25.4284 0.498488 25.4519 0.506178C25.4796 0.515198 25.512 0.535946 25.5398 0.571052C25.5968 0.642989 25.6029 0.725882 25.5611 0.796409C24.3325 2.8688 23.4203 4.80398 22.8801 6.17884Z" fill="#BDD5DD" fill-opacity="0.1" stroke="#00FAEB"/>
</svg>
