<svg width="72" height="149" viewBox="0 0 72 149" fill="none" xmlns="http://www.w3.org/2000/svg">
<path d="M30.7223 148.275L30.673 148.29L30.6278 148.315C30.3842 148.449 29.9422 148.536 29.4587 148.282C28.9712 148.025 28.3553 147.373 27.8895 145.849L22.6808 128.806L53.7616 119.307L54.2398 119.161L54.0937 118.682L40.3568 73.7347L40.2106 73.2566L39.7325 73.4027L8.65161 82.9016L8.2397 81.5538C6.97801 77.4255 7.13002 70.7915 7.84784 64.374C8.56337 57.977 9.82809 51.8983 10.7289 48.9317C11.6803 45.798 11.4246 41.9458 10.1828 36.3812C8.94045 30.8143 6.68919 23.4481 3.57322 13.2525L3.5654 13.2269L3.41926 12.7487L2.94109 12.8949C2.93855 12.8957 2.93674 12.8961 2.93559 12.8963C2.93558 12.8963 2.93556 12.8963 2.93555 12.8963C2.93025 12.8947 2.90328 12.8849 2.85585 12.8422C2.75348 12.7502 2.6282 12.5719 2.49032 12.2921C2.21743 11.7381 1.98214 10.9729 1.75921 10.2435C1.53633 9.5142 1.3026 8.7448 1.21825 8.12956C1.17562 7.81866 1.17939 7.59887 1.21282 7.4638C1.22806 7.40222 1.24474 7.37835 1.24869 7.3734C1.24968 7.37301 1.25114 7.37247 1.25315 7.37186L1.73132 7.22572L1.58518 6.74756C1.47995 6.40324 1.30624 5.82906 1.26076 5.31575C1.23781 5.05666 1.25276 4.8613 1.2943 4.73567C1.32903 4.63064 1.36518 4.61274 1.40216 4.60143C1.40217 4.60143 1.40218 4.60142 1.40219 4.60142L14.1927 0.692387C14.2749 0.804658 14.372 0.987889 14.475 1.22677C14.6867 1.71774 14.8696 2.31447 14.9739 2.65572L15.12 3.13388L15.5982 2.98775C15.7088 2.95395 15.7621 2.97112 15.8125 3.00267C15.8889 3.05052 15.9972 3.16337 16.1274 3.40037C16.391 3.87999 16.6233 4.63114 16.9222 5.60939C17.2213 6.58786 17.4475 7.33698 17.4962 7.87849C17.5202 8.14583 17.4932 8.29788 17.4568 8.37882C17.4329 8.43202 17.3982 8.47649 17.2861 8.51076L16.8218 8.65265L16.95 9.12089C18.4431 14.5776 20.686 22.0031 23.1724 28.5369C24.4153 31.8031 25.7229 34.8568 27.0324 37.334C28.3318 39.7919 29.6669 41.7497 30.987 42.7543C34.02 45.0622 38.3863 49.1434 42.3538 53.8275C46.3284 58.5199 49.8579 63.7654 51.2748 68.4015L70.9246 132.697C71.0782 133.199 71.2153 133.649 71.3092 134.058C71.4034 134.468 71.4458 134.805 71.4265 135.081C71.4079 135.347 71.3333 135.542 71.201 135.696C71.0645 135.856 70.8285 136.018 70.4102 136.146L30.7223 148.275ZM10.113 87.6833L36.8903 79.4996L47.9968 115.84L21.2194 124.024L10.113 87.6833Z" fill="#BDD5DD" fill-opacity="0.1" stroke="#00FAEB"/>
</svg>
