<svg width="81" height="138" viewBox="0 0 81 138" fill="none" xmlns="http://www.w3.org/2000/svg">
<path d="M48.3258 73.5963L38.9382 79.0553C39.383 93.3215 60.3674 119.281 61.3431 120.284C62.1237 121.086 61.1911 124.298 60.6272 125.804C60.2999 127.041 60.2851 129.536 62.845 129.617C73.4553 141.113 83.1574 137.886 78.9597 128.097C75.1869 119.3 59.0732 92.078 48.3258 73.5963Z" fill="#BDD5DD" fill-opacity="0.1"/>
<path d="M46.7598 70.5815C33.6241 47.9927 10.5462 7.63172 0.734375 1.56055C1.05022 21.0051 17.8304 57.9622 27.0425 73.8037C27.0425 73.8037 31.2245 70.1941 37.3723 76.0405L46.7598 70.5815Z" fill="#BDD5DD" fill-opacity="0.1"/>
<path d="M48.3258 73.5963L38.9382 79.0553C39.383 93.3215 60.3674 119.281 61.3431 120.284C62.1237 121.086 61.1911 124.298 60.6272 125.804C60.2999 127.041 60.2851 129.536 62.845 129.617C73.4553 141.113 83.1574 137.886 78.9597 128.097C75.1869 119.3 59.0732 92.078 48.3258 73.5963Z" stroke="#00FAEB"/>
<path d="M46.7598 70.5815C33.6241 47.9927 10.5462 7.63172 0.734375 1.56055C1.05022 21.0051 17.8304 57.9622 27.0425 73.8037C27.0425 73.8037 31.2245 70.1941 37.3723 76.0405L46.7598 70.5815Z" stroke="#00FAEB"/>
</svg>
