<svg width="85" height="138" viewBox="0 0 85 138" fill="none" xmlns="http://www.w3.org/2000/svg">
<path d="M2.96637 134C-5.74125 127.495 16.9752 107.071 22.3448 101L40.1949 118.346C22.3447 134.642 13.4154 141.806 2.96637 134Z" fill="#BDD5DD" fill-opacity="0.1"/>
<path d="M45.1471 114.179L26.8616 96.4002C28.3792 93.7984 30.0734 92.9585 31.862 90.763C33.6507 88.5674 28.6311 79.0547 28.6311 69.0811C28.6311 57.3731 39.5153 47.538 43.4337 49.5674C47.352 51.5968 43.9955 61.8407 41.916 72.5502C40.8214 78.1875 43.2168 81.3184 45.1471 80.5373C56.0313 73.1655 60.6881 46.714 58.6435 38.9081C56.0313 28.9349 54.7252 5.08507 66.9156 1.61558C90.8902 -5.20782 83.0243 46.7139 79.1059 57.5548C76.664 64.3111 69.9913 80.5373 64.7387 87.9094C55.6241 102.905 54.8704 104.928 45.1471 114.179Z" fill="#BDD5DD" fill-opacity="0.1"/>
<path d="M2.96637 134C-5.74125 127.495 16.9752 107.071 22.3448 101L40.1949 118.346C22.3447 134.642 13.4154 141.806 2.96637 134Z" stroke="#00FAEB"/>
<path d="M45.1471 114.179L26.8616 96.4002C28.3792 93.7984 30.0734 92.9585 31.862 90.763C33.6507 88.5674 28.6311 79.0547 28.6311 69.0811C28.6311 57.3731 39.5153 47.538 43.4337 49.5674C47.352 51.5968 43.9955 61.8407 41.916 72.5502C40.8214 78.1875 43.2168 81.3184 45.1471 80.5373C56.0313 73.1655 60.6881 46.714 58.6435 38.9081C56.0313 28.9349 54.7252 5.08507 66.9156 1.61558C90.8902 -5.20782 83.0243 46.7139 79.1059 57.5548C76.664 64.3111 69.9913 80.5373 64.7387 87.9094C55.6241 102.905 54.8704 104.928 45.1471 114.179Z" stroke="#00FAEB"/>
</svg>
